<svg width="35" height="35" viewBox="0 0 35 35" fill="none" xmlns="http://www.w3.org/2000/svg">
<path fill-rule="evenodd" clip-rule="evenodd" d="M14.5253 4.19104C14.0692 4.29235 13.4331 4.56078 12.969 4.84782C12.3665 5.22054 11.9335 5.74474 10.9576 7.28333L10.0105 8.77647H8.47257C7.57341 8.77647 6.80496 8.80584 6.62246 8.84716C6.43904 8.88867 6.1801 9.02086 5.99435 9.16792C5.20711 9.79085 5.37272 10.9079 6.31488 11.33L6.68876 11.4975H17.5002H28.3116L28.6821 11.3315C29.5784 10.9299 29.7777 9.94455 29.1023 9.25462C28.6803 8.82362 28.4283 8.77647 26.5463 8.77647H24.9899L24.0428 7.28244C23.001 5.63907 22.6052 5.18137 21.8361 4.73088C21.5849 4.58369 21.1479 4.38727 20.865 4.29437L20.3507 4.12542L17.641 4.11314C15.4967 4.10346 14.8465 4.11972 14.5253 4.19104ZM9.96914 14.933C9.96914 15.9772 9.99631 16.4372 10.0738 16.7047C10.2635 17.3595 10.6497 17.765 11.3768 18.0729C11.7361 18.225 11.8323 18.2365 12.7141 18.232C13.8281 18.2264 14.3101 18.13 15.1229 17.7505C16.2871 17.207 17.2396 16.0344 17.4065 14.9396C17.46 14.5888 17.5217 14.6416 17.6363 15.1361C17.8906 16.2333 18.8157 17.2753 20.0182 17.819C20.7256 18.1389 21.2167 18.2286 22.2863 18.2329C23.1676 18.2365 23.2648 18.2248 23.6268 18.0722C24.1837 17.8373 24.5021 17.5594 24.7659 17.0781L24.9961 16.658L25.0191 15.0902L25.0421 13.5225H17.5056H9.96914V14.933ZM9.84737 24.7779C7.72805 25.8717 6.34515 26.6244 6.16637 26.7813C6.00892 26.9196 5.79552 27.188 5.6922 27.3779C5.51793 27.698 5.5023 27.7954 5.47605 28.7225L5.44775 29.7221H17.5002H29.5527L29.5244 28.7225C29.4981 27.7951 29.4825 27.6981 29.3081 27.3779C29.2047 27.188 28.9839 26.9134 28.8176 26.7676C28.6175 26.5921 27.3638 25.911 25.1086 24.7526L21.702 23.0027L19.6011 24.8907L17.5002 26.7787L15.4059 24.8966C14.254 23.8614 13.2958 23.017 13.2768 23.0202C13.2576 23.0233 11.7144 23.8143 9.84737 24.7779Z" fill="#3E6BF7"/>
</svg>
