<svg width="33" height="32" viewBox="0 0 33 32" fill="none" xmlns="http://www.w3.org/2000/svg">
<path d="M3.1941 16.058C3.31886 16.058 3.44985 16.0455 3.57461 16.0206C3.93017 15.9457 4.22959 15.7773 4.47287 15.5465C4.90329 16.1204 5.48966 16.5633 6.18207 16.8128L4.54149 22.901L1.7157 24.0363C1.39757 24.1611 1.24162 24.5291 1.36638 24.8473C1.46619 25.0906 1.69699 25.2403 1.94651 25.2403C2.02136 25.2403 2.10246 25.2216 2.17731 25.1966L5.29628 23.949C5.47718 23.8742 5.61442 23.7182 5.67056 23.5311L7.54818 16.5321C7.56066 16.4884 7.55442 16.4385 7.55442 16.3949C8.84567 13.1761 11.9958 10.893 15.67 10.893C17.8782 10.893 19.8868 11.7226 21.4276 13.0763L30.8157 10.3129C31.1276 10.2193 31.321 9.90116 31.2524 9.58303L30.7409 7.13776C30.6722 6.81962 30.3728 6.60753 30.0484 6.6512L6.69982 9.63293C5.26509 9.93859 4.16722 11.0614 3.8366 12.4338C3.51223 12.3152 3.15667 12.2841 2.81358 12.3589C2.32078 12.4587 1.90284 12.7457 1.62837 13.1636C1.3539 13.5816 1.26033 14.0806 1.36014 14.5734C1.54728 15.4529 2.32702 16.058 3.1941 16.058Z" fill="#3E6BF7"/>
<path d="M20.9651 14.3306C20.9589 14.3244 20.9464 14.3182 20.9339 14.3119C19.5803 12.9708 17.7214 12.1411 15.6691 12.1411C13.6168 12.1411 11.7579 12.9708 10.4043 14.3119C10.3981 14.3182 10.3856 14.3244 10.3731 14.3306C10.3669 14.3369 10.3606 14.3493 10.3544 14.3618C9.01324 15.7092 8.18359 17.5681 8.18359 19.6204C8.18359 21.6727 9.01324 23.5316 10.3544 24.8852C10.3606 24.8915 10.3669 24.9039 10.3731 24.9102C10.3793 24.9164 10.3918 24.9227 10.3981 24.9289C11.7517 26.2701 13.6106 27.0997 15.6629 27.0997C17.7152 27.0997 19.5741 26.2701 20.9277 24.9289C20.9339 24.9227 20.9464 24.9164 20.9527 24.9102C20.9589 24.9039 20.9651 24.8915 20.9714 24.8852C22.325 23.5378 23.1547 21.6727 23.1547 19.6204C23.1547 17.5681 22.325 15.7092 20.9839 14.3556C20.9714 14.3493 20.9714 14.3369 20.9651 14.3306ZM10.841 15.678L13.5233 18.3666C13.4048 18.5662 13.3174 18.7783 13.2613 19.0029H9.46237C9.58713 17.7428 10.0862 16.6012 10.841 15.678ZM9.46237 20.2442H13.2613C13.3174 20.4688 13.411 20.6809 13.5233 20.8805L10.841 23.5628C10.0862 22.6458 9.58713 21.498 9.46237 20.2442ZM15.0453 25.8272C13.7915 25.7024 12.65 25.2034 11.7267 24.4486L14.4091 21.7663C14.6087 21.8848 14.8208 21.9721 15.0453 22.0345V25.8272ZM15.0453 17.2188C14.8208 17.2749 14.6087 17.3685 14.4091 17.4808L11.7205 14.7922C12.6437 14.0374 13.7915 13.5384 15.0391 13.4137V17.2188H15.0453ZM16.2929 13.4137C17.5467 13.5384 18.6883 14.0374 19.6115 14.7922L16.923 17.4808C16.7233 17.3623 16.5112 17.2749 16.2867 17.2188V13.4137H16.2929ZM16.2929 25.8272V22.0283C16.5175 21.9721 16.7358 21.8785 16.9292 21.76L19.6115 24.4423C18.6883 25.2034 17.5467 25.7024 16.2929 25.8272ZM20.4973 23.569L17.815 20.8867C17.9335 20.6871 18.0208 20.475 18.077 20.2504H21.8759C21.7511 21.498 21.2521 22.6458 20.4973 23.569ZM18.077 18.9966C18.0208 18.772 17.9273 18.56 17.815 18.3603L20.4973 15.6718C21.2521 16.595 21.7511 17.7428 21.8759 18.9904H18.077V18.9966Z" fill="#3E6BF7"/>
</svg>
