<svg width="70" height="70" viewBox="0 0 70 70" fill="none" xmlns="http://www.w3.org/2000/svg">
<rect width="70" height="70" rx="4" fill="#3E6BF7" fill-opacity="0.05"/>
<path d="M26.0286 29.2617C26.1086 29.2617 26.1926 29.2537 26.2725 29.2377C26.5006 29.1897 26.6926 29.0817 26.8486 28.9337C27.1246 29.3017 27.5006 29.5857 27.9446 29.7457L26.8926 33.6497L25.0806 34.3777C24.8766 34.4577 24.7766 34.6937 24.8566 34.8977C24.9206 35.0537 25.0686 35.1497 25.2286 35.1497C25.2766 35.1497 25.3286 35.1377 25.3766 35.1217L27.3766 34.3217C27.4926 34.2737 27.5806 34.1737 27.6166 34.0537L28.8206 29.5657C28.8286 29.5377 28.8246 29.5057 28.8246 29.4777C29.6526 27.4137 31.6726 25.9497 34.0286 25.9497C35.4446 25.9497 36.7326 26.4817 37.7206 27.3497L43.7406 25.5777C43.9405 25.5177 44.0646 25.3137 44.0206 25.1097L43.6926 23.5417C43.6486 23.3377 43.4566 23.2017 43.2486 23.2297L28.2766 25.1417C27.3566 25.3377 26.6526 26.0577 26.4406 26.9377C26.2326 26.8617 26.0046 26.8417 25.7846 26.8897C25.4686 26.9537 25.2006 27.1377 25.0246 27.4057C24.8486 27.6737 24.7886 27.9937 24.8526 28.3097C24.9726 28.8737 25.4726 29.2617 26.0286 29.2617Z" fill="#3E6BF7"/>
<path d="M37.4245 28.1536C37.4205 28.1496 37.4125 28.1456 37.4045 28.1416C36.5365 27.2816 35.3445 26.7496 34.0285 26.7496C32.7125 26.7496 31.5205 27.2816 30.6525 28.1416C30.6485 28.1456 30.6405 28.1496 30.6325 28.1536C30.6285 28.1576 30.6245 28.1656 30.6205 28.1736C29.7605 29.0376 29.2285 30.2296 29.2285 31.5456C29.2285 32.8616 29.7605 34.0536 30.6205 34.9216C30.6245 34.9256 30.6285 34.9336 30.6325 34.9376C30.6365 34.9416 30.6445 34.9456 30.6485 34.9496C31.5165 35.8096 32.7085 36.3416 34.0245 36.3416C35.3405 36.3416 36.5325 35.8096 37.4005 34.9496C37.4045 34.9456 37.4125 34.9416 37.4165 34.9376C37.4205 34.9336 37.4245 34.9256 37.4285 34.9216C38.2965 34.0576 38.8285 32.8616 38.8285 31.5456C38.8285 30.2296 38.2965 29.0376 37.4365 28.1696C37.4285 28.1656 37.4285 28.1576 37.4245 28.1536ZM30.9325 29.0176L32.6525 30.7416C32.5765 30.8696 32.5205 31.0056 32.4845 31.1496H30.0485C30.1285 30.3416 30.4485 29.6096 30.9325 29.0176ZM30.0485 31.9456H32.4845C32.5205 32.0896 32.5805 32.2256 32.6525 32.3536L30.9325 34.0736C30.4485 33.4856 30.1285 32.7496 30.0485 31.9456ZM33.6285 35.5256C32.8245 35.4456 32.0925 35.1256 31.5005 34.6416L33.2205 32.9216C33.3485 32.9976 33.4845 33.0536 33.6285 33.0936V35.5256ZM33.6285 30.0056C33.4845 30.0416 33.3485 30.1016 33.2205 30.1736L31.4965 28.4496C32.0885 27.9656 32.8245 27.6456 33.6245 27.5656V30.0056H33.6285ZM34.4285 27.5656C35.2325 27.6456 35.9645 27.9656 36.5565 28.4496L34.8325 30.1736C34.7045 30.0976 34.5685 30.0416 34.4245 30.0056V27.5656H34.4285ZM34.4285 35.5256V33.0896C34.5725 33.0536 34.7125 32.9936 34.8365 32.9176L36.5565 34.6376C35.9645 35.1256 35.2325 35.4456 34.4285 35.5256ZM37.1245 34.0776L35.4045 32.3576C35.4805 32.2296 35.5365 32.0936 35.5725 31.9496H38.0085C37.9285 32.7496 37.6085 33.4856 37.1245 34.0776ZM35.5725 31.1456C35.5365 31.0016 35.4765 30.8656 35.4045 30.7376L37.1245 29.0136C37.6085 29.6056 37.9285 30.3416 38.0085 31.1416H35.5725V31.1456Z" fill="#3E6BF7"/>
<path class="svg-name-path" d="M20.0938 48.4056H20.8438C20.8047 48.765 20.7018 49.0866 20.5352 49.3705C20.3685 49.6543 20.1328 49.8796 19.8281 50.0463C19.5234 50.2103 19.1432 50.2924 18.6875 50.2924C18.3542 50.2924 18.0508 50.2299 17.7773 50.1049C17.5065 49.9799 17.2734 49.8028 17.0781 49.5736C16.8828 49.3418 16.7318 49.0645 16.625 48.7416C16.5208 48.4161 16.4688 48.0541 16.4688 47.6556V47.0892C16.4688 46.6908 16.5208 46.3301 16.625 46.0072C16.7318 45.6817 16.8841 45.403 17.082 45.1713C17.2826 44.9395 17.5234 44.7611 17.8047 44.6361C18.0859 44.5111 18.4023 44.4486 18.7539 44.4486C19.1836 44.4486 19.5469 44.5293 19.8438 44.6908C20.1406 44.8523 20.3711 45.0762 20.5352 45.3627C20.7018 45.6465 20.8047 45.976 20.8438 46.351H20.0938C20.0573 46.0853 19.9896 45.8575 19.8906 45.6674C19.7917 45.4747 19.651 45.3262 19.4688 45.222C19.2865 45.1179 19.0482 45.0658 18.7539 45.0658C18.5013 45.0658 18.2786 45.114 18.0859 45.2103C17.8958 45.3067 17.7357 45.4434 17.6055 45.6205C17.4779 45.7976 17.3815 46.0098 17.3164 46.2572C17.2513 46.5046 17.2188 46.7793 17.2188 47.0814V47.6556C17.2188 47.9343 17.2474 48.196 17.3047 48.4408C17.3646 48.6856 17.4544 48.9004 17.5742 49.0853C17.694 49.2702 17.8464 49.4161 18.0312 49.5228C18.2161 49.627 18.4349 49.6791 18.6875 49.6791C19.0078 49.6791 19.263 49.6283 19.4531 49.5267C19.6432 49.4252 19.7865 49.2793 19.8828 49.0892C19.9818 48.8991 20.0521 48.6713 20.0938 48.4056ZM24.4239 49.4916V47.3158C24.4239 47.1491 24.3901 47.0046 24.3223 46.8822C24.2572 46.7572 24.1583 46.6608 24.0255 46.5931C23.8927 46.5254 23.7286 46.4916 23.5333 46.4916C23.351 46.4916 23.1908 46.5228 23.0528 46.5853C22.9174 46.6478 22.8106 46.7299 22.7325 46.8314C22.657 46.933 22.6192 47.0424 22.6192 47.1595H21.8966C21.8966 47.0085 21.9356 46.8588 22.0138 46.7103C22.0919 46.5619 22.2039 46.4278 22.3497 46.308C22.4981 46.1856 22.6752 46.0892 22.8809 46.0189C23.0893 45.946 23.321 45.9095 23.5763 45.9095C23.8835 45.9095 24.1544 45.9616 24.3888 46.0658C24.6257 46.17 24.8106 46.3275 24.9434 46.5385C25.0789 46.7468 25.1466 47.0085 25.1466 47.3236V49.2924C25.1466 49.433 25.1583 49.5827 25.1817 49.7416C25.2078 49.9004 25.2455 50.0372 25.295 50.1517V50.2142H24.5411C24.5046 50.1309 24.476 50.0202 24.4552 49.8822C24.4343 49.7416 24.4239 49.6114 24.4239 49.4916ZM24.5489 47.6517L24.5567 48.1595H23.8263C23.6205 48.1595 23.4369 48.1765 23.2755 48.2103C23.114 48.2416 22.9786 48.2898 22.8692 48.3549C22.7598 48.42 22.6765 48.502 22.6192 48.601C22.5619 48.6973 22.5333 48.8106 22.5333 48.9408C22.5333 49.0736 22.5632 49.1947 22.6231 49.3041C22.683 49.4135 22.7729 49.5007 22.8927 49.5658C23.0151 49.6283 23.1648 49.6595 23.3419 49.6595C23.5632 49.6595 23.7585 49.6127 23.9278 49.5189C24.0971 49.4252 24.2312 49.3106 24.3302 49.1752C24.4317 49.0398 24.4864 48.9082 24.4942 48.7806L24.8028 49.1283C24.7846 49.2377 24.7351 49.3588 24.6544 49.4916C24.5736 49.6244 24.4656 49.752 24.3302 49.8744C24.1973 49.9942 24.0385 50.0944 23.8536 50.1752C23.6713 50.2533 23.4656 50.2924 23.2364 50.2924C22.9499 50.2924 22.6986 50.2364 22.4825 50.1244C22.269 50.0124 22.1023 49.8627 21.9825 49.6752C21.8653 49.4851 21.8067 49.2728 21.8067 49.0385C21.8067 48.8119 21.851 48.6127 21.9395 48.4408C22.0281 48.2663 22.1557 48.1218 22.3223 48.0072C22.489 47.89 22.6895 47.8015 22.9239 47.7416C23.1583 47.6817 23.42 47.6517 23.7091 47.6517H24.5489ZM27.172 46.8275V50.2142H26.4455V45.9877H27.133L27.172 46.8275ZM27.0236 47.9408L26.6877 47.9291C26.6903 47.64 26.728 47.3731 26.8009 47.1283C26.8739 46.8809 26.9819 46.6661 27.1252 46.4838C27.2684 46.3015 27.4468 46.1608 27.6603 46.0619C27.8739 45.9603 28.1213 45.9095 28.4025 45.9095C28.6004 45.9095 28.7827 45.9382 28.9494 45.9955C29.116 46.0502 29.2606 46.1374 29.383 46.2572C29.5054 46.377 29.6004 46.5306 29.6681 46.7181C29.7358 46.9056 29.7697 47.1322 29.7697 47.3978V50.2142H29.047V47.433C29.047 47.2116 29.0093 47.0345 28.9338 46.9017C28.8608 46.7689 28.7567 46.6726 28.6213 46.6127C28.4858 46.5502 28.327 46.5189 28.1447 46.5189C27.9311 46.5189 27.7528 46.5567 27.6095 46.6322C27.4663 46.7077 27.3517 46.8119 27.2658 46.9447C27.1798 47.0775 27.1173 47.2299 27.0783 47.4017C27.0418 47.571 27.0236 47.7507 27.0236 47.9408ZM29.7619 47.5424L29.2775 47.6908C29.2801 47.459 29.3179 47.2364 29.3908 47.0228C29.4663 46.8093 29.5744 46.6192 29.715 46.4525C29.8582 46.2858 30.034 46.1543 30.2423 46.058C30.4507 45.959 30.689 45.9095 30.9572 45.9095C31.1838 45.9095 31.3843 45.9395 31.5588 45.9994C31.7358 46.0593 31.8843 46.1517 32.0041 46.2767C32.1265 46.3991 32.2189 46.5567 32.2814 46.7494C32.3439 46.9421 32.3752 47.1713 32.3752 47.4369V50.2142H31.6486V47.4291C31.6486 47.1921 31.6108 47.0085 31.5353 46.8783C31.4624 46.7455 31.3582 46.653 31.2228 46.601C31.09 46.5463 30.9311 46.5189 30.7463 46.5189C30.5874 46.5189 30.4468 46.5463 30.3244 46.601C30.202 46.6556 30.0991 46.7312 30.0158 46.8275C29.9324 46.9213 29.8686 47.0293 29.8244 47.1517C29.7827 47.2741 29.7619 47.4043 29.7619 47.5424ZM34.3616 46.8002V51.8392H33.635V45.9877H34.2991L34.3616 46.8002ZM37.2092 48.0658V48.1478C37.2092 48.4551 37.1728 48.7403 37.0998 49.0033C37.0269 49.2637 36.9202 49.4903 36.7795 49.683C36.6415 49.8757 36.4709 50.0254 36.2678 50.1322C36.0647 50.239 35.8316 50.2924 35.5686 50.2924C35.3004 50.2924 35.0634 50.2481 34.8577 50.1595C34.6519 50.071 34.4774 49.9421 34.3342 49.7728C34.191 49.6036 34.0764 49.4004 33.9905 49.1635C33.9071 48.9265 33.8498 48.6595 33.8186 48.3627V47.9252C33.8498 47.6127 33.9084 47.3327 33.9944 47.0853C34.0803 46.8379 34.1936 46.627 34.3342 46.4525C34.4774 46.2754 34.6506 46.1413 34.8538 46.0502C35.0569 45.9564 35.2913 45.9095 35.5569 45.9095C35.8225 45.9095 36.0582 45.9616 36.2639 46.0658C36.4696 46.1674 36.6428 46.3132 36.7834 46.5033C36.9241 46.6934 37.0295 46.9213 37.0998 47.1869C37.1728 47.4499 37.2092 47.7429 37.2092 48.0658ZM36.4827 48.1478V48.0658C36.4827 47.8549 36.4605 47.6569 36.4163 47.472C36.372 47.2845 36.303 47.1205 36.2092 46.9799C36.1181 46.8366 36.0009 46.7247 35.8577 46.6439C35.7144 46.5606 35.5439 46.5189 35.3459 46.5189C35.1636 46.5189 35.0048 46.5502 34.8694 46.6127C34.7366 46.6752 34.6233 46.7598 34.5295 46.8666C34.4358 46.9707 34.359 47.0905 34.2991 47.226C34.2418 47.3588 34.1988 47.4968 34.1702 47.64V48.6517C34.2222 48.834 34.2952 49.0059 34.3889 49.1674C34.4827 49.3262 34.6077 49.4551 34.7639 49.5541C34.9202 49.6504 35.1168 49.6986 35.3538 49.6986C35.5491 49.6986 35.717 49.6582 35.8577 49.5775C36.0009 49.4942 36.1181 49.3809 36.2092 49.2377C36.303 49.0944 36.372 48.9304 36.4163 48.7455C36.4605 48.558 36.4827 48.3588 36.4827 48.1478ZM40.7933 49.4916V47.3158C40.7933 47.1491 40.7594 47.0046 40.6917 46.8822C40.6266 46.7572 40.5277 46.6608 40.3948 46.5931C40.262 46.5254 40.098 46.4916 39.9027 46.4916C39.7204 46.4916 39.5602 46.5228 39.4222 46.5853C39.2868 46.6478 39.18 46.7299 39.1019 46.8314C39.0264 46.933 38.9886 47.0424 38.9886 47.1595H38.2659C38.2659 47.0085 38.305 46.8588 38.3831 46.7103C38.4613 46.5619 38.5732 46.4278 38.7191 46.308C38.8675 46.1856 39.0446 46.0892 39.2503 46.0189C39.4586 45.946 39.6904 45.9095 39.9456 45.9095C40.2529 45.9095 40.5238 45.9616 40.7581 46.0658C40.9951 46.17 41.18 46.3275 41.3128 46.5385C41.4482 46.7468 41.5159 47.0085 41.5159 47.3236V49.2924C41.5159 49.433 41.5277 49.5827 41.5511 49.7416C41.5771 49.9004 41.6149 50.0372 41.6644 50.1517V50.2142H40.9105C40.874 50.1309 40.8454 50.0202 40.8245 49.8822C40.8037 49.7416 40.7933 49.6114 40.7933 49.4916ZM40.9183 47.6517L40.9261 48.1595H40.1956C39.9899 48.1595 39.8063 48.1765 39.6448 48.2103C39.4834 48.2416 39.348 48.2898 39.2386 48.3549C39.1292 48.42 39.0459 48.502 38.9886 48.601C38.9313 48.6973 38.9027 48.8106 38.9027 48.9408C38.9027 49.0736 38.9326 49.1947 38.9925 49.3041C39.0524 49.4135 39.1422 49.5007 39.262 49.5658C39.3844 49.6283 39.5342 49.6595 39.7113 49.6595C39.9326 49.6595 40.1279 49.6127 40.2972 49.5189C40.4665 49.4252 40.6006 49.3106 40.6995 49.1752C40.8011 49.0398 40.8558 48.9082 40.8636 48.7806L41.1722 49.1283C41.154 49.2377 41.1045 49.3588 41.0238 49.4916C40.943 49.6244 40.8349 49.752 40.6995 49.8744C40.5667 49.9942 40.4079 50.0944 40.223 50.1752C40.0407 50.2533 39.8349 50.2924 39.6058 50.2924C39.3193 50.2924 39.068 50.2364 38.8519 50.1244C38.6383 50.0124 38.4717 49.8627 38.3519 49.6752C38.2347 49.4851 38.1761 49.2728 38.1761 49.0385C38.1761 48.8119 38.2204 48.6127 38.3089 48.4408C38.3974 48.2663 38.5251 48.1218 38.6917 48.0072C38.8584 47.89 39.0589 47.8015 39.2933 47.7416C39.5277 47.6817 39.7894 47.6517 40.0784 47.6517H40.9183ZM43.6078 45.9877V50.2142H42.8813V45.9877H43.6078ZM42.8266 44.8666C42.8266 44.7494 42.8617 44.6504 42.932 44.5697C43.0049 44.489 43.1117 44.4486 43.2523 44.4486C43.3904 44.4486 43.4958 44.489 43.5688 44.5697C43.6443 44.6504 43.682 44.7494 43.682 44.8666C43.682 44.9786 43.6443 45.0749 43.5688 45.1556C43.4958 45.2338 43.3904 45.2728 43.2523 45.2728C43.1117 45.2728 43.0049 45.2338 42.932 45.1556C42.8617 45.0749 42.8266 44.9786 42.8266 44.8666ZM47.6763 45.9877H48.3325V50.1244C48.3325 50.4968 48.257 50.8145 48.1059 51.0775C47.9549 51.3405 47.744 51.5398 47.4731 51.6752C47.2049 51.8132 46.895 51.8822 46.5434 51.8822C46.3976 51.8822 46.2257 51.8588 46.0278 51.8119C45.8325 51.7676 45.6398 51.6908 45.4497 51.5814C45.2622 51.4747 45.1046 51.3301 44.977 51.1478L45.3559 50.7181C45.533 50.9317 45.7179 51.0801 45.9106 51.1635C46.1059 51.2468 46.2986 51.2885 46.4888 51.2885C46.7179 51.2885 46.9158 51.2455 47.0825 51.1595C47.2492 51.0736 47.3781 50.946 47.4692 50.7767C47.563 50.6101 47.6098 50.4043 47.6098 50.1595V46.9174L47.6763 45.9877ZM44.7661 48.1478V48.0658C44.7661 47.7429 44.8039 47.4499 44.8794 47.1869C44.9575 46.9213 45.0682 46.6934 45.2114 46.5033C45.3572 46.3132 45.533 46.1674 45.7388 46.0658C45.9445 45.9616 46.1763 45.9095 46.4341 45.9095C46.6997 45.9095 46.9315 45.9564 47.1294 46.0502C47.3299 46.1413 47.4992 46.2754 47.6372 46.4525C47.7778 46.627 47.8885 46.8379 47.9692 47.0853C48.0499 47.3327 48.1059 47.6127 48.1372 47.9252V48.2845C48.1085 48.5944 48.0526 48.8731 47.9692 49.1205C47.8885 49.3679 47.7778 49.5788 47.6372 49.7533C47.4992 49.9278 47.3299 50.0619 47.1294 50.1556C46.9289 50.2468 46.6945 50.2924 46.4263 50.2924C46.1736 50.2924 45.9445 50.239 45.7388 50.1322C45.5356 50.0254 45.3611 49.8757 45.2153 49.683C45.0695 49.4903 44.9575 49.2637 44.8794 49.0033C44.8039 48.7403 44.7661 48.4551 44.7661 48.1478ZM45.4888 48.0658V48.1478C45.4888 48.3588 45.5096 48.5567 45.5513 48.7416C45.5955 48.9265 45.6619 49.0892 45.7505 49.2299C45.8416 49.3705 45.9575 49.4812 46.0981 49.5619C46.2388 49.64 46.4067 49.6791 46.602 49.6791C46.8416 49.6791 47.0395 49.6283 47.1958 49.5267C47.352 49.4252 47.4757 49.2911 47.5669 49.1244C47.6606 48.9577 47.7335 48.7767 47.7856 48.5814V47.64C47.757 47.4968 47.7127 47.3588 47.6528 47.226C47.5955 47.0905 47.52 46.9707 47.4263 46.8666C47.3351 46.7598 47.2218 46.6752 47.0864 46.6127C46.951 46.5502 46.7921 46.5189 46.6098 46.5189C46.4119 46.5189 46.2414 46.5606 46.0981 46.6439C45.9575 46.7247 45.8416 46.8366 45.7505 46.9799C45.6619 47.1205 45.5955 47.2845 45.5513 47.472C45.5096 47.6569 45.4888 47.8549 45.4888 48.0658ZM50.3228 46.89V50.2142H49.6002V45.9877H50.2837L50.3228 46.89ZM50.1509 47.9408L49.8502 47.9291C49.8528 47.64 49.8957 47.3731 49.9791 47.1283C50.0624 46.8809 50.1796 46.6661 50.3306 46.4838C50.4817 46.3015 50.6614 46.1608 50.8697 46.0619C51.0806 45.9603 51.3137 45.9095 51.5689 45.9095C51.7772 45.9095 51.9647 45.9382 52.1314 45.9955C52.2981 46.0502 52.44 46.1387 52.5572 46.2611C52.677 46.3835 52.7681 46.5424 52.8306 46.7377C52.8931 46.9304 52.9244 47.1661 52.9244 47.4447V50.2142H52.1978V47.4369C52.1978 47.2155 52.1653 47.0385 52.1002 46.9056C52.0351 46.7702 51.94 46.6726 51.815 46.6127C51.69 46.5502 51.5364 46.5189 51.3541 46.5189C51.1744 46.5189 51.0103 46.5567 50.8619 46.6322C50.716 46.7077 50.5897 46.8119 50.483 46.9447C50.3788 47.0775 50.2968 47.2299 50.2369 47.4017C50.1796 47.571 50.1509 47.7507 50.1509 47.9408Z" fill="#1C1C1C" fill-opacity="0.6"/>
</svg>
