<svg width="8" height="18" viewBox="0 0 8 18" fill="none" xmlns="http://www.w3.org/2000/svg">
<path d="M7.85082 17.6831H0.378906V16.446C0.378906 16.038 0.516357 15.6438 0.748035 15.308C2.48548 12.7898 2.98226 10.1815 2.80728 6.86035H5.42245C5.24769 10.1772 5.73988 12.8132 7.47442 15.3042C7.71013 15.6426 7.85082 16.0408 7.85082 16.4533V17.6831Z" fill="#F5F7F9"/>
<path fill-rule="evenodd" clip-rule="evenodd" d="M5.44774 4.28313C6.01005 3.86977 6.37493 3.20406 6.37493 2.45323C6.37493 1.19921 5.35709 0.182617 4.10153 0.182617C2.84596 0.182617 1.82812 1.19921 1.82812 2.45323C1.82812 3.20643 2.19531 3.87397 2.76064 4.28704C2.56133 4.64494 2.43418 4.82591 1.86328 4.82591V5.36764H6.34643V4.82591C5.88195 4.81724 5.67531 4.66041 5.44774 4.28313Z" fill="#F5F7F9"/>
</svg>
