<svg width="1.4rem" height="1.4rem" viewBox="0 0 16 16" fill="none" xmlns="http://www.w3.org/2000/svg">
<path d="M13.3333 9.33366C14.0697 9.33366 14.6667 8.73671 14.6667 8.00033C14.6667 7.26395 14.0697 6.66699 13.3333 6.66699C12.597 6.66699 12 7.26395 12 8.00033C12 8.73671 12.597 9.33366 13.3333 9.33366Z" stroke="white" stroke-linecap="round" stroke-linejoin="round"/>
<path d="M13.3333 3.99967C14.0697 3.99967 14.6667 3.40272 14.6667 2.66634C14.6667 1.92996 14.0697 1.33301 13.3333 1.33301C12.597 1.33301 12 1.92996 12 2.66634C12 3.40272 12.597 3.99967 13.3333 3.99967Z" stroke="white" stroke-linecap="round" stroke-linejoin="round"/>
<path d="M13.3333 14.6667C14.0697 14.6667 14.6667 14.0697 14.6667 13.3333C14.6667 12.597 14.0697 12 13.3333 12C12.597 12 12 12.597 12 13.3333C12 14.0697 12.597 14.6667 13.3333 14.6667Z" stroke="white" stroke-linecap="round" stroke-linejoin="round"/>
<path d="M2.66536 9.33366C3.40174 9.33366 3.9987 8.73671 3.9987 8.00033C3.9987 7.26395 3.40174 6.66699 2.66536 6.66699C1.92898 6.66699 1.33203 7.26395 1.33203 8.00033C1.33203 8.73671 1.92898 9.33366 2.66536 9.33366Z" stroke="white" stroke-linecap="round" stroke-linejoin="round"/>
<path d="M4 8H12" stroke="white" stroke-linecap="round" stroke-linejoin="round"/>
<path d="M11.9987 2.66699H9.33203C7.9987 2.66699 7.33203 3.33366 7.33203 4.66699V11.3337C7.33203 12.667 7.9987 13.3337 9.33203 13.3337H11.9987" stroke="white" stroke-linecap="round" stroke-linejoin="round"/>
</svg>
