<svg width="72" height="72" viewBox="0 0 72 72" fill="none" xmlns="http://www.w3.org/2000/svg">
<rect width="72" height="72" rx="36" fill="#B254D3"/>
<path d="M24.9974 21.3337C28.0591 19.042 31.8724 17.667 35.9974 17.667C46.1174 17.667 54.3307 25.8803 54.3307 36.0003C54.3307 46.1203 46.1174 54.3337 35.9974 54.3337C25.8774 54.3337 17.6641 46.1203 17.6641 36.0003C17.6641 32.682 18.544 29.5653 20.1024 26.8703L35.9974 36.0003" stroke="white" stroke-width="2.5" stroke-miterlimit="10" stroke-linecap="round" stroke-linejoin="round"/>
<path d="M26.5216 30.4267C25.55 32.0583 25 33.965 25 36C25 42.0683 29.9317 47 36 47C42.0683 47 47 42.0683 47 36C47 29.9317 42.0683 25 36 25C34.3317 25 32.7367 25.3667 31.325 26.045" stroke="white" stroke-width="2.5" stroke-miterlimit="10" stroke-linecap="round" stroke-linejoin="round"/>
</svg>
