<svg width="1.6rem" height="1.6rem" viewBox="0 0 10 10" fill="none" xmlns="http://www.w3.org/2000/svg">
<path d="M4.84397 4.84405H5.15647M4.84397 5.15655H5.15647M4.84397 1.92738H5.15647M4.84397 2.23988H5.15647M4.84397 7.76072H5.15647M4.84397 8.07322H5.15647M1.92731 4.84405H2.23981M1.92731 5.15655H2.23981M1.92731 1.92738H2.23981M1.92731 2.23988H2.23981M7.76064 4.84405H8.07314M7.76064 5.15655H8.07314M7.76064 1.92738H8.07314M7.76064 2.23988H8.07314M5.41699 5.00033C5.41699 5.23044 5.23044 5.41699 5.00033 5.41699C4.77021 5.41699 4.58366 5.23044 4.58366 5.00033C4.58366 4.77021 4.77021 4.58366 5.00033 4.58366C5.23044 4.58366 5.41699 4.77021 5.41699 5.00033ZM5.41699 2.08366C5.41699 2.31378 5.23044 2.50033 5.00033 2.50033C4.77021 2.50033 4.58366 2.31378 4.58366 2.08366C4.58366 1.85354 4.77021 1.66699 5.00033 1.66699C5.23044 1.66699 5.41699 1.85354 5.41699 2.08366ZM5.41699 7.91699C5.41699 8.14711 5.23044 8.33366 5.00033 8.33366C4.77021 8.33366 4.58366 8.14711 4.58366 7.91699C4.58366 7.68687 4.77021 7.50033 5.00033 7.50033C5.23044 7.50033 5.41699 7.68687 5.41699 7.91699ZM2.50033 5.00033C2.50033 5.23044 2.31378 5.41699 2.08366 5.41699C1.85354 5.41699 1.66699 5.23044 1.66699 5.00033C1.66699 4.77021 1.85354 4.58366 2.08366 4.58366C2.31378 4.58366 2.50033 4.77021 2.50033 5.00033ZM2.50033 2.08366C2.50033 2.31378 2.31378 2.50033 2.08366 2.50033C1.85354 2.50033 1.66699 2.31378 1.66699 2.08366C1.66699 1.85354 1.85354 1.66699 2.08366 1.66699C2.31378 1.66699 2.50033 1.85354 2.50033 2.08366ZM8.33366 5.00033C8.33366 5.23044 8.14711 5.41699 7.91699 5.41699C7.68687 5.41699 7.50033 5.23044 7.50033 5.00033C7.50033 4.77021 7.68687 4.58366 7.91699 4.58366C8.14711 4.58366 8.33366 4.77021 8.33366 5.00033ZM8.33366 2.08366C8.33366 2.31378 8.14711 2.50033 7.91699 2.50033C7.68687 2.50033 7.50033 2.31378 7.50033 2.08366C7.50033 1.85354 7.68687 1.66699 7.91699 1.66699C8.14711 1.66699 8.33366 1.85354 8.33366 2.08366Z" stroke="white" stroke-width="0.833333" stroke-linecap="round"/>
</svg>
