<svg width="1.6rem" height="1.6rem" viewBox="0 0 10 10" fill="none" xmlns="http://www.w3.org/2000/svg">
<path d="M4.84495 5.15595H5.15745M4.84495 4.84345H5.15745M4.84495 8.07262H5.15745M4.84495 7.76012H5.15745M4.84495 2.23928H5.15745M4.84495 1.92678H5.15745M1.92828 5.15595H2.24078M1.92828 4.84345H2.24078M1.92828 8.07262H2.24078M1.92828 7.76012H2.24078M7.76162 5.15595H8.07412M7.76162 4.84345H8.07412M7.76162 8.07262H8.07412M7.76162 7.76012H8.07412M5.41797 4.99967C5.41797 4.76956 5.23142 4.58301 5.0013 4.58301C4.77118 4.58301 4.58464 4.76956 4.58464 4.99967C4.58464 5.22979 4.77118 5.41634 5.0013 5.41634C5.23142 5.41634 5.41797 5.22979 5.41797 4.99967ZM5.41797 7.91634C5.41797 7.68622 5.23142 7.49967 5.0013 7.49967C4.77118 7.49967 4.58464 7.68622 4.58464 7.91634C4.58464 8.14646 4.77118 8.33301 5.0013 8.33301C5.23142 8.33301 5.41797 8.14646 5.41797 7.91634ZM5.41797 2.08301C5.41797 1.85289 5.23142 1.66634 5.0013 1.66634C4.77118 1.66634 4.58464 1.85289 4.58464 2.08301C4.58464 2.31313 4.77118 2.49967 5.0013 2.49967C5.23142 2.49967 5.41797 2.31313 5.41797 2.08301ZM2.5013 4.99967C2.5013 4.76956 2.31475 4.58301 2.08464 4.58301C1.85452 4.58301 1.66797 4.76956 1.66797 4.99967C1.66797 5.22979 1.85452 5.41634 2.08464 5.41634C2.31475 5.41634 2.5013 5.22979 2.5013 4.99967ZM2.5013 7.91634C2.5013 7.68622 2.31475 7.49967 2.08464 7.49967C1.85452 7.49967 1.66797 7.68622 1.66797 7.91634C1.66797 8.14646 1.85452 8.33301 2.08464 8.33301C2.31475 8.33301 2.5013 8.14646 2.5013 7.91634ZM8.33464 4.99967C8.33464 4.76956 8.14809 4.58301 7.91797 4.58301C7.68785 4.58301 7.5013 4.76956 7.5013 4.99967C7.5013 5.22979 7.68785 5.41634 7.91797 5.41634C8.14809 5.41634 8.33464 5.22979 8.33464 4.99967ZM8.33464 7.91634C8.33464 7.68622 8.14809 7.49967 7.91797 7.49967C7.68785 7.49967 7.5013 7.68622 7.5013 7.91634C7.5013 8.14646 7.68785 8.33301 7.91797 8.33301C8.14809 8.33301 8.33464 8.14646 8.33464 7.91634Z" stroke="white" stroke-width="0.833333" stroke-linecap="round"/>
</svg>
