<svg width="20" height="20" viewBox="0 0 20 20" fill="none" xmlns="http://www.w3.org/2000/svg">
<g id="8680006_thumb_up_fill_icon 2" clip-path="url(#clip0_1_22622)">
<g id="Group">
<path id="Vector" d="M18.3346 12.5H15.8346V2.50003H18.3346C18.5556 2.50003 18.7676 2.58783 18.9239 2.74411C19.0802 2.90039 19.168 3.11235 19.168 3.33336V11.6667C19.168 11.8877 19.0802 12.0997 18.9239 12.256C18.7676 12.4122 18.5556 12.5 18.3346 12.5ZM13.9238 13.5775L8.59047 18.9109C8.51958 18.982 8.42542 19.0251 8.32528 19.0323C8.22515 19.0394 8.12579 19.0103 8.04547 18.95L7.33463 18.4167C7.13722 18.2685 6.9881 18.0652 6.90609 17.8323C6.82408 17.5995 6.81284 17.3476 6.8738 17.1084L7.83463 13.3334H2.5013C2.05927 13.3334 1.63535 13.1578 1.32279 12.8452C1.01023 12.5326 0.834635 12.1087 0.834635 11.6667V9.91336C0.83441 9.69556 0.876877 9.47983 0.959635 9.27836L3.5388 3.01586C3.60172 2.86318 3.70858 2.73264 3.84582 2.6408C3.98306 2.54895 4.1445 2.49996 4.30964 2.50003H13.3346C13.5556 2.50003 13.7676 2.58783 13.9239 2.74411C14.0802 2.90039 14.168 3.11235 14.168 3.33336V12.9884C14.1679 13.2094 14.0801 13.4213 13.9238 13.5775Z" fill="#1C1C1C" fill-opacity="0.2"/>
</g>
</g>
<defs>
<clipPath id="clip0_1_22622">
<rect width="20" height="20" fill="white" transform="matrix(-1 0 0 -1 20 20)"/>
</clipPath>
</defs>
</svg>
