<svg width="24" height="24" viewBox="0 0 24 24" fill="none" xmlns="http://www.w3.org/2000/svg">
<g id="5402373_write_modify_tool_edit_pen_icon (1) 1">
<path id="Vector" d="M17.001 22H5.00098C4.20533 22 3.44227 21.684 2.87966 21.1214C2.31705 20.5587 2.00098 19.7957 2.00098 19V7.00003C2.00098 6.20438 2.31705 5.44132 2.87966 4.87871C3.44227 4.3161 4.20533 4.00003 5.00098 4.00003H9.00098C9.26619 4.00003 9.52055 4.10539 9.70808 4.29292C9.89562 4.48046 10.001 4.73481 10.001 5.00003C10.001 5.26525 9.89562 5.5196 9.70808 5.70714C9.52055 5.89467 9.26619 6.00003 9.00098 6.00003H5.00098C4.73576 6.00003 4.48141 6.10539 4.29387 6.29292C4.10633 6.48046 4.00098 6.73481 4.00098 7.00003V19C4.00098 19.2652 4.10633 19.5196 4.29387 19.7071C4.48141 19.8947 4.73576 20 5.00098 20H17.001C17.2662 20 17.5205 19.8947 17.7081 19.7071C17.8956 19.5196 18.001 19.2652 18.001 19V15C18.001 14.7348 18.1063 14.4805 18.2939 14.2929C18.4814 14.1054 18.7358 14 19.001 14C19.2662 14 19.5205 14.1054 19.7081 14.2929C19.8956 14.4805 20.001 14.7348 20.001 15V19C20.001 19.7957 19.6849 20.5587 19.1223 21.1214C18.5597 21.684 17.7966 22 17.001 22Z" fill="#3E6BF7"/>
<path id="Vector_2" d="M14.6007 5.87L9.65065 10.87C9.58313 10.9302 9.53742 11.0111 9.52065 11.1L8.52065 14.92C8.49642 15.0042 8.49573 15.0935 8.51864 15.1781C8.54156 15.2628 8.58721 15.3395 8.65065 15.4C8.69941 15.4391 8.75548 15.4681 8.81558 15.4853C8.87567 15.5024 8.93859 15.5074 9.00065 15.5C9.04353 15.5089 9.08777 15.5089 9.13065 15.5L12.9507 14.5C13.0396 14.4832 13.1204 14.4375 13.1807 14.37L18.1307 9.39999L14.6007 5.87Z" fill="#3E6BF7"/>
<path id="Vector_3" d="M20.999 4.44997L19.549 2.99997C19.2648 2.72086 18.8824 2.56448 18.484 2.56448C18.0857 2.56448 17.7032 2.72086 17.419 2.99997L15.999 4.44997L19.549 7.99997L20.999 6.57997C21.2781 6.29575 21.4345 5.91332 21.4345 5.51497C21.4345 5.11662 21.2781 4.73419 20.999 4.44997Z" fill="#3E6BF7"/>
</g>
</svg>
