<svg width="430" height="61" viewBox="0 0 430 61" fill="none" xmlns="http://www.w3.org/2000/svg">
<path d="M425.995 11H429.999V18H424.994C419.099 18 415.984 21.5867 415.984 27.8587V47H408.977V11H415.984C415.984 13 415.984 14.5 415.984 16.5C418.483 13.236 419.488 11 425.995 11Z" fill="#F5F7F9"/>
<path d="M402.972 29C402.972 29.768 403.1 30.6158 402.972 31.3838H373.941C375.575 37.7537 380.323 40.5 384.64 40.5C388.957 40.5 393.234 38.9904 395.964 35.3518H402.471C399.969 43 392.392 47 384.64 47C374.517 47 366.934 39.3198 366.934 28.9518C366.934 18.6478 374.517 11 384.64 11C395.275 11 402.676 19 402.972 29ZM384.64 17.5C379.958 17.3949 375.69 20.9588 373.941 26H395.964C394.752 21 391.093 17.6448 384.64 17.5Z" fill="#F5F7F9"/>
<path d="M344.91 11C355.417 11 363.031 18.5843 363.031 29.0163C363.031 39.3203 355.417 47 344.91 47C340.105 47 336.973 45.008 333.898 42C333.898 43.5 333.898 45.5 333.898 47H326.891V0L333.898 0.000371188V16C336.909 13.44 340.489 11 344.91 11ZM345.41 40C350.916 40 355.921 35 355.921 29C355.921 22.536 350.416 18 345.41 18C338.875 18 333.898 22.4883 333.898 28.9523C333.898 35.4163 338.875 40 345.41 40Z" fill="#F5F7F9"/>
<path d="M313.884 11H321.883L305.538 49.2243C301.63 57.9283 298.17 61.0003 291.122 61.0003L284.861 61L284.844 54.5243L290.61 54.6003C295.159 54.6003 297.315 49.504 299.877 44L284.861 11H292.55L303.882 36L313.884 11Z" fill="#F5F7F9"/>
<path d="M264.936 47.288C254.621 47.288 246.805 39.416 246.805 29.112C246.805 18.808 254.621 11 264.936 11C273.521 11 279.92 16.248 281.842 24.184H275.059C273.265 20.216 269.421 17.784 264.936 17.784C258.721 17.784 253.812 23.1 253.812 29.5C253.812 35.9 258.785 40.504 264.936 40.504C269.485 40.504 273.137 38.072 274.995 33.848H281.842C279.984 41.912 273.457 47.288 264.936 47.288Z" fill="#F5F7F9"/>
<path d="M231.79 40.5V47H226.284C218.724 47 215.773 41.6513 215.773 34.0353V19C213.27 19 211.268 19 208.766 19V12H215.773V3H222.781V12H231.79V19H222.781V29C222.781 41 225.784 40.5 231.79 40.5Z" fill="#F5F7F9"/>
<path d="M204.217 46.998H184.195V43.683C184.195 42.5899 184.564 41.5336 185.184 40.6339C189.84 33.8863 191.171 26.8971 190.702 17.998H197.71C197.241 26.8857 198.56 33.9489 203.208 40.6235C203.84 41.5305 204.217 42.5975 204.217 43.7027V46.998Z" fill="#F5F7F9"/>
<path fill-rule="evenodd" clip-rule="evenodd" d="M197.807 11.0974C199.317 9.99001 200.297 8.20449 200.297 6.19039C200.297 2.83017 197.569 0.106186 194.205 0.106186C190.841 0.106186 188.113 2.83017 188.113 6.19039C188.113 8.20573 189.094 9.9922 190.606 11.0994C190.07 12.0605 189.731 12.5465 188.199 12.5465V13.998H200.212V12.5465C198.97 12.5233 198.416 12.1044 197.807 11.0974Z" fill="#0082F9"/>
<path d="M162.714 11C173.222 11 180.835 18.5843 180.835 29.0163C180.835 39.3203 173.222 47 162.714 47C157.909 47 154.778 45.008 151.703 42C151.703 43.5 151.703 45.5 151.703 47H144.695V0L151.703 0.000371188V16C154.714 13.44 158.294 11 162.714 11ZM163.215 40C168.721 40 173.726 35 173.726 29C173.726 22.536 168.22 18 163.215 18C156.68 18 151.703 22.4883 151.703 28.9523C151.703 35.4163 156.68 40 163.215 40Z" fill="#F5F7F9"/>
<path d="M126.176 11C133.479 11 138.689 18.3156 138.689 26.1236V47H131.681V26.1236C131.681 20.5556 128.967 17.5 124.674 17.5C120.061 17.5 117.667 21.612 117.667 27.5V47H110.659V27.5C110.659 21 107.944 17.5 103.652 17.5C99.0387 17.5 96.6442 21 96.6442 27.5V47H89.6367V11H96.6442C96.6442 12.5 96.6442 14 96.6442 16C98.1458 12.5 100.488 11 104.653 11C110.824 11 112.661 15.5 114.163 18C116.165 15.5 117.667 11 126.176 11Z" fill="#F5F7F9"/>
<path fill-rule="evenodd" clip-rule="evenodd" d="M83.6291 11H76.6217V16C73.4824 12.736 69.7344 11 64.6089 11C54.294 11 46.6523 18.4569 46.6523 28.8249C46.6523 39.1929 54.3405 47.0009 64.6555 47.0009C69.7169 47.0009 73.4824 45.136 76.6217 42V47H83.6291V11ZM56.4333 21.4846C54.6883 23.4995 53.6326 26.1266 53.6326 29C53.6326 35.347 58.7833 40.4922 65.137 40.4922C71.4907 40.4922 76.6414 35.347 76.6414 29C76.6414 27.5347 76.3669 26.1334 75.8664 24.8447C74.3623 20.437 70.3466 17.4969 65.2321 17.4969C61.58 17.4969 58.4681 19.016 56.4333 21.4846Z" fill="#F5F7F9"/>
<path d="M22.0234 26.5318H42.0447C41.8675 38.9698 33.3051 47.8789 21.1404 47.8789C8.97583 47.8789 0 38.9698 0 26.8789C0 14.788 8.91678 5.87891 21.0223 5.87891C31.1202 5.87891 39.5785 12.1468 41.4091 20.998H34.5367C32.7652 15.7914 27.3999 12.3004 21.1404 12.3004C12.8142 12.3004 6.90903 18.3169 6.90903 26.8789C6.90903 35.4409 12.637 41.4574 21.1404 41.4574C27.7542 41.4574 33.1279 37.7549 34.6632 32.2591H22.0234V26.5318Z" fill="#F5F7F9"/>
</svg>
