<svg width="35" height="35" viewBox="0 0 35 35" fill="none" xmlns="http://www.w3.org/2000/svg">
<path d="M30.7813 15.1168C30.3114 15.1183 29.8552 15.2755 29.4842 15.5639C29.1132 15.8523 28.8482 16.2555 28.7307 16.7105H24.9376V16.1793H23.7794C23.6272 15.234 23.2641 14.3352 22.7169 13.5496L23.5351 12.7314L23.1632 12.3596L25.4529 10.0646C26.0019 10.4279 26.6663 10.5745 27.3173 10.4757C27.9682 10.377 28.5593 10.04 28.9759 9.5301C29.3924 9.02023 29.6048 8.37383 29.5718 7.71626C29.5388 7.05869 29.2627 6.43682 28.7971 5.97126C28.3316 5.5057 27.7097 5.22963 27.0521 5.1966C26.3946 5.16358 25.7482 5.37594 25.2383 5.7925C24.7284 6.20906 24.3914 6.80014 24.2927 7.45109C24.1939 8.10204 24.3404 8.76647 24.7038 9.31551L22.4088 11.6052L22.0369 11.2333L21.2188 12.0514C20.4277 11.4912 19.5193 11.1187 18.5626 10.9624V9.80426H18.0313V6.01114C18.5321 5.88183 18.9685 5.57433 19.2588 5.14626C19.5491 4.71819 19.6733 4.19894 19.6081 3.68585C19.543 3.17277 19.2929 2.70106 18.9048 2.35915C18.5167 2.01725 18.0173 1.82861 17.5001 1.82861C16.9829 1.82861 16.4834 2.01725 16.0953 2.35915C15.7072 2.70106 15.4572 3.17277 15.392 3.68585C15.3268 4.19894 15.451 4.71819 15.7413 5.14626C16.0316 5.57433 16.468 5.88183 16.9688 6.01114V9.80426H16.4376V10.9624C15.4901 11.1226 14.5912 11.4949 13.8079 12.0514L12.9897 11.2333L12.6179 11.6052L10.3229 9.31551C10.6862 8.76647 10.8328 8.10204 10.734 7.45109C10.6353 6.80014 10.2983 6.20906 9.7884 5.7925C9.27853 5.37594 8.63213 5.16358 7.97456 5.1966C7.31699 5.22963 6.69512 5.5057 6.22956 5.97126C5.764 6.43682 5.48793 7.05869 5.45491 7.71626C5.42188 8.37383 5.63424 9.02023 6.0508 9.5301C6.46736 10.04 7.05844 10.377 7.70939 10.4757C8.36034 10.5745 9.02477 10.4279 9.57381 10.0646L11.8635 12.3596L11.4916 12.7314L12.3097 13.5496C11.7532 14.3329 11.3809 15.2318 11.2207 16.1793H10.0626V16.7105H6.26944C6.14013 16.2097 5.83263 15.7733 5.40456 15.483C4.97649 15.1927 4.45724 15.0685 3.94415 15.1337C3.43107 15.1989 2.95936 15.4489 2.61745 15.837C2.27555 16.2251 2.08691 16.7245 2.08691 17.2418C2.08691 17.759 2.27555 18.2584 2.61745 18.6465C2.95936 19.0346 3.43107 19.2847 3.94415 19.3498C4.45724 19.415 4.97649 19.2908 5.40456 19.0005C5.83263 18.7102 6.14013 18.2738 6.26944 17.773H10.0626V18.3043H11.2207C11.377 19.261 11.7495 20.1694 12.3097 20.9605L11.4916 21.7786L11.8635 22.1505L9.57381 24.4455C9.02477 24.0821 8.36034 23.9356 7.70939 24.0344C7.05844 24.1331 6.46736 24.4701 6.0508 24.98C5.63424 25.4899 5.42188 26.1363 5.45491 26.7938C5.48793 27.4514 5.764 28.0733 6.22956 28.5388C6.69512 29.0044 7.31699 29.2805 7.97456 29.3135C8.63213 29.3465 9.27853 29.1341 9.7884 28.7176C10.2983 28.301 10.6353 27.7099 10.734 27.059C10.8328 26.408 10.6862 25.7436 10.3229 25.1946L12.6179 22.9049L12.9897 23.2768L13.8079 22.4586C14.5935 23.0058 15.4923 23.3689 16.4376 23.5211V24.6793H16.9688V28.4724C16.468 28.6017 16.0316 28.9092 15.7413 29.3373C15.451 29.7653 15.3268 30.2846 15.392 30.7977C15.4572 31.3108 15.7072 31.7825 16.0953 32.1244C16.4834 32.4663 16.9829 32.6549 17.5001 32.6549C18.0173 32.6549 18.5167 32.4663 18.9048 32.1244C19.2929 31.7825 19.543 31.3108 19.6081 30.7977C19.6733 30.2846 19.5491 29.7653 19.2588 29.3373C18.9685 28.9092 18.5321 28.6017 18.0313 28.4724V24.6793H18.5626V23.5211C19.517 23.3728 20.4253 23.0095 21.2188 22.4586L22.0369 23.2768L22.4088 22.9049L24.7038 25.1946C24.3404 25.7436 24.1939 26.408 24.2927 27.059C24.3914 27.7099 24.7284 28.301 25.2383 28.7176C25.7482 29.1341 26.3946 29.3465 27.0521 29.3135C27.7097 29.2805 28.3316 29.0044 28.7971 28.5388C29.2627 28.0733 29.5388 27.4514 29.5718 26.7938C29.6048 26.1363 29.3924 25.4899 28.9759 24.98C28.5593 24.4701 27.9682 24.1331 27.3173 24.0344C26.6663 23.9356 26.0019 24.0821 25.4529 24.4455L23.1632 22.1505L23.5351 21.7786L22.6904 20.9605C23.2412 20.167 23.6045 19.2587 23.7529 18.3043H24.9376V17.773H28.7307C28.8301 18.1581 29.0356 18.5076 29.3239 18.7817C29.6121 19.0558 29.9715 19.2434 30.3611 19.3234C30.7507 19.4033 31.1549 19.3723 31.5278 19.2339C31.9007 19.0954 32.2272 18.8551 32.4703 18.5403C32.7133 18.2255 32.8631 17.8487 32.9027 17.453C32.9422 17.0572 32.8699 16.6583 32.6939 16.3016C32.5179 15.9449 32.2454 15.6447 31.9073 15.4353C31.5692 15.2258 31.179 15.1155 30.7813 15.1168ZM25.7663 6.72301C25.9122 6.56643 26.0882 6.44083 26.2837 6.35373C26.4792 6.26662 26.6902 6.21978 26.9042 6.216C27.1182 6.21223 27.3308 6.25159 27.5292 6.33175C27.7277 6.41191 27.9079 6.53121 28.0593 6.68255C28.2106 6.83389 28.3299 7.01417 28.4101 7.21262C28.4902 7.41107 28.5296 7.62363 28.5258 7.83762C28.522 8.05161 28.4752 8.26266 28.3881 8.45815C28.301 8.65365 28.1754 8.8296 28.0188 8.97551C27.716 9.26641 27.3124 9.42886 26.8926 9.42886C26.4727 9.42886 26.0691 9.26641 25.7663 8.97551C25.4679 8.67668 25.3002 8.27161 25.3002 7.84926C25.3002 7.42692 25.4679 7.02184 25.7663 6.72301ZM9.23381 8.97551C8.93103 9.26641 8.52744 9.42886 8.10756 9.42886C7.68768 9.42886 7.28409 9.26641 6.98131 8.97551C6.75822 8.7527 6.60624 8.46872 6.54458 8.15951C6.48292 7.8503 6.51437 7.52975 6.63494 7.23841C6.75551 6.94708 6.95978 6.69805 7.22192 6.52284C7.48405 6.34763 7.79226 6.25411 8.10756 6.25411C8.42286 6.25411 8.73107 6.34763 8.99321 6.52284C9.25534 6.69805 9.45962 6.94708 9.58018 7.23841C9.70075 7.52975 9.7322 7.8503 9.67054 8.15951C9.60889 8.46872 9.4569 8.7527 9.23381 8.97551ZM9.23381 27.7605C8.92979 28.049 8.52666 28.2098 8.10756 28.2098C7.68846 28.2098 7.28533 28.049 6.98131 27.7605C6.75822 27.5377 6.60624 27.2537 6.54458 26.9445C6.48292 26.6353 6.51437 26.3147 6.63494 26.0234C6.75551 25.7321 6.95978 25.4831 7.22192 25.3078C7.48405 25.1326 7.79226 25.0391 8.10756 25.0391C8.42286 25.0391 8.73107 25.1326 8.99321 25.3078C9.25534 25.4831 9.45962 25.7321 9.58018 26.0234C9.70075 26.3147 9.7322 26.6353 9.67054 26.9445C9.60889 27.2537 9.4569 27.5377 9.23381 27.7605ZM17.5001 21.4918C16.6595 21.4918 15.8378 21.2425 15.1389 20.7755C14.44 20.3085 13.8952 19.6447 13.5736 18.8682C13.2519 18.0916 13.1677 17.237 13.3317 16.4126C13.4957 15.5882 13.9005 14.8309 14.4949 14.2366C15.0892 13.6422 15.8465 13.2374 16.6709 13.0734C17.4953 12.9094 18.3499 12.9936 19.1265 13.3153C19.903 13.6369 20.5668 14.1817 21.0338 14.8806C21.5008 15.5795 21.7501 16.4012 21.7501 17.2418C21.7501 18.3689 21.3023 19.4499 20.5053 20.247C19.7082 21.044 18.6272 21.4918 17.5001 21.4918ZM25.7663 25.508C25.9122 25.3514 26.0882 25.2258 26.2837 25.1387C26.4792 25.0516 26.6902 25.0048 26.9042 25.001C27.1182 24.9972 27.3308 25.0366 27.5292 25.1168C27.7277 25.1969 27.9079 25.3162 28.0593 25.4676C28.2106 25.6189 28.3299 25.7992 28.4101 25.9976C28.4902 26.1961 28.5296 26.4086 28.5258 26.6226C28.522 26.8366 28.4752 27.0477 28.3881 27.2432C28.301 27.4387 28.1754 27.6146 28.0188 27.7605C27.7148 28.049 27.3117 28.2098 26.8926 28.2098C26.4735 28.2098 26.0703 28.049 25.7663 27.7605C25.4679 27.4617 25.3002 27.0566 25.3002 26.6343C25.3002 26.2119 25.4679 25.8068 25.7663 25.508Z" fill="#3E6BF7"/>
</svg>

