<svg width="72" height="72" viewBox="0 0 72 72" fill="none" xmlns="http://www.w3.org/2000/svg">
<rect width="72" height="72" rx="36" fill="#FF7425"/>
<path d="M36 49.75C43.5939 49.75 49.75 43.5939 49.75 36C49.75 28.4061 43.5939 22.25 36 22.25C28.4061 22.25 22.25 28.4061 22.25 36C22.25 43.5939 28.4061 49.75 36 49.75Z" stroke="white" stroke-width="2.5" stroke-linecap="round" stroke-linejoin="round"/>
<path d="M36 41.5C39.0376 41.5 41.5 39.0376 41.5 36C41.5 32.9624 39.0376 30.5 36 30.5C32.9624 30.5 30.5 32.9624 30.5 36C30.5 39.0376 32.9624 41.5 36 41.5Z" stroke="white" stroke-width="2.5" stroke-linecap="round" stroke-linejoin="round"/>
<path d="M36 21.3337V17.667" stroke="white" stroke-width="2.5" stroke-linecap="round" stroke-linejoin="round"/>
<path d="M21.3307 36H17.6641" stroke="white" stroke-width="2.5" stroke-linecap="round" stroke-linejoin="round"/>
<path d="M36 50.667V54.3337" stroke="white" stroke-width="2.5" stroke-linecap="round" stroke-linejoin="round"/>
<path d="M50.6641 36H54.3307" stroke="white" stroke-width="2.5" stroke-linecap="round" stroke-linejoin="round"/>
</svg>
