<svg width="70" height="70" viewBox="0 0 70 70" fill="none" xmlns="http://www.w3.org/2000/svg">
<rect width="70" height="70" rx="4" fill="#3E6BF7" fill-opacity="0.05"/>
<path fill-rule="evenodd" clip-rule="evenodd" d="M35.3871 19.7771V20.1255C41.7742 20.319 46.9226 25.39 47 31.6223C43.4 27.3642 40.8065 31.6223 40.8065 31.6223C38.2516 28.3707 36.2387 30.0352 35.4258 31.0416V33.4593H34.5742V31.119C31.4387 27.6739 29.1935 31.5836 29.1935 31.5836C25.5935 27.3255 23 31.5836 23 31.5836C23 25.39 28.1484 20.319 34.6129 20.0868V19.7771C34.6129 19.5836 34.7677 19.39 35 19.39C35.1935 19.39 35.3871 19.5449 35.3871 19.7771ZM24.7691 32.7C24.7203 32.7108 24.6522 32.7396 24.6026 32.7703C24.5381 32.8102 24.4917 32.8663 24.3873 33.0309L24.2859 33.1907H24.1213C24.0251 33.1907 23.9429 33.1939 23.9233 33.1983C23.9037 33.2027 23.876 33.2169 23.8561 33.2326C23.7719 33.2993 23.7896 33.4188 23.8904 33.464L23.9304 33.4819H25.0875H26.2446L26.2842 33.4642C26.3802 33.4212 26.4015 33.3157 26.3292 33.2419C26.284 33.1958 26.2571 33.1907 26.0556 33.1907H25.8891L25.7877 33.0308C25.6762 32.855 25.6339 32.806 25.5516 32.7578C25.5247 32.742 25.4779 32.721 25.4476 32.711L25.3926 32.693L25.1026 32.6916C24.8731 32.6906 24.8035 32.6923 24.7691 32.7ZM24.2815 33.8496C24.2815 33.9614 24.2844 34.0106 24.2927 34.0392C24.313 34.1093 24.3543 34.1527 24.4322 34.1857C24.4706 34.2019 24.4809 34.2032 24.5753 34.2027C24.6945 34.2021 24.7461 34.1918 24.8331 34.1512C24.9577 34.093 25.0596 33.9675 25.0775 33.8503C25.0832 33.8128 25.0898 33.8184 25.1021 33.8714C25.1293 33.9888 25.2283 34.1003 25.357 34.1585C25.4327 34.1927 25.4853 34.2023 25.5997 34.2028C25.694 34.2032 25.7044 34.2019 25.7432 34.1856C25.8028 34.1604 25.8369 34.1307 25.8651 34.0792L25.8897 34.0342L25.8922 33.8664L25.8947 33.6987H25.0881H24.2815V33.8496ZM24.2685 34.9033C24.0417 35.0203 23.8937 35.1009 23.8745 35.1177C23.8577 35.1325 23.8348 35.1612 23.8238 35.1815C23.8051 35.2158 23.8035 35.2262 23.8006 35.3254L23.7976 35.4324H25.0875H26.3774L26.3744 35.3254C26.3716 35.2262 26.3699 35.2158 26.3512 35.1815C26.3402 35.1612 26.3165 35.1318 26.2987 35.1162C26.2773 35.0974 26.1431 35.0245 25.9018 34.9005L25.5372 34.7133L25.3124 34.9153L25.0875 35.1174L24.8634 34.916C24.7401 34.8052 24.6375 34.7148 24.6355 34.7151C24.6335 34.7155 24.4683 34.8001 24.2685 34.9033ZM28.8094 33.8983C28.7916 33.9019 28.7729 33.9037 28.755 33.9037C28.631 33.9037 28.5195 33.8171 28.4927 33.6913C28.4785 33.6208 28.4919 33.5495 28.5311 33.4897C28.5704 33.4299 28.6301 33.3889 28.7006 33.3746C28.7497 33.3639 28.8005 33.3684 28.8469 33.3853C28.8942 33.1891 29.0512 33.0285 29.2564 32.9848L32.5956 32.5583C32.642 32.5521 32.6848 32.5824 32.6946 32.6279L32.7678 32.9776C32.7776 33.0231 32.7499 33.0686 32.7053 33.082L31.3627 33.4772C31.1423 33.2836 30.8551 33.165 30.5393 33.165C30.0138 33.165 29.5633 33.4915 29.3786 33.9518L29.3787 33.9566C29.3789 33.9615 29.3791 33.9667 29.3777 33.9715L29.1092 34.9724C29.1012 34.9992 29.0815 35.0215 29.0557 35.0322L28.6096 35.2106C28.5989 35.2142 28.5873 35.2168 28.5766 35.2168C28.5409 35.2168 28.5079 35.1954 28.4936 35.1606C28.4758 35.1151 28.4981 35.0625 28.5436 35.0447L28.9477 34.8823L29.1823 34.0116C29.0833 33.9759 28.9995 33.9126 28.9379 33.8305C28.9031 33.8635 28.8603 33.8876 28.8094 33.8983ZM31.2967 33.6565C31.2958 33.6557 31.294 33.6548 31.2922 33.6539C31.0986 33.4621 30.8328 33.3434 30.5393 33.3434C30.2457 33.3434 29.9799 33.4621 29.7863 33.6539C29.7854 33.6548 29.7836 33.6557 29.7818 33.6565C29.781 33.6574 29.7801 33.6592 29.7792 33.661C29.5874 33.8537 29.4687 34.1196 29.4687 34.4131C29.4687 34.7066 29.5874 34.9724 29.7792 35.166C29.7801 35.1669 29.781 35.1687 29.7818 35.1696L29.7836 35.1709L29.7854 35.1722C29.979 35.364 30.2449 35.4827 30.5384 35.4827C30.8319 35.4827 31.0977 35.364 31.2913 35.1722L31.2931 35.1709L31.2949 35.1696L31.2962 35.1678L31.2975 35.166C31.4911 34.9733 31.6098 34.7066 31.6098 34.4131C31.6098 34.1196 31.4911 33.8537 31.2993 33.6601L31.2986 33.6596L31.2979 33.6588L31.2974 33.6578C31.2972 33.6573 31.297 33.6569 31.2967 33.6565ZM29.8488 33.8492L30.2324 34.2337C30.2154 34.2623 30.2029 34.2926 30.1949 34.3247H29.6516C29.6694 34.1445 29.7408 33.9813 29.8488 33.8492ZM29.6516 34.5023H30.1949C30.2029 34.5344 30.2163 34.5647 30.2324 34.5933L29.8488 34.9769C29.7408 34.8457 29.6694 34.6816 29.6516 34.5023ZM30.45 35.3007C30.2707 35.2829 30.1075 35.2115 29.9754 35.1036L30.359 34.7199C30.3876 34.7369 30.4179 34.7494 30.45 34.7583V35.3007ZM30.45 34.0696C30.4179 34.0776 30.3876 34.091 30.359 34.1071L29.9745 33.7226C30.1066 33.6146 30.2707 33.5432 30.4491 33.5254V34.0696H30.45ZM30.6285 33.5254C30.8078 33.5432 30.971 33.6146 31.1031 33.7226L30.7186 34.1071C30.69 34.0901 30.6597 34.0776 30.6276 34.0696V33.5254H30.6285ZM30.6285 35.3007V34.7574C30.6606 34.7494 30.6918 34.736 30.7195 34.7191L31.1031 35.1027C30.971 35.2115 30.8078 35.2829 30.6285 35.3007ZM31.2297 34.9778L30.8461 34.5942C30.8631 34.5656 30.8756 34.5353 30.8836 34.5032H31.4269C31.4091 34.6816 31.3377 34.8457 31.2297 34.9778ZM30.8836 34.3238C30.8756 34.2917 30.8622 34.2614 30.8461 34.2328L31.2297 33.8483C31.3377 33.9804 31.4091 34.1445 31.4269 34.323H30.8836V34.3238ZM39.9998 34.0213C39.9998 34.0353 40.0001 34.049 40.0009 34.0622C40.1118 33.9751 40.1892 33.8471 40.2101 33.7012H40.1593C40.1299 33.8038 40.0902 33.8483 40.0578 33.8847C40.0383 33.9066 40.0215 33.9255 40.011 33.9524C40.0039 33.9706 39.9998 33.9924 39.9998 34.0213ZM40.0412 34.2297C40.0834 34.3159 40.1609 34.3839 40.2869 34.4486C40.5159 34.2733 40.6703 34.0053 40.6935 33.7012H40.3716C40.347 33.9233 40.221 34.1152 40.0412 34.2297ZM38.7791 34.5512C38.8072 34.541 38.834 34.531 38.8595 34.521C38.6293 34.3173 38.4775 34.0268 38.456 33.7012H38.2877V33.541H38.456C38.4868 33.0757 38.7836 32.6819 39.1953 32.5108C39.2826 32.4428 39.4053 32.3918 39.5749 32.3804V32.2537H39.7352V32.3804C39.9048 32.3918 40.0274 32.4428 40.1147 32.5108C40.5265 32.6819 40.8233 33.0756 40.8541 33.541H41.0224V33.7012H40.8541C40.8325 34.0268 40.6808 34.3173 40.4505 34.521C40.476 34.531 40.5028 34.5411 40.531 34.5512C40.9348 34.6968 41.1164 34.8453 41.1164 34.9466V35.61H39.656H39.654H38.1936V34.9466C38.1936 34.8453 38.3753 34.6968 38.7791 34.5512ZM38.6166 33.7012C38.6398 34.0053 38.7942 34.2733 39.0232 34.4486C39.1492 34.3839 39.2267 34.3159 39.2689 34.2297C39.0891 34.1152 38.9631 33.9233 38.9385 33.7012H38.6166ZM39.1 33.7012C39.1209 33.8471 39.1983 33.9751 39.3092 34.0622C39.31 34.049 39.3103 34.0353 39.3103 34.0213C39.3103 33.9924 39.3062 33.9706 39.2991 33.9524C39.2886 33.9255 39.2717 33.9066 39.2523 33.8847C39.2199 33.8483 39.1802 33.8038 39.1508 33.7012H39.1ZM38.9991 32.9313C38.9959 32.8981 38.9983 32.8537 39.0095 32.8042C38.7881 32.9796 38.6393 33.2429 38.6166 33.541H38.9385C38.9454 33.4783 38.9604 33.418 38.9825 33.3612L38.9817 33.3521C38.9817 33.2433 39.041 33.2163 39.041 33.2163C39.041 33.2163 39.0109 33.0552 38.9991 32.9313ZM40.3284 33.3521L40.3276 33.3612C40.3496 33.418 40.3647 33.4783 40.3716 33.541H40.6935C40.6708 33.2429 40.522 32.9796 40.3006 32.8042C40.3118 32.8536 40.3141 32.8981 40.311 32.9313C40.2992 33.0552 40.2691 33.2163 40.2691 33.2163C40.2691 33.2163 40.3284 33.2433 40.3284 33.3521ZM45.9338 34.9831L44.6477 32.8502C44.597 32.7662 44.5046 32.714 44.4065 32.714C44.3084 32.714 44.2159 32.7662 44.1652 32.8502L42.8791 34.9831C42.8268 35.07 42.8252 35.1788 42.8751 35.2671C42.925 35.3554 43.0189 35.4103 43.1204 35.4103H45.6926C45.794 35.4103 45.888 35.3554 45.9379 35.2671C45.9878 35.1788 45.9862 35.07 45.9338 34.9831ZM45.7601 35.1667C45.7534 35.1787 45.7436 35.1886 45.7317 35.1956C45.7198 35.2025 45.7063 35.2061 45.6926 35.2062H43.1204C43.1066 35.2061 43.0931 35.2025 43.0813 35.1956C43.0694 35.1886 43.0596 35.1787 43.0528 35.1667C43.0461 35.1548 43.0426 35.1412 43.0428 35.1275C43.043 35.1138 43.0469 35.1003 43.0539 35.0886L44.3401 32.9556C44.347 32.9442 44.3568 32.9348 44.3684 32.9282C44.38 32.9216 44.3931 32.9182 44.4065 32.9181C44.4335 32.9181 44.4589 32.9325 44.4729 32.9556L45.759 35.0886C45.7661 35.1003 45.7699 35.1138 45.7701 35.1275C45.7703 35.1412 45.7669 35.1548 45.7601 35.1667ZM44.2692 33.6694C44.2692 33.5956 44.3298 33.5539 44.4074 33.5539C44.4813 33.5539 44.5438 33.5956 44.5438 33.6694C44.5438 33.7821 44.5372 33.9194 44.5305 34.0567C44.5239 34.1941 44.5173 34.3314 44.5173 34.4441C44.5173 34.5028 44.4529 34.5274 44.4074 34.5274C44.3468 34.5274 44.2957 34.5028 44.2957 34.4441C44.2957 34.3314 44.289 34.194 44.2824 34.0567C44.2758 33.9194 44.2692 33.7821 44.2692 33.6694ZM44.2635 34.8039C44.2635 34.7243 44.326 34.6581 44.4093 34.6581C44.487 34.6581 44.5533 34.7243 44.5533 34.8039C44.5533 34.8816 44.487 34.9497 44.4093 34.9497C44.326 34.9497 44.2635 34.8816 44.2635 34.8039Z" fill="#3E6BF7"/>
<path class="svg-name-path" d="M13.2417 44.3834V48.61H12.5152V44.3834H13.2417ZM12.4605 43.2623C12.4605 43.1451 12.4956 43.0462 12.5659 42.9655C12.6389 42.8847 12.7456 42.8444 12.8862 42.8444C13.0243 42.8444 13.1297 42.8847 13.2027 42.9655C13.2782 43.0462 13.3159 43.1451 13.3159 43.2623C13.3159 43.3743 13.2782 43.4707 13.2027 43.5514C13.1297 43.6295 13.0243 43.6686 12.8862 43.6686C12.7456 43.6686 12.6389 43.6295 12.5659 43.5514C12.4956 43.4707 12.4605 43.3743 12.4605 43.2623ZM15.2945 45.2858V48.61H14.5719V44.3834H15.2555L15.2945 45.2858ZM15.1227 46.3365L14.8219 46.3248C14.8245 46.0358 14.8674 45.7688 14.9508 45.524C15.0341 45.2767 15.1513 45.0618 15.3023 44.8795C15.4534 44.6972 15.6331 44.5566 15.8414 44.4576C16.0523 44.3561 16.2854 44.3053 16.5406 44.3053C16.749 44.3053 16.9365 44.3339 17.1031 44.3912C17.2698 44.4459 17.4117 44.5345 17.5289 44.6569C17.6487 44.7793 17.7398 44.9381 17.8023 45.1334C17.8648 45.3261 17.8961 45.5618 17.8961 45.8405V48.61H17.1695V45.8326C17.1695 45.6113 17.137 45.4342 17.0719 45.3014C17.0068 45.166 16.9117 45.0683 16.7867 45.0084C16.6617 44.9459 16.5081 44.9147 16.3258 44.9147C16.1461 44.9147 15.982 44.9524 15.8336 45.028C15.6878 45.1035 15.5615 45.2076 15.4547 45.3405C15.3505 45.4733 15.2685 45.6256 15.2086 45.7975C15.1513 45.9668 15.1227 46.1464 15.1227 46.3365ZM20.9333 44.3834V44.9381H18.6481V44.3834H20.9333ZM19.4216 43.3561H20.1442V47.5631C20.1442 47.7063 20.1664 47.8144 20.2106 47.8873C20.2549 47.9602 20.3122 48.0084 20.3825 48.0319C20.4528 48.0553 20.5283 48.067 20.6091 48.067C20.669 48.067 20.7315 48.0618 20.7966 48.0514C20.8643 48.0384 20.9151 48.028 20.9489 48.0201L20.9528 48.61C20.8955 48.6282 20.82 48.6451 20.7262 48.6608C20.6351 48.679 20.5244 48.6881 20.3942 48.6881C20.2171 48.6881 20.0544 48.653 19.9059 48.5826C19.7575 48.5123 19.639 48.3951 19.5505 48.2311C19.4645 48.0644 19.4216 47.8405 19.4216 47.5592V43.3561ZM22.6736 45.0475V48.61H21.9509V44.3834H22.6541L22.6736 45.0475ZM23.9939 44.36L23.99 45.0319C23.9301 45.0188 23.8728 45.011 23.8181 45.0084C23.766 45.0032 23.7061 45.0006 23.6384 45.0006C23.4718 45.0006 23.3246 45.0267 23.197 45.0787C23.0694 45.1308 22.9614 45.2037 22.8728 45.2975C22.7843 45.3912 22.714 45.5032 22.6619 45.6334C22.6124 45.761 22.5798 45.9017 22.5642 46.0553L22.3611 46.1725C22.3611 45.9173 22.3858 45.6777 22.4353 45.4537C22.4874 45.2298 22.5668 45.0319 22.6736 44.86C22.7804 44.6855 22.9158 44.5501 23.0798 44.4537C23.2465 44.3548 23.4444 44.3053 23.6736 44.3053C23.7257 44.3053 23.7856 44.3118 23.8533 44.3248C23.921 44.3352 23.9679 44.347 23.9939 44.36ZM27.4178 47.6334V44.3834H28.1444V48.61H27.453L27.4178 47.6334ZM27.5545 46.7428L27.8553 46.735C27.8553 47.0162 27.8254 47.2767 27.7655 47.5162C27.7082 47.7532 27.6144 47.9589 27.4842 48.1334C27.354 48.3079 27.1834 48.4446 26.9725 48.5436C26.7616 48.6399 26.5051 48.6881 26.203 48.6881C25.9972 48.6881 25.8084 48.6582 25.6366 48.5983C25.4673 48.5384 25.3215 48.4459 25.1991 48.3209C25.0767 48.1959 24.9816 48.0332 24.9139 47.8326C24.8488 47.6321 24.8162 47.3912 24.8162 47.11V44.3834H25.5389V47.1178C25.5389 47.3079 25.5597 47.4655 25.6014 47.5905C25.6457 47.7128 25.7043 47.8105 25.7772 47.8834C25.8527 47.9537 25.936 48.0032 26.0272 48.0319C26.1209 48.0605 26.2173 48.0748 26.3162 48.0748C26.6235 48.0748 26.867 48.0162 27.0467 47.899C27.2264 47.7793 27.3553 47.6191 27.4334 47.4186C27.5142 47.2155 27.5545 46.9902 27.5545 46.7428ZM31.8769 47.4889C31.8769 47.3847 31.8534 47.2884 31.8066 47.1998C31.7623 47.1087 31.6698 47.0267 31.5292 46.9537C31.3912 46.8782 31.1829 46.8131 30.9042 46.7584C30.6698 46.7089 30.4576 46.6503 30.2675 46.5826C30.08 46.5149 29.9198 46.4329 29.787 46.3365C29.6568 46.2402 29.5566 46.1269 29.4862 45.9967C29.4159 45.8665 29.3808 45.7142 29.3808 45.5397C29.3808 45.373 29.4172 45.2155 29.4902 45.067C29.5657 44.9186 29.6711 44.7871 29.8066 44.6725C29.9446 44.5579 30.1099 44.4681 30.3027 44.403C30.4954 44.3378 30.7102 44.3053 30.9472 44.3053C31.2857 44.3053 31.5748 44.3652 31.8144 44.485C32.054 44.6048 32.2376 44.7649 32.3652 44.9655C32.4928 45.1634 32.5566 45.3834 32.5566 45.6256H31.8339C31.8339 45.5084 31.7987 45.3951 31.7284 45.2858C31.6607 45.1738 31.5605 45.0813 31.4277 45.0084C31.2974 44.9355 31.1373 44.899 30.9472 44.899C30.7467 44.899 30.5839 44.9303 30.4589 44.9928C30.3365 45.0527 30.2467 45.1295 30.1894 45.2233C30.1347 45.317 30.1073 45.416 30.1073 45.5201C30.1073 45.5983 30.1204 45.6686 30.1464 45.7311C30.1751 45.791 30.2245 45.847 30.2948 45.899C30.3652 45.9485 30.4641 45.9954 30.5917 46.0397C30.7193 46.0839 30.8821 46.1282 31.08 46.1725C31.4264 46.2506 31.7115 46.3444 31.9355 46.4537C32.1594 46.5631 32.3261 46.6972 32.4355 46.8561C32.5448 47.0149 32.5995 47.2076 32.5995 47.4342C32.5995 47.6191 32.5605 47.7884 32.4823 47.942C32.4068 48.0957 32.2961 48.2285 32.1503 48.3405C32.0071 48.4498 31.8352 48.5358 31.6347 48.5983C31.4368 48.6582 31.2141 48.6881 30.9667 48.6881C30.5943 48.6881 30.2792 48.6217 30.0214 48.4889C29.7636 48.3561 29.5683 48.1842 29.4355 47.9733C29.3027 47.7623 29.2362 47.5397 29.2362 47.3053H29.9628C29.9732 47.5032 30.0305 47.6608 30.1347 47.778C30.2389 47.8925 30.3665 47.9746 30.5175 48.024C30.6685 48.0709 30.8183 48.0944 30.9667 48.0944C31.1646 48.0944 31.33 48.0683 31.4628 48.0162C31.5982 47.9642 31.7011 47.8925 31.7714 47.8014C31.8417 47.7102 31.8769 47.6061 31.8769 47.4889ZM34.5039 44.3834V48.61H33.7773V44.3834H34.5039ZM33.7227 43.2623C33.7227 43.1451 33.7578 43.0462 33.8281 42.9655C33.901 42.8847 34.0078 42.8444 34.1484 42.8444C34.2865 42.8444 34.3919 42.8847 34.4648 42.9655C34.5404 43.0462 34.5781 43.1451 34.5781 43.2623C34.5781 43.3743 34.5404 43.4707 34.4648 43.5514C34.3919 43.6295 34.2865 43.6686 34.1484 43.6686C34.0078 43.6686 33.901 43.6295 33.8281 43.5514C33.7578 43.4707 33.7227 43.3743 33.7227 43.2623ZM35.6427 46.5436V46.4537C35.6427 46.149 35.6869 45.8665 35.7755 45.6061C35.864 45.3431 35.9916 45.1152 36.1583 44.9225C36.3249 44.7272 36.5268 44.5761 36.7638 44.4694C37.0007 44.36 37.2664 44.3053 37.5606 44.3053C37.8575 44.3053 38.1244 44.36 38.3614 44.4694C38.601 44.5761 38.8041 44.7272 38.9708 44.9225C39.1401 45.1152 39.269 45.3431 39.3575 45.6061C39.446 45.8665 39.4903 46.149 39.4903 46.4537V46.5436C39.4903 46.8483 39.446 47.1308 39.3575 47.3912C39.269 47.6517 39.1401 47.8795 38.9708 48.0748C38.8041 48.2675 38.6023 48.4186 38.3653 48.528C38.1309 48.6347 37.8653 48.6881 37.5684 48.6881C37.2716 48.6881 37.0046 48.6347 36.7677 48.528C36.5307 48.4186 36.3276 48.2675 36.1583 48.0748C35.9916 47.8795 35.864 47.6517 35.7755 47.3912C35.6869 47.1308 35.6427 46.8483 35.6427 46.5436ZM36.3653 46.4537V46.5436C36.3653 46.7545 36.3901 46.9537 36.4395 47.1412C36.489 47.3261 36.5632 47.4902 36.6622 47.6334C36.7638 47.7767 36.8901 47.8899 37.0411 47.9733C37.1921 48.054 37.3679 48.0944 37.5684 48.0944C37.7664 48.0944 37.9395 48.054 38.088 47.9733C38.239 47.8899 38.364 47.7767 38.463 47.6334C38.5619 47.4902 38.6361 47.3261 38.6856 47.1412C38.7377 46.9537 38.7638 46.7545 38.7638 46.5436V46.4537C38.7638 46.2454 38.7377 46.0488 38.6856 45.8639C38.6361 45.6764 38.5606 45.511 38.4591 45.3678C38.3601 45.222 38.2351 45.1074 38.0841 45.024C37.9356 44.9407 37.7611 44.899 37.5606 44.899C37.3627 44.899 37.1882 44.9407 37.0372 45.024C36.8888 45.1074 36.7638 45.222 36.6622 45.3678C36.5632 45.511 36.489 45.6764 36.4395 45.8639C36.3901 46.0488 36.3653 46.2454 36.3653 46.4537ZM41.2892 45.2858V48.61H40.5666V44.3834H41.2502L41.2892 45.2858ZM41.1173 46.3365L40.8166 46.3248C40.8192 46.0358 40.8621 45.7688 40.9455 45.524C41.0288 45.2767 41.146 45.0618 41.297 44.8795C41.4481 44.6972 41.6278 44.5566 41.8361 44.4576C42.047 44.3561 42.2801 44.3053 42.5353 44.3053C42.7436 44.3053 42.9311 44.3339 43.0978 44.3912C43.2645 44.4459 43.4064 44.5345 43.5236 44.6569C43.6434 44.7793 43.7345 44.9381 43.797 45.1334C43.8595 45.3261 43.8908 45.5618 43.8908 45.8405V48.61H43.1642V45.8326C43.1642 45.6113 43.1317 45.4342 43.0666 45.3014C43.0015 45.166 42.9064 45.0683 42.7814 45.0084C42.6564 44.9459 42.5028 44.9147 42.3205 44.9147C42.1408 44.9147 41.9767 44.9524 41.8283 45.028C41.6824 45.1035 41.5561 45.2076 41.4494 45.3405C41.3452 45.4733 41.2632 45.6256 41.2033 45.7975C41.146 45.9668 41.1173 46.1464 41.1173 46.3365ZM49.7738 47.4889C49.7738 47.3847 49.7503 47.2884 49.7034 47.1998C49.6592 47.1087 49.5667 47.0267 49.4261 46.9537C49.2881 46.8782 49.0797 46.8131 48.8011 46.7584C48.5667 46.7089 48.3545 46.6503 48.1644 46.5826C47.9769 46.5149 47.8167 46.4329 47.6839 46.3365C47.5537 46.2402 47.4534 46.1269 47.3831 45.9967C47.3128 45.8665 47.2777 45.7142 47.2777 45.5397C47.2777 45.373 47.3141 45.2155 47.387 45.067C47.4626 44.9186 47.568 44.7871 47.7034 44.6725C47.8415 44.5579 48.0068 44.4681 48.1995 44.403C48.3922 44.3378 48.6071 44.3053 48.8441 44.3053C49.1826 44.3053 49.4717 44.3652 49.7113 44.485C49.9508 44.6048 50.1344 44.7649 50.262 44.9655C50.3896 45.1634 50.4534 45.3834 50.4534 45.6256H49.7308C49.7308 45.5084 49.6956 45.3951 49.6253 45.2858C49.5576 45.1738 49.4573 45.0813 49.3245 45.0084C49.1943 44.9355 49.0342 44.899 48.8441 44.899C48.6435 44.899 48.4808 44.9303 48.3558 44.9928C48.2334 45.0527 48.1435 45.1295 48.0863 45.2233C48.0316 45.317 48.0042 45.416 48.0042 45.5201C48.0042 45.5983 48.0172 45.6686 48.0433 45.7311C48.0719 45.791 48.1214 45.847 48.1917 45.899C48.262 45.9485 48.361 45.9954 48.4886 46.0397C48.6162 46.0839 48.779 46.1282 48.9769 46.1725C49.3232 46.2506 49.6084 46.3444 49.8323 46.4537C50.0563 46.5631 50.223 46.6972 50.3323 46.8561C50.4417 47.0149 50.4964 47.2076 50.4964 47.4342C50.4964 47.6191 50.4573 47.7884 50.3792 47.942C50.3037 48.0957 50.193 48.2285 50.0472 48.3405C49.904 48.4498 49.7321 48.5358 49.5316 48.5983C49.3336 48.6582 49.111 48.6881 48.8636 48.6881C48.4912 48.6881 48.1761 48.6217 47.9183 48.4889C47.6605 48.3561 47.4652 48.1842 47.3323 47.9733C47.1995 47.7623 47.1331 47.5397 47.1331 47.3053H47.8597C47.8701 47.5032 47.9274 47.6608 48.0316 47.778C48.1357 47.8925 48.2633 47.9746 48.4144 48.024C48.5654 48.0709 48.7152 48.0944 48.8636 48.0944C49.0615 48.0944 49.2269 48.0683 49.3597 48.0162C49.4951 47.9642 49.598 47.8925 49.6683 47.8014C49.7386 47.7102 49.7738 47.6061 49.7738 47.4889ZM53.3695 48.6881C53.0753 48.6881 52.8083 48.6386 52.5687 48.5397C52.3318 48.4381 52.1273 48.2962 51.9555 48.1139C51.7862 47.9316 51.656 47.7155 51.5648 47.4655C51.4737 47.2155 51.4281 46.942 51.4281 46.6451V46.4811C51.4281 46.1373 51.4789 45.8313 51.5805 45.5631C51.682 45.2923 51.8201 45.0631 51.9945 44.8756C52.169 44.6881 52.3669 44.5462 52.5883 44.4498C52.8096 44.3535 53.0388 44.3053 53.2758 44.3053C53.5779 44.3053 53.8383 44.3574 54.057 44.4615C54.2784 44.5657 54.4594 44.7115 54.6 44.899C54.7406 45.0839 54.8448 45.3027 54.9125 45.5553C54.9802 45.8053 55.0141 46.0787 55.0141 46.3756V46.6998H51.8578V46.11H54.2914V46.0553C54.281 45.8678 54.2419 45.6855 54.1742 45.5084C54.1091 45.3313 54.0049 45.1855 53.8617 45.0709C53.7185 44.9563 53.5232 44.899 53.2758 44.899C53.1117 44.899 52.9607 44.9342 52.8227 45.0045C52.6846 45.0722 52.5661 45.1738 52.4672 45.3092C52.3682 45.4446 52.2914 45.61 52.2367 45.8053C52.182 46.0006 52.1547 46.2259 52.1547 46.4811V46.6451C52.1547 46.8457 52.182 47.0345 52.2367 47.2115C52.294 47.386 52.376 47.5397 52.4828 47.6725C52.5922 47.8053 52.7237 47.9095 52.8773 47.985C53.0336 48.0605 53.2107 48.0983 53.4086 48.0983C53.6638 48.0983 53.8799 48.0462 54.057 47.942C54.2341 47.8378 54.3891 47.6985 54.5219 47.524L54.9594 47.8717C54.8682 48.0097 54.7523 48.1412 54.6117 48.2662C54.4711 48.3912 54.2979 48.4928 54.0922 48.5709C53.8891 48.649 53.6482 48.6881 53.3695 48.6881ZM57.7973 44.3834V44.9381H55.5122V44.3834H57.7973ZM56.2856 43.3561H57.0083V47.5631C57.0083 47.7063 57.0304 47.8144 57.0747 47.8873C57.119 47.9602 57.1763 48.0084 57.2466 48.0319C57.3169 48.0553 57.3924 48.067 57.4731 48.067C57.533 48.067 57.5955 48.0618 57.6606 48.0514C57.7283 48.0384 57.7791 48.028 57.813 48.0201L57.8169 48.61C57.7596 48.6282 57.6841 48.6451 57.5903 48.6608C57.4992 48.679 57.3885 48.6881 57.2583 48.6881C57.0812 48.6881 56.9184 48.653 56.77 48.5826C56.6216 48.5123 56.5031 48.3951 56.4145 48.2311C56.3286 48.0644 56.2856 47.8405 56.2856 47.5592V43.3561Z" fill="#1C1C1C" fill-opacity="0.6"/>
</svg>
