<svg width="20" height="20" viewBox="0 0 20 20" fill="none" xmlns="http://www.w3.org/2000/svg">
<path d="M18.3327 9.99935C18.3327 5.39935 14.5993 1.66602 9.99935 1.66602C5.39935 1.66602 1.66602 5.39935 1.66602 9.99935C1.66602 14.5993 5.39935 18.3327 9.99935 18.3327" stroke="white" stroke-width="1.25" stroke-linecap="round" stroke-linejoin="round"/>
<path d="M6.66569 2.49902H7.49902C5.87402 7.36569 5.87402 12.6324 7.49902 17.499H6.66569" stroke="white" stroke-width="1.25" stroke-linecap="round" stroke-linejoin="round"/>
<path d="M12.499 2.49902C13.3074 4.93236 13.7157 7.46569 13.7157 9.99902" stroke="white" stroke-width="1.25" stroke-linecap="round" stroke-linejoin="round"/>
<path d="M2.49902 13.3324V12.499C4.93236 13.3074 7.46569 13.7157 9.99902 13.7157" stroke="white" stroke-width="1.25" stroke-linecap="round" stroke-linejoin="round"/>
<path d="M2.49902 7.49902C7.36569 5.87402 12.6324 5.87402 17.499 7.49902" stroke="white" stroke-width="1.25" stroke-linecap="round" stroke-linejoin="round"/>
<path d="M15.1667 17.8334C16.6394 17.8334 17.8333 16.6394 17.8333 15.1667C17.8333 13.6939 16.6394 12.5 15.1667 12.5C13.6939 12.5 12.5 13.6939 12.5 15.1667C12.5 16.6394 13.6939 17.8334 15.1667 17.8334Z" stroke="white" stroke-width="1.25" stroke-linecap="round" stroke-linejoin="round"/>
<path d="M18.3333 18.3333L17.5 17.5" stroke="white" stroke-width="1.25" stroke-linecap="round" stroke-linejoin="round"/>
</svg>
