<svg width="50" height="30" viewBox="0 0 23 22" fill="none" xmlns="http://www.w3.org/2000/svg" cursor="pointer">
<g id="Jira logo" clip-path="url(#clip0_271_34383)">
<path id="Vector" d="M20.7609 2.40222H11.3515C11.3515 3.52875 11.799 4.60914 12.5955 5.40571C13.3921 6.20229 14.4725 6.6498 15.599 6.6498H17.3324V8.32336C17.3339 10.6671 19.2334 12.5667 21.5772 12.5683V3.21849C21.5772 2.76781 21.2118 2.40222 20.7609 2.40222Z" fill="#2684FF"/>
<path id="Vector_2" d="M16.105 7.09094H6.69566C6.69711 9.43468 8.59666 11.3343 10.9405 11.3358H12.6738V13.0148C12.6768 15.3585 14.5776 17.2568 16.9214 17.2568V7.90737C16.9214 7.45653 16.5559 7.09094 16.105 7.09094Z" fill="url(#paint0_linear_271_34383)"/>
<path id="Vector_3" d="M11.4465 11.7767H2.03707C2.03707 14.1226 3.93884 16.0243 6.28465 16.0243H8.02341V17.6978C8.02494 20.0394 9.9212 21.9382 12.2629 21.9426V12.5931C12.2629 12.1422 11.8974 11.7767 11.4465 11.7767Z" fill="url(#paint1_linear_271_34383)"/>
</g>
<defs>
<linearGradient id="paint0_linear_271_34383" x1="2566.16" y1="11.7713" x2="1551.07" y2="1198.05" gradientUnits="userSpaceOnUse">
<stop offset="0.18" stop-color="#0052CC"/>
<stop offset="1" stop-color="#2684FF"/>
</linearGradient>
<linearGradient id="paint1_linear_271_34383" x1="2630.29" y1="25.0036" x2="1456.1" y2="1318.86" gradientUnits="userSpaceOnUse">
<stop offset="0.18" stop-color="#0052CC"/>
<stop offset="1" stop-color="#2684FF"/>
</linearGradient>
<clipPath id="clip0_271_34383">
<rect width="21.8843" height="21.8843" fill="white" transform="translate(0.86499 0.0578613)"/>
</clipPath>
</defs>
</svg>
