<svg width="394" height="75" viewBox="0 0 394 75" fill="none" xmlns="http://www.w3.org/2000/svg">
<path d="M356.586 15.7341L373.51 15.5668C377.835 15.5668 381.314 16.1059 383.945 17.184C385.423 17.816 386.774 18.6153 388 19.5818C389.226 20.5484 390.289 21.7195 391.19 23.095C392.091 24.4705 392.776 26.0691 393.245 27.8907C393.749 29.6752 394.002 31.6827 394.002 33.9132C394.002 35.9208 393.749 37.8167 393.245 39.6012C392.776 41.3856 392.091 43.0214 391.19 44.5084C390.325 45.9955 389.244 47.2966 387.946 48.4119C386.684 49.5272 385.279 50.4194 383.729 51.0886C382.611 51.5719 381.079 51.9808 379.133 52.3154C377.222 52.65 374.861 52.8173 372.05 52.8173H360.641V22.2585H356.586V15.7341ZM373.239 46.0698C373.816 46.0698 374.447 46.0513 375.132 46.0141C375.853 45.9397 376.555 45.8468 377.24 45.7353C377.925 45.6237 378.574 45.4936 379.187 45.3449C379.8 45.159 380.322 44.9546 380.755 44.7315C382.485 43.7649 383.873 42.3894 384.918 40.6049C385.963 38.8205 386.486 36.5713 386.486 33.8575C386.486 31.7756 386.18 29.9912 385.567 28.5041C384.99 27.0171 384.161 25.8088 383.08 24.8794C381.998 23.95 380.719 23.2809 379.241 22.8719C377.763 22.4258 376.141 22.2028 374.375 22.2028C373.942 22.2028 373.437 22.2213 372.861 22.2585C372.284 22.2585 371.689 22.2771 371.076 22.3143C370.5 22.3143 369.941 22.3329 369.4 22.3701C368.86 22.3701 368.391 22.3701 367.995 22.3701V46.0698H373.239Z" fill="#F5F7F9"/>
<path fill-rule="evenodd" clip-rule="evenodd" d="M320.879 15.5672H337.622C339.434 15.5672 341.192 15.697 342.895 15.9564C344.598 16.1788 346.012 16.5495 347.135 17.0684C348.802 17.9209 350.089 19.1626 350.995 20.7934C351.901 22.4243 352.354 24.2775 352.354 26.3532C352.354 28.1323 351.973 29.7076 351.212 31.079C350.451 32.4134 349.491 33.5067 348.331 34.3592C347.896 34.6928 347.353 35.0079 346.7 35.3044L348.983 39.5855L352.263 45.3062H356.582V52.8167H356.568L356.568 52.8177H348.331L343.167 43.6997C342.66 42.8472 342.188 42.1059 341.753 41.4758C341.319 40.8086 340.811 40.2527 340.231 39.8078C339.615 39.326 338.963 38.9924 338.274 38.8071C337.847 38.6922 337.372 38.6129 336.847 38.5692V32.3022H338.003C338.836 32.3022 339.633 32.2465 340.394 32.1354C341.192 31.9871 341.862 31.7276 342.406 31.357C343.131 30.8751 343.71 30.3006 344.145 29.6334C344.58 28.9292 344.798 28.0767 344.798 27.076C344.798 26.0011 344.544 25.1115 344.037 24.4073C343.529 23.666 342.877 23.0915 342.08 22.6837C341.5 22.3872 340.757 22.2019 339.851 22.1278C338.981 22.0536 338.184 22.0166 337.459 22.0166C336.879 22.0166 336.281 22.0351 335.665 22.0722C335.085 22.0722 334.542 22.0907 334.034 22.1278C333.454 22.1648 332.893 22.1834 332.349 22.1834V32.3022H332.351V38.5291H332.349V52.8177H324.956V22.3502H320.879V15.5672Z" fill="#F5F7F9"/>
<path d="M292.78 15.5668H306.614L320.882 52.8173H312.798L309.543 44.0789H302.545H295.546L292.291 52.8173H284.316L296.197 22.1207H292.78V15.5668ZM309.543 44.0789C307.807 39.3362 304.46 28.326 303.7 26.1228H302.429H301.297C300.574 28.326 297.319 39.2241 295.546 44.0789H302.545H309.543Z" fill="#F5F7F9"/>
<path d="M258.376 35.5951C258.376 36.3288 258.395 37.0441 258.431 37.741C258.467 38.438 258.522 39.0799 258.595 39.6668C258.959 41.8311 259.889 43.4634 261.382 44.5639C262.876 45.6643 264.826 46.2146 267.231 46.2146C269.526 46.2146 271.403 45.6827 272.86 44.6189C274.354 43.5551 275.302 41.9961 275.703 39.942C275.848 39.2817 275.921 38.5847 275.921 37.8511C275.958 37.0808 275.976 36.3288 275.976 35.5951V15.5668H283.464V35.3751C283.464 36.2554 283.427 37.1908 283.355 38.1812C283.318 39.1716 283.209 40.0887 283.027 40.9324C282.225 44.784 280.421 47.7369 277.616 49.791C274.846 51.8086 271.294 52.8173 266.958 52.8173C262.476 52.8173 258.85 51.7719 256.081 49.681C253.312 47.5901 251.69 44.6739 251.216 40.9324C251.143 40.1987 251.071 39.3734 250.998 38.4563C250.961 37.5026 250.943 36.6039 250.943 35.7602V22.0045H246.898V15.5668H258.376V35.5951Z" fill="#F5F7F9"/>
<path d="M236.732 27.8395V22.5412C235.843 22.3609 234.879 22.2348 233.842 22.1627C232.842 22.0546 231.748 22.0005 230.563 22.0005C228.821 22.0005 227.191 22.2528 225.672 22.7574C224.19 23.226 222.874 23.9649 221.726 24.9741C220.577 25.9833 219.669 27.2628 219.002 28.8126C218.372 30.3625 218.058 32.1827 218.058 34.2732C218.058 36.3276 218.372 38.1298 219.002 39.6796C219.632 41.1934 220.503 42.4549 221.615 43.4641C222.726 44.4733 224.023 45.2302 225.505 45.7348C227.024 46.2034 228.655 46.4377 230.396 46.4377C231.545 46.4377 232.712 46.3115 233.898 46.0592C235.12 45.8069 236.195 45.5186 237.121 45.1942V39.0849H230.396V32.8134H244.346V49.7356C243.754 50.024 242.957 50.3484 241.957 50.7088C240.956 51.0332 239.826 51.3576 238.566 51.682C237.306 52.0063 235.954 52.2767 234.509 52.4929C233.064 52.7092 231.582 52.8173 230.063 52.8173C226.765 52.8173 223.875 52.3487 221.392 51.4116C218.947 50.4745 216.89 49.177 215.223 47.519C213.593 45.861 212.37 43.8967 211.555 41.6259C210.74 39.3192 210.332 36.8322 210.332 34.165C210.332 31.2455 210.832 28.6504 211.833 26.3797C212.87 24.073 214.278 22.1267 216.057 20.5408C217.835 18.9188 219.929 17.6934 222.337 16.8644C224.783 15.9993 227.395 15.5668 230.174 15.5668C231.656 15.5668 233.064 15.6389 234.398 15.7831C235.732 15.9273 236.954 16.1255 238.066 16.3778C239.215 16.594 240.215 16.8283 241.067 17.0806C241.957 17.3329 243.326 18.162 243.882 18.3783V27.8395H236.732Z" fill="#F5F7F9"/>
<path fill-rule="evenodd" clip-rule="evenodd" d="M188.951 52.6853C182.926 51.0114 170.705 43.8189 170 28.4328C172.498 27.8753 178.564 25.8803 181.149 20.9059H188.951H188.953H196.344C198.793 25.8803 204.54 27.8753 206.906 28.4328C206.238 43.8188 194.661 51.0112 188.953 52.6853V52.6861C188.953 52.6859 188.952 52.6858 188.952 52.6857C188.951 52.6858 188.951 52.6859 188.951 52.6861V52.6853Z" fill="#F5F7F9"/>
<path fill-rule="evenodd" clip-rule="evenodd" d="M188.449 45.6955L184.529 41.918L185.412 20.9059H187.322V38.1979C187.322 38.7501 187.769 39.1979 188.322 39.1979H188.449H188.457H188.585C189.137 39.1979 189.585 38.7501 189.585 38.1979V20.9059H191.494L192.377 41.918L188.457 45.6955V45.703L188.453 45.6992L188.449 45.703V45.6955Z" fill="#1E2B40"/>
<path d="M189.612 18.6343H187.316V38.314C187.316 38.314 187.32 39.2095 188.428 39.2095C189.536 39.2095 189.612 38.314 189.612 38.314V18.6343Z" fill="#0082F9"/>
<path d="M179.061 15.7261C179.093 15.6538 179.165 15.6072 179.244 15.6072L197.653 15.6071C197.732 15.6071 197.803 15.6536 197.835 15.7257L199.013 18.368C199.072 18.5002 198.975 18.6494 198.831 18.6494H178.073C177.928 18.6494 177.832 18.5006 177.89 18.3683L179.061 15.7261Z" fill="#0082F9"/>
<path d="M184.768 3.5739C184.765 3.55955 184.765 3.54458 184.769 3.53031C184.978 2.76144 185.438 2.08349 186.076 1.60247C186.715 1.12145 187.495 0.864506 188.295 0.871793C189.095 0.863173 189.875 1.11938 190.513 1.60014C191.151 2.0809 191.61 2.75897 191.818 3.52776C191.823 3.54391 191.823 3.56085 191.82 3.57722C191.816 3.59359 191.809 3.6089 191.798 3.62191L191.788 3.63259C191.776 3.64438 191.761 3.65362 191.746 3.65974C191.73 3.66587 191.713 3.66875 191.697 3.66822L184.898 3.66262C184.877 3.66349 184.856 3.65944 184.837 3.65078C184.818 3.64211 184.801 3.62909 184.788 3.61275C184.778 3.60159 184.771 3.58826 184.768 3.5739Z" fill="#0082F9"/>
<path d="M186.736 5.1167H189.736L190.867 15.6071H185.766L186.736 5.1167Z" fill="#0082F9"/>
<path fill-rule="evenodd" clip-rule="evenodd" d="M139.056 15.5672H127.551V22.1211H131.64V46.4137H127.551V52.8161H131.64V52.8177H139.056V37.1893H155.796V52.8177H163.266V52.8161H167.158V46.4137H163.266V21.9697H167.158V15.5672H163.266H162.906H155.796V30.4674H139.056V15.5672Z" fill="#F5F7F9"/>
<path d="M116.537 27.8395V22.5412C115.648 22.3609 114.684 22.2348 113.647 22.1627C112.646 22.0546 111.553 22.0005 110.367 22.0005C108.626 22.0005 106.996 22.2528 105.477 22.7574C103.994 23.226 102.679 23.9649 101.53 24.9741C100.382 25.9833 99.474 27.2628 98.807 28.8126C98.1771 30.3625 97.8622 32.1827 97.8622 34.2732C97.8622 36.3276 98.1771 38.1298 98.807 39.6796C99.4369 41.1934 100.308 42.4549 101.419 43.4641C102.531 44.4733 103.828 45.2302 105.31 45.7348C106.829 46.2034 108.459 46.4377 110.201 46.4377C111.349 46.4377 112.517 46.3115 113.702 46.0592C114.925 45.8069 116 45.5186 116.926 45.1942V39.0849H110.201V32.8134H124.151V49.7356C123.558 50.024 122.762 50.3484 121.761 50.7088C120.761 51.0332 119.631 51.3576 118.371 51.682C117.111 52.0063 115.759 52.2767 114.314 52.4929C112.869 52.7092 111.386 52.8173 109.867 52.8173C106.57 52.8173 103.679 52.3487 101.197 51.4116C98.7515 50.4745 96.695 49.177 95.0277 47.519C93.3974 45.861 92.1746 43.8967 91.3595 41.6259C90.5443 39.3192 90.1367 36.8322 90.1367 34.165C90.1367 31.2455 90.6369 28.6504 91.6374 26.3797C92.6748 24.073 94.0828 22.1267 95.8614 20.5408C97.6399 18.9188 99.7334 17.6934 102.142 16.8644C104.587 15.9993 107.199 15.5668 109.978 15.5668C111.461 15.5668 112.869 15.6389 114.202 15.7831C115.536 15.9273 116.759 16.1255 117.871 16.3778C119.019 16.594 120.02 16.8283 120.872 17.0806C121.761 17.3329 123.131 18.162 123.686 18.3783V27.8395H116.537Z" fill="#F5F7F9"/>
<path d="M73.9844 15.5668H85.8894V52.8173H78.1795V22.1207H73.9844V15.5668Z" fill="#F5F7F9"/>
<path d="M34.8633 15.5668H44.712C48.7525 20.7203 51.9813 24.9028 54.3983 28.1144C56.8515 31.2886 58.7455 33.7346 60.0803 35.4524C61.6316 37.5063 62.7138 38.9627 63.3271 39.8216V15.5668H70.5784V52.8173H64.6258C60.5493 47.6265 57.2664 43.4253 54.7771 40.2138C52.2879 37.0022 50.3759 34.5188 49.0411 32.7637C47.4537 30.7097 46.3354 29.2347 45.686 28.3384V52.8173H38.4348V22.3396H34.8633V15.5668Z" fill="#F5F7F9"/>
<path fill-rule="evenodd" clip-rule="evenodd" d="M0 15.5672H11.5119V31.7558L25.0522 15.5672H27.207H33.1595H33.164L33.1595 15.5726V22.3401H27.4949L18.2827 33.3459L27.9886 46.0458H33.1595V52.8119L33.164 52.8177H33.1595V52.8187H27.207V52.8177H25.3811L11.5119 35.5089V52.8177H4.05659V22.1211H0V15.5672Z" fill="#F5F7F9"/>
<path d="M350.639 74.8105L347.455 67.816V74.8105H346.039V65.6629H347.932L351.312 73.0905L354.677 65.6629H356.585V74.8105H355.154V67.8033L351.957 74.8105H350.639Z" fill="#8E97A4"/>
<path d="M343.827 74.8105H337.727V65.6629H339.269V73.5492H343.827V74.8105Z" fill="#8E97A4"/>
<path d="M333.991 74.8105L333.079 72.5427H328.732L327.807 74.8105H326.25L330.106 65.6629H331.803L335.632 74.8105H333.991ZM330.92 67.1917L329.195 71.4088H332.617L330.92 67.1917Z" fill="#8E97A4"/>
<path d="M324.556 73.5874V74.8105H318.176V65.6629H324.458V66.886H319.718V69.485H324.038V70.7081H319.718V73.5874H324.556Z" fill="#8E97A4"/>
<path d="M309.773 74.8105H308.23V65.6629H311.989C314.303 65.6629 315.691 66.6949 315.691 68.5167C315.691 69.829 314.779 70.8355 313.251 71.1667L315.985 74.8105H314.134L311.624 71.3706H309.773V74.8105ZM309.773 66.835V70.1985H311.891C313.321 70.1985 314.134 69.6251 314.134 68.5167C314.134 67.4211 313.321 66.835 311.891 66.835H309.773Z" fill="#8E97A4"/>
<path d="M302.385 74.8105H296.285V65.6629H297.828V73.5492H302.385V74.8105Z" fill="#8E97A4"/>
<path d="M292.553 74.8105L291.642 72.5427H287.295L286.369 74.8105H284.812L288.669 65.6629H290.366L294.194 74.8105H292.553ZM289.482 67.1917L287.757 71.4088H291.179L289.482 67.1917Z" fill="#8E97A4"/>
<path d="M281.195 74.8105H279.653V66.9242H276.371V65.6629H284.477V66.9242H281.195V74.8105Z" fill="#8E97A4"/>
<path d="M274.316 74.8105H272.773V65.6629H274.316V74.8105Z" fill="#8E97A4"/>
<path d="M265.455 75C262.552 75 260.309 72.9998 260.309 70.2224C260.309 67.5214 262.44 65.4702 265.371 65.4702C267.965 65.4702 269.718 66.9099 270.335 68.8082H268.54C268.162 67.6361 267.054 66.7315 265.329 66.7315C263.338 66.7315 261.907 68.0947 261.907 70.2479C261.907 72.2736 263.268 73.8024 265.511 73.8024C267.376 73.8024 268.554 72.7577 268.835 71.1906H265.357V70.0695H270.462C270.518 72.9998 268.54 75 265.455 75Z" fill="#8E97A4"/>
<path d="M258.015 74.8105H256.473V65.6629H258.015V74.8105Z" fill="#8E97A4"/>
<path d="M249.097 74.8105H245.914V65.6629H249.097C252.309 65.6629 254.16 67.523 254.16 70.1985C254.16 72.8357 252.239 74.8105 249.097 74.8105ZM247.457 66.8732V73.6001H249.027C251.341 73.6001 252.589 72.3006 252.589 70.1985C252.589 68.1345 251.355 66.8732 249.027 66.8732H247.457Z" fill="#8E97A4"/>
<path d="M239.771 73.5874V74.8105H233.391V65.6629H239.673V66.886H234.933V69.485H239.252V70.7081H234.933V73.5874H239.771Z" fill="#8E97A4"/>
<path d="M223.847 74.8105H222.305V65.6629H223.847V69.485H228.952V65.6629H230.494V74.8105H228.952V70.7081H223.847V74.8105Z" fill="#8E97A4"/>
<path d="M216.961 74.8105H215.418V66.9242H212.137V65.6629H220.242V66.9242H216.961V74.8105Z" fill="#8E97A4"/>
<path d="M204.899 74.8105L199.598 67.6631V74.8105H198.168V65.6629H199.851L205.025 72.6191V65.6629H206.456V74.8105H204.899Z" fill="#8E97A4"/>
<path d="M195.289 74.8105H193.746V65.6629H195.289V74.8105Z" fill="#8E97A4"/>
<path d="M187.603 73.5874V74.8105H181.223V65.6629H187.505V66.886H182.765V69.485H187.084V70.7081H182.765V73.5874H187.603Z" fill="#8E97A4"/>
<path d="M178.734 72.1339C178.734 73.7265 177.332 74.9368 174.892 74.9368C172.466 74.9368 170.993 73.7265 170.867 71.9046H172.438C172.508 73.064 173.321 73.8156 174.864 73.8156C176.14 73.8156 177.094 73.2678 177.094 72.325C177.094 71.5606 176.547 71.1784 175.383 70.9491L173.924 70.6943C172.508 70.4395 171.218 69.7897 171.218 68.2354C171.218 66.6938 172.704 65.5344 174.794 65.5344C176.883 65.5344 178.468 66.6938 178.594 68.5157H177.023C176.939 67.42 176.07 66.6556 174.808 66.6556C173.504 66.6556 172.788 67.3563 172.788 68.1462C172.788 69.0125 173.616 69.3183 174.555 69.4967L176.042 69.7642C177.767 70.0827 178.734 70.7707 178.734 72.1339Z" fill="#8E97A4"/>
<path d="M166.938 74.8105L161.637 67.6631V74.8105H160.207V65.6629H161.89L167.064 72.6191V65.6629H168.495V74.8105H166.938Z" fill="#8E97A4"/>
<path d="M157.693 73.5874V74.8105H151.312V65.6629H157.595V66.886H152.855V69.485H157.174V70.7081H152.855V73.5874H157.693Z" fill="#8E97A4"/>
<path d="M144.527 74.8105H142.984V65.6629H149.099V66.886H144.527V69.8672H148.425V71.0903H144.527V74.8105Z" fill="#8E97A4"/>
<path d="M140.474 73.5874V74.8105H134.094V65.6629H140.376V66.886H135.636V69.485H139.956V70.7081H135.636V73.5874H140.474Z" fill="#8E97A4"/>
<path d="M126.718 74.8105H123.535V65.6629H126.718C129.93 65.6629 131.781 67.523 131.781 70.1985C131.781 72.8357 129.86 74.8105 126.718 74.8105ZM125.078 66.8732V73.6001H126.648C128.962 73.6001 130.21 72.3006 130.21 70.1985C130.21 68.1345 128.976 66.8732 126.648 66.8732H125.078Z" fill="#8E97A4"/>
<path d="M112.678 75C109.873 75 107.699 72.9233 107.699 70.2224C107.699 67.5342 109.873 65.4702 112.678 65.4702C115.202 65.4702 117.221 66.9991 117.6 69.2541H115.959C115.679 67.7762 114.36 66.7315 112.692 66.7315C110.7 66.7315 109.298 68.1967 109.298 70.2224C109.298 72.2736 110.7 73.7387 112.692 73.7387C114.36 73.7387 115.679 72.6813 115.959 71.2034H117.6C117.221 73.4712 115.202 75 112.678 75Z" fill="#8E97A4"/>
<path d="M105.406 74.8105H103.863V65.6629H105.406V74.8105Z" fill="#8E97A4"/>
<path d="M96.5411 75C93.6383 75 91.3945 72.9998 91.3945 70.2224C91.3945 67.5214 93.5261 65.4702 96.457 65.4702C99.0513 65.4702 100.804 66.9099 101.421 68.8082H99.6263C99.2476 67.6361 98.1398 66.7315 96.4149 66.7315C94.4236 66.7315 92.9932 68.0947 92.9932 70.2479C92.9932 72.2736 94.3535 73.8024 96.5972 73.8024C98.4623 73.8024 99.6403 72.7577 99.9208 71.1906H96.443V70.0695H101.547C101.604 72.9998 99.6263 75 96.5411 75Z" fill="#8E97A4"/>
<path d="M89.4783 73.5874V74.8105H83.0977V65.6629H89.3801V66.886H84.6402V69.485H88.9594V70.7081H84.6402V73.5874H89.4783Z" fill="#8E97A4"/>
<path d="M77.7459 74.8105H76.2034V66.9242H72.9219V65.6629H81.0274V66.9242H77.7459V74.8105Z" fill="#8E97A4"/>
<path d="M70.9401 74.8105L70.0286 72.5427H65.6814L64.7558 74.8105H63.1992L67.0557 65.6629H68.7525L72.5809 74.8105H70.9401ZM67.869 67.1917L66.1441 71.4088H69.5658L67.869 67.1917Z" fill="#8E97A4"/>
<path d="M55.7496 74.8105H54.207V65.6629H57.9653C60.2792 65.6629 61.6675 66.6949 61.6675 68.5167C61.6675 69.829 60.756 70.8355 59.2274 71.1667L61.962 74.8105H60.1109L57.6007 71.3706H55.7496V74.8105ZM55.7496 66.835V70.1985H57.8671C59.2975 70.1985 60.1109 69.6251 60.1109 68.5167C60.1109 67.4211 59.2975 66.835 57.8671 66.835H55.7496Z" fill="#8E97A4"/>
<path d="M48.8592 74.8105H47.3166V66.9242H44.0352V65.6629H52.1407V66.9242H48.8592V74.8105Z" fill="#8E97A4"/>
<path d="M42.7304 72.1339C42.7304 73.7265 41.3281 74.9368 38.888 74.9368C36.4619 74.9368 34.9895 73.7265 34.8633 71.9046H36.4339C36.504 73.064 37.3174 73.8156 38.86 73.8156C40.1361 73.8156 41.0897 73.2678 41.0897 72.325C41.0897 71.5606 40.5428 71.1784 39.3788 70.9491L37.9204 70.6943C36.504 70.4395 35.2139 69.7897 35.2139 68.2354C35.2139 66.6938 36.7003 65.5344 38.7898 65.5344C40.8793 65.5344 42.464 66.6938 42.5902 68.5157H41.0196C40.9354 67.42 40.066 66.6556 38.8039 66.6556C37.4997 66.6556 36.7845 67.3563 36.7845 68.1462C36.7845 69.0125 37.6119 69.3183 38.5514 69.4967L40.0379 69.7642C41.7628 70.0827 42.7304 70.7707 42.7304 72.1339Z" fill="#8E97A4"/>
</svg>
