<svg width="20" height="20" viewBox="0 0 20 20" fill="none" xmlns="http://www.w3.org/2000/svg">
<g id="8680006_thumb_up_fill_icon 1" clip-path="url(#clip0_1_22618)">
<g id="Group">
<path id="Vector" d="M1.66536 7.49997H4.16536V17.5H1.66536C1.44435 17.5 1.23239 17.4122 1.07611 17.2559C0.919829 17.0996 0.832031 16.8877 0.832031 16.6666V8.3333C0.832031 8.11229 0.919829 7.90033 1.07611 7.74405C1.23239 7.58777 1.44435 7.49997 1.66536 7.49997ZM6.0762 6.42247L11.4095 1.08914C11.4804 1.01805 11.5746 0.974943 11.6747 0.967747C11.7748 0.960551 11.8742 0.989749 11.9545 1.04997L12.6654 1.5833C12.8628 1.73151 13.0119 1.93485 13.0939 2.16768C13.1759 2.40052 13.1872 2.65243 13.1262 2.89164L12.1654 6.66664H17.4987C17.9407 6.66664 18.3646 6.84223 18.6772 7.15479C18.9898 7.46735 19.1654 7.89128 19.1654 8.3333V10.0866C19.1656 10.3044 19.1231 10.5202 19.0404 10.7216L16.4612 16.9841C16.3983 17.1368 16.2914 17.2674 16.1542 17.3592C16.0169 17.451 15.8555 17.5 15.6904 17.5H6.66536C6.44435 17.5 6.23239 17.4122 6.07611 17.2559C5.91983 17.0996 5.83203 16.8877 5.83203 16.6666V7.01164C5.83208 6.79064 5.91991 6.57871 6.0762 6.42247Z" fill="#1C1C1C"/>
</g>
</g>
<defs>
<clipPath id="clip0_1_22618">
<rect width="20" height="20" fill="white"/>
</clipPath>
</defs>
</svg>
