<svg width="83" height="83" viewBox="0 0 83 83" fill="none" xmlns="http://www.w3.org/2000/svg">
<rect x="1" y="1" width="81" height="81" rx="20" fill="#1E2B40"/>
<rect x="0.5" y="0.5" width="82" height="82" rx="20.5" stroke="#1E2B40" stroke-opacity="0.2"/>
<path d="M52.3574 66.8125H30.7422V63.2336C30.7422 62.0534 31.1398 60.913 31.81 59.9417C36.8362 52.6569 38.2733 45.1113 37.7671 35.5038H45.3324C44.8269 45.099 46.2507 52.7245 51.2685 59.9305C51.9504 60.9097 52.3574 62.0616 52.3574 63.2548V66.8125Z" fill="#F5F7F9"/>
<path fill-rule="evenodd" clip-rule="evenodd" d="M45.4384 28.0536C47.0681 26.8581 48.1259 24.9305 48.1259 22.7561C48.1259 19.1283 45.1815 16.1875 41.5493 16.1875C37.9171 16.1875 34.9727 19.1283 34.9727 22.7561C34.9727 24.9319 36.0319 26.8607 37.6634 28.056C37.0858 29.0935 36.7189 29.6182 35.0657 29.6182V31.1853H48.0348V29.6182C46.6934 29.5931 46.0954 29.1409 45.4384 28.0536Z" fill="#0082F9"/>
</svg>
