<svg width="1.4rem" height="1.4rem" viewBox="0 0 16 16" fill="none" xmlns="http://www.w3.org/2000/svg">
<path d="M14.6667 5.51301V2.81967C14.6667 1.75967 14.24 1.33301 13.18 1.33301H10.4867C9.42667 1.33301 9 1.75967 9 2.81967V5.51301C9 6.57301 9.42667 6.99967 10.4867 6.99967H13.18C14.24 6.99967 14.6667 6.57301 14.6667 5.51301Z" stroke="white" stroke-linecap="round" stroke-linejoin="round"/>
<path d="M7.00065 5.67967V2.65301C7.00065 1.71301 6.57398 1.33301 5.51398 1.33301H2.82065C1.76065 1.33301 1.33398 1.71301 1.33398 2.65301V5.67301C1.33398 6.61967 1.76065 6.99301 2.82065 6.99301H5.51398C6.57398 6.99967 7.00065 6.61967 7.00065 5.67967Z" stroke="white" stroke-linecap="round" stroke-linejoin="round"/>
<path d="M7.00065 13.18V10.4867C7.00065 9.42667 6.57398 9 5.51398 9H2.82065C1.76065 9 1.33398 9.42667 1.33398 10.4867V13.18C1.33398 14.24 1.76065 14.6667 2.82065 14.6667H5.51398C6.57398 14.6667 7.00065 14.24 7.00065 13.18Z" stroke="white" stroke-linecap="round" stroke-linejoin="round"/>
<path d="M10 10.333H14" stroke="white" stroke-linecap="round"/>
<path d="M10 13H14" stroke="white" stroke-linecap="round"/>
</svg>
