<svg width="1.4rem" height="1.4rem" viewBox="0 0 16 16" fill="none" xmlns="http://www.w3.org/2000/svg">
<rect width="16" height="16" rx="6" fill="#B254D3"/>
<mask id="mask0_964_14244" style="mask-type:luminance" maskUnits="userSpaceOnUse" x="3" y="3" width="10" height="10">
<path d="M13 3H3V13H13V3Z" fill="white"/>
</mask>
<g mask="url(#mask0_964_14244)">
<mask id="mask1_964_14244" style="mask-type:luminance" maskUnits="userSpaceOnUse" x="3" y="3" width="10" height="10">
<path d="M12.7611 3.47656H3.2373V12.5242H12.7611V3.47656Z" fill="white"/>
</mask>
<g mask="url(#mask1_964_14244)">
<path d="M7.6124 3.49811C7.47845 3.52082 7.1734 3.62306 7.06926 3.67606C6.75859 3.83882 6.62283 3.93535 6.43492 4.12463C6.30288 4.25906 6.10754 4.51835 6.06478 4.61487C6.05364 4.63949 6.02197 4.70573 5.99035 4.76254C5.92897 4.87797 5.8174 5.2433 5.78764 5.42878C5.75973 5.60292 5.76159 5.91901 5.79507 6.10454C5.82669 6.29192 5.91969 6.59668 5.98107 6.71401C6.00712 6.76135 6.03873 6.82759 6.0555 6.86354C6.13545 7.03201 6.34935 7.30078 6.53911 7.46544C6.60792 7.52601 6.62469 7.55063 6.60978 7.56954C6.59864 7.58282 6.56516 7.64149 6.53354 7.69825C6.48145 7.79859 6.44426 7.86297 6.30659 8.09578C6.27312 8.15254 6.22102 8.24721 6.1894 8.30397C6.15778 8.36078 6.11873 8.42892 6.09826 8.45349C6.07964 8.47811 6.06478 8.5084 6.06478 8.52163C6.06478 8.53487 6.04988 8.56516 6.03131 8.58978C6.01083 8.6144 5.97178 8.68254 5.94016 8.7393C5.90854 8.79611 5.85831 8.88506 5.82854 8.93806C5.79692 8.98916 5.74111 9.08759 5.70207 9.15573L5.6295 9.28068H5.4714C5.25192 9.27878 5.02869 9.35068 4.8873 9.46425C4.74411 9.57782 4.7255 9.59678 4.7255 9.62135C4.7255 9.63649 4.71807 9.64787 4.70873 9.64787C4.67526 9.64787 4.58411 9.82959 4.54135 9.97721C4.50411 10.104 4.49854 10.1552 4.50788 10.3084C4.52273 10.5962 4.60273 10.7779 4.79802 10.9728C4.96545 11.1394 5.14773 11.217 5.40445 11.2322C5.54021 11.2397 5.60345 11.234 5.72811 11.2019C5.88807 11.1583 5.91969 11.1432 6.07778 11.0239C6.18754 10.9406 6.33635 10.7305 6.36611 10.6208C6.43307 10.3577 6.43864 10.3009 6.42007 10.1533C6.40888 10.0719 6.39216 9.99044 6.38102 9.96963C6.37169 9.95073 6.3624 9.91854 6.3624 9.89959C6.3624 9.88068 6.32892 9.81254 6.28611 9.74821C6.20802 9.62516 6.20802 9.60244 6.27869 9.51535C6.29173 9.50021 6.33264 9.4283 6.37169 9.35449C6.40888 9.28254 6.45726 9.20116 6.47588 9.17654C6.49631 9.15197 6.51121 9.12354 6.51121 9.11597C6.51121 9.10654 6.54097 9.05354 6.57631 8.99482C6.6135 8.93806 6.64888 8.87559 6.65445 8.85668C6.66188 8.83963 6.68978 8.79044 6.71583 8.74878C6.74373 8.70716 6.79392 8.62197 6.82554 8.55949C6.85721 8.49701 6.92602 8.37778 6.97626 8.29449C7.02645 8.21121 7.0804 8.11468 7.09716 8.08063C7.11202 8.04844 7.15292 7.97463 7.18645 7.91973C7.21807 7.86482 7.26083 7.79482 7.27759 7.76454C7.40778 7.52982 7.45245 7.45221 7.49335 7.39163C7.54545 7.31025 7.53797 7.26859 7.46545 7.25159C7.43754 7.24401 7.38916 7.2213 7.35754 7.20044C7.32778 7.17773 7.27945 7.14559 7.25154 7.12663C7.22364 7.10773 7.19388 7.09259 7.18459 7.09259C7.17526 7.09259 7.10459 7.04149 7.02831 6.98092C6.63397 6.66478 6.41821 6.19349 6.44054 5.69568C6.47402 4.96506 6.93531 4.38016 7.61797 4.20225C8.32112 4.01863 9.05212 4.35559 9.39812 5.02182C9.49854 5.21682 9.56554 5.51397 9.56554 5.76192C9.56554 5.86982 9.5674 5.95687 9.57297 5.95687C9.57669 5.95687 9.71807 5.97773 9.88731 6.0042C10.0584 6.03073 10.2035 6.04773 10.2147 6.04206C10.2426 6.02316 10.2352 5.47235 10.2035 5.32278C10.1533 5.07673 10.0677 4.84392 9.94683 4.62244C9.88173 4.5013 9.71992 4.26663 9.67154 4.22306C9.64735 4.20035 9.61388 4.1663 9.59531 4.14735C9.3944 3.91268 9.0205 3.68554 8.63173 3.56249C8.40107 3.48868 8.39735 3.48868 8.05512 3.48487C7.86535 3.48111 7.66635 3.48868 7.6124 3.49811ZM5.65926 10.0397C5.80992 10.2006 5.80807 10.3217 5.65369 10.475C5.57745 10.5526 5.56811 10.5564 5.46397 10.5564C5.35607 10.5564 5.3505 10.5545 5.26307 10.4637C5.17378 10.3747 5.17192 10.369 5.17192 10.2573C5.17192 10.1476 5.17564 10.14 5.25564 10.0567C5.33745 9.96963 5.33935 9.96963 5.46583 9.96963C5.58859 9.96963 5.59416 9.97154 5.65926 10.0397Z" fill="white"/>
<path d="M7.72564 4.80238C7.34436 4.8989 7.07088 5.25095 7.03741 5.68252C7.02812 5.80748 7.03555 5.851 7.10436 6.12167C7.14345 6.26928 7.38898 6.54186 7.56012 6.62705C7.67731 6.68381 7.84469 6.72167 7.99722 6.72357L8.1535 6.72738L8.22045 6.83338C8.27998 6.928 8.3246 7.00181 8.42322 7.17786C8.43993 7.20814 8.48274 7.28005 8.51622 7.33686C8.55155 7.39362 8.58688 7.45609 8.59622 7.47881C8.6055 7.50152 8.63898 7.55643 8.66874 7.60371C8.6985 7.65105 8.73941 7.723 8.76174 7.76462C8.78222 7.80624 8.84174 7.90848 8.89198 7.99176C8.94403 8.07505 8.99984 8.17348 9.01845 8.20943C9.03703 8.24538 9.07984 8.323 9.11517 8.37976C9.1505 8.43657 9.19331 8.50662 9.20817 8.535C9.38674 8.86057 9.46488 8.98548 9.49836 8.99871C9.51136 9.00252 9.55417 8.98548 9.59693 8.959C9.63788 8.93248 9.68064 8.90976 9.68807 8.90976C9.69741 8.90976 9.76436 8.87757 9.83688 8.83595C9.9076 8.79619 9.99126 8.75833 10.021 8.75267C10.0489 8.747 10.1401 8.72428 10.2219 8.70343C10.4079 8.65424 10.5977 8.65424 10.8172 8.69967C11.0534 8.75076 11.1055 8.7659 11.1892 8.81133C11.2301 8.83405 11.2934 8.86624 11.3287 8.88514C11.4347 8.94005 11.6542 9.13314 11.7528 9.25805C11.8756 9.41324 12.0058 9.67824 12.0579 9.87509C12.1137 10.0814 12.1155 10.4297 12.0653 10.6038C12.0467 10.6663 12.0281 10.742 12.0225 10.7742C12.017 10.8045 12.0058 10.8385 11.9984 10.8499C11.9909 10.8594 11.95 10.937 11.9072 11.0221C11.8346 11.1679 11.6394 11.4007 11.4682 11.5427C11.2952 11.6846 10.912 11.8285 10.6275 11.855C10.4117 11.8758 10.0192 11.7869 9.83503 11.679C9.72717 11.6127 9.72155 11.6127 9.69555 11.6468C9.68065 11.6657 9.65831 11.7092 9.64531 11.7395C9.63226 11.7717 9.59136 11.8417 9.55417 11.8947C9.51698 11.9496 9.48722 12.0007 9.48722 12.0083C9.48722 12.0178 9.46117 12.0613 9.43141 12.1067C9.39979 12.1521 9.3756 12.1957 9.3756 12.2014C9.3756 12.209 9.4035 12.2279 9.43698 12.243C9.4686 12.2581 9.53926 12.2922 9.5895 12.3206C9.69555 12.3755 9.92431 12.455 10.101 12.4966C10.2647 12.5345 10.7558 12.5345 10.9511 12.4966C11.4105 12.4077 11.7993 12.1957 12.1304 11.8569C12.4225 11.5578 12.6159 11.1944 12.7238 10.7363C12.7703 10.5432 12.7759 10.0322 12.7331 9.82776C12.5917 9.13881 12.1955 8.59176 11.5984 8.25676C11.4477 8.17157 11.2915 8.111 11.0608 8.04667C10.9139 8.005 10.86 8.00124 10.54 8.00124C10.1792 8.00124 10.062 8.01824 9.83317 8.10152L9.75879 8.12805L9.69741 8.03338C9.66388 7.98229 9.63603 7.93309 9.63603 7.92552C9.63603 7.91605 9.6025 7.85738 9.5616 7.7949C9.52069 7.73243 9.48722 7.67567 9.48722 7.66809C9.48722 7.66052 9.45555 7.60186 9.4165 7.53938C9.34026 7.41633 9.24722 7.25924 9.21374 7.19676C9.20074 7.17595 9.15984 7.10405 9.12074 7.0359C9.08169 6.96776 9.03703 6.89014 9.02217 6.86176C8.89941 6.63838 8.84174 6.54186 8.79336 6.46995C8.75617 6.41505 8.74317 6.37909 8.75431 6.36395C8.90869 6.15386 8.95522 6.01 8.95522 5.73933C8.95522 5.427 8.88265 5.24528 8.67988 5.039C8.55341 4.91214 8.43436 4.844 8.26136 4.80048C8.0865 4.75695 7.9005 4.75695 7.72564 4.80238ZM8.20555 5.53867C8.29112 5.62386 8.29674 5.63519 8.29674 5.72986C8.29674 5.84343 8.25765 5.9229 8.16836 5.99105C8.12374 6.02324 8.0865 6.03271 7.9935 6.03271C7.88007 6.03271 7.87445 6.03081 7.79636 5.94943C7.7275 5.87748 7.71264 5.851 7.70522 5.76962C7.69588 5.66362 7.73498 5.57843 7.83355 5.49324C7.88007 5.45352 7.90983 5.44595 8.00283 5.44595C8.11255 5.44595 8.11817 5.44781 8.20555 5.53867Z" fill="white"/>
<path d="M4.2769 8.30391C4.07419 8.43452 3.80071 8.69195 3.69285 8.85281C3.66866 8.88881 3.624 8.95505 3.59238 9.00048C3.56262 9.044 3.53657 9.08943 3.53657 9.10076C3.53657 9.11214 3.52171 9.14433 3.50124 9.17081C3.4529 9.24086 3.41381 9.33929 3.34128 9.57586C3.24643 9.87686 3.23338 9.98852 3.24457 10.3368C3.25386 10.6396 3.27247 10.738 3.36919 11.0296C3.41195 11.1545 3.56447 11.4554 3.64633 11.5747C3.75238 11.7318 4.01652 12.0025 4.16905 12.1103C4.42385 12.294 4.79219 12.453 5.08981 12.5079C5.15676 12.5211 5.32976 12.5249 5.5269 12.5192C5.845 12.5116 5.858 12.5097 6.08681 12.434C6.47743 12.3072 6.77133 12.1293 7.02619 11.8719C7.17685 11.7185 7.40562 11.4138 7.40562 11.3684C7.40562 11.3513 7.41681 11.3286 7.42981 11.3172C7.48004 11.2737 7.63257 10.8649 7.67538 10.6548L7.68838 10.5942H8.66309C9.46666 10.5942 9.63776 10.598 9.63776 10.6188C9.63776 10.6548 9.77728 10.8743 9.848 10.95C10.0098 11.1223 10.2832 11.2359 10.5362 11.2378C10.7427 11.2378 10.9994 11.1564 11.1333 11.0466C11.1445 11.0371 11.1817 11.0087 11.2133 10.9803C11.2468 10.9539 11.2747 10.9254 11.2747 10.916C11.2747 10.9084 11.2989 10.8743 11.3286 10.8421C11.3881 10.7778 11.4663 10.5866 11.4998 10.4239C11.5388 10.2365 11.4942 9.96391 11.3919 9.77086C11.2096 9.42824 10.7464 9.20867 10.3818 9.29386C10.1642 9.34495 10.1326 9.35633 10.0284 9.42448C9.88147 9.521 9.68614 9.75 9.64895 9.86738C9.63776 9.90524 9.6229 9.9071 9.06486 9.91848C8.75052 9.92605 8.17014 9.93172 7.77395 9.93172H7.05224V10.0699C7.05224 10.2478 7.02247 10.4806 6.97781 10.6586C6.93876 10.8194 6.81414 11.0788 6.72857 11.1848C6.60395 11.3381 6.31005 11.6163 6.27095 11.6163C6.26352 11.6163 6.204 11.6466 6.14076 11.6826C5.95662 11.7886 5.55295 11.8738 5.34462 11.851C4.51686 11.7602 3.90862 11.0939 3.9049 10.2724C3.90119 9.72543 4.19509 9.16133 4.62105 8.89638C4.74195 8.82252 4.74195 8.82824 4.64338 8.673C4.608 8.61433 4.57824 8.56133 4.57824 8.55186C4.57824 8.54238 4.54476 8.47805 4.50385 8.40991C4.46295 8.34176 4.42943 8.27743 4.42943 8.26605C4.42943 8.232 4.36619 8.24714 4.2769 8.30391ZM10.752 10.0548C10.8245 10.1361 10.8282 10.1437 10.8282 10.263C10.8282 10.3841 10.8264 10.3879 10.7446 10.4712C10.6646 10.5526 10.6571 10.5563 10.553 10.5563C10.4674 10.5563 10.4302 10.5469 10.3893 10.5128C10.2963 10.439 10.2535 10.3784 10.2423 10.3008C10.2274 10.2043 10.2498 10.1437 10.3409 10.0472C10.4116 9.97148 10.4153 9.96957 10.5437 9.96957H10.6739L10.752 10.0548Z" fill="white"/>
</g>
</g>
</svg>
