<svg width="20" height="20" viewBox="0 0 20 20" fill="none" xmlns="http://www.w3.org/2000/svg">
<path d="M16.668 6.04167V10.3167C15.9263 9.725 14.9846 9.375 13.9596 9.375C12.9346 9.375 11.9763 9.73331 11.2263 10.3416C10.218 11.1333 9.58464 12.375 9.58464 13.75C9.58464 14.5667 9.81798 15.35 10.218 16C10.5263 16.5083 10.9263 16.95 11.4013 17.2917H5.83464C2.91797 17.2917 1.66797 15.625 1.66797 13.125V6.04167C1.66797 3.54167 2.91797 1.875 5.83464 1.875H12.5013C15.418 1.875 16.668 3.54167 16.668 6.04167Z" stroke="white" stroke-width="1.25" stroke-miterlimit="10" stroke-linecap="round" stroke-linejoin="round"/>
<path d="M5.00391 8.125H10.0039" stroke="white" stroke-width="1.25" stroke-miterlimit="10" stroke-linecap="round" stroke-linejoin="round"/>
<path d="M5.00391 12.2915H7.18724" stroke="white" stroke-width="1.25" stroke-miterlimit="10" stroke-linecap="round" stroke-linejoin="round"/>
<path d="M18.332 13.75C18.332 14.5667 18.0987 15.35 17.6987 16C17.4654 16.4 17.1737 16.75 16.832 17.0333C16.0654 17.7167 15.0654 18.125 13.957 18.125C12.9987 18.125 12.1154 17.8167 11.3987 17.2917C10.9237 16.95 10.5237 16.5083 10.2154 16C9.81537 15.35 9.58203 14.5667 9.58203 13.75C9.58203 12.375 10.2154 11.1333 11.2237 10.3416C11.9737 9.73331 12.932 9.375 13.957 9.375C14.982 9.375 15.9237 9.725 16.6654 10.3167C17.682 11.1167 18.332 12.3583 18.332 13.75Z" stroke="white" stroke-width="1.25" stroke-miterlimit="10" stroke-linecap="round" stroke-linejoin="round"/>
<path d="M13.9622 15.8332C13.9622 14.6832 14.8956 13.7498 16.0456 13.7498C14.8956 13.7498 13.9622 12.8165 13.9622 11.6665C13.9622 12.8165 13.0289 13.7498 11.8789 13.7498C13.0289 13.7498 13.9622 14.6832 13.9622 15.8332Z" stroke="white" stroke-width="1.25" stroke-linecap="round" stroke-linejoin="round"/>
</svg>
