<svg width="16" height="16" viewBox="0 0 16 16" fill="none" xmlns="http://www.w3.org/2000/svg">
<g id="5402373_write_modify_tool_edit_pen_icon (1) 1">
<path id="Vector" d="M11.334 14.6667H3.33398C2.80355 14.6667 2.29484 14.456 1.91977 14.0809C1.5447 13.7058 1.33398 13.1971 1.33398 12.6667V4.66669C1.33398 4.13625 1.5447 3.62755 1.91977 3.25247C2.29484 2.8774 2.80355 2.66669 3.33398 2.66669H6.00065C6.17746 2.66669 6.34703 2.73693 6.47206 2.86195C6.59708 2.98697 6.66732 3.15654 6.66732 3.33335C6.66732 3.51016 6.59708 3.67973 6.47206 3.80476C6.34703 3.92978 6.17746 4.00002 6.00065 4.00002H3.33398C3.15717 4.00002 2.9876 4.07026 2.86258 4.19528C2.73756 4.32031 2.66732 4.48988 2.66732 4.66669V12.6667C2.66732 12.8435 2.73756 13.0131 2.86258 13.1381C2.9876 13.2631 3.15717 13.3334 3.33398 13.3334H11.334C11.5108 13.3334 11.6804 13.2631 11.8054 13.1381C11.9304 13.0131 12.0007 12.8435 12.0007 12.6667V10C12.0007 9.82321 12.0709 9.65364 12.1959 9.52862C12.3209 9.40359 12.4905 9.33335 12.6673 9.33335C12.8441 9.33335 13.0137 9.40359 13.1387 9.52862C13.2637 9.65364 13.334 9.82321 13.334 10V12.6667C13.334 13.1971 13.1233 13.7058 12.7482 14.0809C12.3731 14.456 11.8644 14.6667 11.334 14.6667Z" fill="#1C1C1C" fill-opacity="0.56"/>
<path id="Vector_2" d="M9.73377 3.91333L6.43377 7.24666C6.38875 7.28681 6.35828 7.34072 6.3471 7.4L5.68043 9.94666C5.66428 10.0028 5.66382 10.0623 5.6791 10.1188C5.69437 10.1752 5.72481 10.2263 5.7671 10.2667C5.79961 10.2927 5.83699 10.3121 5.87705 10.3235C5.91712 10.3349 5.95906 10.3383 6.00043 10.3333C6.02902 10.3393 6.05852 10.3393 6.0871 10.3333L8.63377 9.66666C8.69304 9.65548 8.74695 9.62501 8.7871 9.58L12.0871 6.26666L9.73377 3.91333Z" fill="#1C1C1C" fill-opacity="0.56"/>
<path id="Vector_3" d="M13.9993 2.96665L13.0327 1.99998C12.8432 1.81391 12.5882 1.70966 12.3227 1.70966C12.0571 1.70966 11.8022 1.81391 11.6127 1.99998L10.666 2.96665L13.0327 5.33331L13.9993 4.38665C14.1854 4.19716 14.2897 3.94221 14.2897 3.67665C14.2897 3.41108 14.1854 3.15613 13.9993 2.96665Z" fill="#1C1C1C" fill-opacity="0.56"/>
</g>
</svg>
