<svg width="20" height="20" viewBox="0 0 20 20" fill="none" xmlns="http://www.w3.org/2000/svg">
<path d="M6.45637 15.7576V14.6388H9.48137V17.7667V17.8167H9.53137H10.4689H10.5189V17.7667V14.6385H13.5439V15.7576V15.7576C13.5442 16.0609 13.6648 16.3516 13.8792 16.566C14.0936 16.7804 14.3843 16.901 14.6876 16.9013H14.6876H15.9376C15.9658 16.9013 15.9928 16.9125 16.0128 16.9325C16.0327 16.9524 16.0439 16.9794 16.0439 17.0076V18.4585V18.5085H16.0939H17.0314H17.0814V18.4585V17.0076V17.0075C17.081 16.7043 16.9604 16.4136 16.746 16.1992C16.5316 15.9848 16.2409 15.8642 15.9377 15.8638H15.9376H14.6876C14.6594 15.8638 14.6324 15.8526 14.6125 15.8327C14.5926 15.8128 14.5814 15.7858 14.5814 15.7576V14.6321C15.677 14.5947 16.7192 14.1467 17.5006 13.3761C18.2936 12.594 18.758 11.5387 18.7989 10.4257C18.8399 9.3127 18.4543 8.22607 17.721 7.38783C16.9967 6.55993 15.9872 6.03635 14.8944 5.92012C14.7738 4.71402 14.212 3.59433 13.316 2.77654C12.4099 1.94947 11.2274 1.49089 10.0006 1.49077C8.77372 1.49065 7.59113 1.94901 6.68483 2.7759C5.78869 3.59352 5.22666 4.7131 5.10583 5.91918C4.01293 6.03542 3.00336 6.55934 2.27903 7.3873C1.54565 8.2256 1.16004 9.31231 1.20101 10.4254C1.24197 11.5385 1.70641 12.5939 2.49943 13.376C3.28084 14.1467 4.32318 14.5947 5.41887 14.6321V15.7576C5.41887 15.7858 5.40768 15.8128 5.38775 15.8327C5.36783 15.8526 5.3408 15.8638 5.31262 15.8638H4.06262H4.06257C3.75935 15.8642 3.46865 15.9848 3.25424 16.1992C3.03983 16.4136 2.91922 16.7043 2.91887 17.0075V17.0076V18.4585V18.5085H2.96887H3.90637H3.95637V18.4585V17.0076C3.95637 16.9794 3.96757 16.9524 3.98749 16.9325C4.00742 16.9125 4.03444 16.9013 4.06262 16.9013H5.31262H5.31268C5.6159 16.901 5.9066 16.7804 6.12101 16.566C6.33542 16.3516 6.45603 16.0609 6.45637 15.7576V15.7576ZM16.7866 12.6247L16.7866 12.6248C16.4776 12.9354 16.1101 13.1816 15.7053 13.3492C15.3005 13.5167 14.8665 13.6024 14.4284 13.601H14.4282H5.572C4.72305 13.6012 3.90601 13.2775 3.28746 12.6961C2.6689 12.1146 2.2954 11.3191 2.2431 10.4718C2.1908 9.62445 2.46364 8.78907 3.00599 8.13595C3.53748 7.49592 4.28859 7.07814 5.11137 6.96354C5.169 7.48658 5.31122 7.99691 5.53257 8.47455L5.55357 8.51986L5.5989 8.49892L6.45015 8.1058L6.49558 8.08482L6.47456 8.0394C6.23881 7.52993 6.1174 6.97503 6.11887 6.41366V6.41353C6.11887 5.38416 6.52779 4.39695 7.25567 3.66907C7.98354 2.94119 8.97075 2.53228 10.0001 2.53228C11.0295 2.53228 12.0167 2.94119 12.7446 3.66907C13.4725 4.39695 13.8814 5.38416 13.8814 6.41353C13.8813 6.54723 13.9329 6.67579 14.0254 6.77238C14.1179 6.86897 14.2441 6.92612 14.3776 6.93192L14.3777 6.93192L14.7498 6.94749C15.3786 7.00856 15.9771 7.24694 16.4756 7.63491C16.9746 8.02315 17.3529 8.5452 17.5665 9.14022C17.7801 9.73523 17.8202 10.3787 17.6821 10.9956C17.5441 11.6126 17.2335 12.1776 16.7866 12.6247Z" fill="white" stroke="white" stroke-width="0.1"/>
<path d="M12.8125 9.3167H12.0023C11.9037 8.9659 11.7148 8.64683 11.4542 8.3915C11.1938 8.13637 10.8712 7.95412 10.5187 7.86264V7.02295V6.97295H10.4688H9.53125H9.48125V7.02295V7.86264C9.12882 7.95412 8.80624 8.13637 8.54582 8.3915C8.28521 8.64683 8.09631 8.9659 7.99769 9.3167H7.1875H7.1375V9.3667V10.3042V10.3542H7.1875H7.97513C8.06296 10.7224 8.2494 11.06 8.51478 11.3307C8.78035 11.6015 9.11454 11.7946 9.48125 11.8895V12.6479V12.6979H9.53125H10.4688H10.5187V12.6479V11.8895C10.8855 11.7946 11.2197 11.6015 11.4852 11.3307C11.7506 11.06 11.937 10.7224 12.0249 10.3542H12.8125H12.8625V10.3042V9.3667V9.3167H12.8125ZM9.99994 10.9198C9.79353 10.9198 9.59175 10.8586 9.42012 10.7439C9.24848 10.6292 9.1147 10.4662 9.0357 10.2755C8.9567 10.0848 8.93603 9.87492 8.97631 9.67245C9.01658 9.46998 9.11599 9.284 9.26196 9.13803C9.40793 8.99206 9.59391 8.89265 9.79637 8.85238C9.99884 8.81211 10.2087 8.83278 10.3994 8.91177C10.5901 8.99077 10.7532 9.12455 10.8678 9.2962C10.9825 9.46783 11.0437 9.6696 11.0438 9.87602C11.0434 10.1528 10.9334 10.4181 10.7377 10.6138C10.542 10.8094 10.2767 10.9195 9.99994 10.9198Z" fill="white" stroke="white" stroke-width="0.1"/>
</svg>
