<svg width="31" height="30" viewBox="0 0 31 30" fill="none" xmlns="http://www.w3.org/2000/svg">
<path d="M10.3757 16.7058H5.9835C5.57921 16.7058 5.25146 17.0336 5.25146 17.4378V24.7582C5.25146 25.1625 5.57921 25.4902 5.9835 25.4902H10.3757C10.78 25.4902 11.1077 25.1625 11.1077 24.7582V17.4378C11.1077 17.0336 10.78 16.7058 10.3757 16.7058Z" fill="#3E6BF7"/>
<path d="M25.0163 10.8496H20.6241C20.2198 10.8496 19.8921 11.1774 19.8921 11.5816V24.7583C19.8921 25.1626 20.2198 25.4903 20.6241 25.4903H25.0163C25.4206 25.4903 25.7484 25.1626 25.7484 24.7583V11.5816C25.7484 11.1774 25.4206 10.8496 25.0163 10.8496Z" fill="#3E6BF7"/>
<path d="M17.696 4.99316H13.3038C12.8995 4.99316 12.5718 5.32091 12.5718 5.7252V24.7581C12.5718 25.1624 12.8995 25.4901 13.3038 25.4901H17.696C18.1003 25.4901 18.4281 25.1624 18.4281 24.7581V5.7252C18.4281 5.32091 18.1003 4.99316 17.696 4.99316Z" fill="#3E6BF7"/>
</svg>
