<svg width="20" height="20" viewBox="0 0 20 20" fill="none" xmlns="http://www.w3.org/2000/svg">
<path d="M3.35033 4.97508C2.29199 6.37508 1.66699 8.11675 1.66699 10.0001C1.66699 14.6001 5.40033 18.3334 10.0003 18.3334C14.6003 18.3334 18.3337 14.6001 18.3337 10.0001C18.3337 5.40008 14.6003 1.66675 10.0003 1.66675" stroke="white" stroke-width="1.3" stroke-linecap="round" stroke-linejoin="round"/>
<path d="M4.16699 10.0001C4.16699 13.2251 6.77533 15.8334 10.0003 15.8334C13.2253 15.8334 15.8337 13.2251 15.8337 10.0001C15.8337 6.77508 13.2253 4.16675 10.0003 4.16675" stroke="white" stroke-width="1.3" stroke-linecap="round" stroke-linejoin="round"/>
<path d="M10 13.3334C11.8417 13.3334 13.3333 11.8417 13.3333 10.0001C13.3333 8.15841 11.8417 6.66675 10 6.66675" stroke="white" stroke-width="1.3" stroke-linecap="round" stroke-linejoin="round"/>
</svg>
