<?xml version="1.0" standalone="no"?>
<!DOCTYPE svg PUBLIC "-//W3C//DTD SVG 20010904//EN"
 "http://www.w3.org/TR/2001/REC-SVG-20010904/DTD/svg10.dtd">
<svg version="1.0" xmlns="http://www.w3.org/2000/svg"
 width="1067.000000pt" height="594.000000pt" viewBox="0 0 1067.000000 594.000000"
 preserveAspectRatio="xMidYMid meet">

<g transform="translate(0.000000,594.000000) scale(0.100000,-0.100000)"
fill="rgb(7,41,119)" stroke="none">
<path d="M0 2970 l0 -2970 5335 0 5335 0 0 2970 0 2970 -5335 0 -5335 0 0
-2970z m1530 2265 l0 -35 -85 0 -85 0 -2 -232 -3 -233 -37 -3 -38 -3 0 235 0
236 -85 0 -85 0 0 35 0 35 210 0 210 0 0 -35z m160 -236 l0 -270 -37 3 -38 3
-3 268 -2 267 40 0 40 0 0 -271z m506 239 l-1 -33 -87 -3 -88 -3 0 -234 0
-235 -35 0 c-21 0 -35 5 -36 13 0 6 0 112 1 235 l1 222 -90 0 -91 0 0 35 0 35
213 0 213 0 0 -32z m144 -203 l0 -235 130 0 130 0 0 -35 0 -35 -170 0 -170 0
0 270 0 270 40 0 40 0 0 -235z m730 200 l0 -35 -155 0 -155 0 0 -80 0 -80 145
0 145 0 0 -30 0 -30 -145 0 -145 0 0 -90 0 -90 160 0 160 0 0 -35 0 -35 -200
0 -200 0 0 270 0 270 195 0 195 0 0 -35z m390 -75 l0 -111 138 3 137 3 3 108
3 107 34 0 35 0 0 -270 0 -270 -35 0 -34 0 -3 123 -3 122 -137 3 -138 3 0
-126 0 -125 -35 0 -35 0 0 270 0 270 35 0 35 0 0 -110z m855 75 l0 -30 -157
-3 -158 -3 0 -79 0 -80 145 0 145 0 0 -30 0 -30 -145 0 -145 0 0 -90 0 -90
165 0 165 0 0 -35 0 -35 -202 2 -203 3 -3 268 -2 267 197 -2 198 -3 0 -30z
m438 -225 c59 -142 107 -264 107 -270 0 -5 -17 -10 -38 -10 l-39 0 -30 78 -30
77 -113 0 -113 0 -29 -77 c-29 -76 -30 -78 -64 -78 -21 0 -34 5 -34 13 0 11
184 500 196 518 3 5 22 9 43 9 l38 0 106 -260z m505 228 c22 -15 54 -49 69
-75 26 -45 28 -55 28 -158 0 -102 -2 -114 -28 -160 -50 -91 -110 -114 -294
-115 l-113 0 0 271 0 271 148 -4 c142 -3 150 -4 190 -30z m272 -203 l0 -235
130 0 130 0 0 -35 0 -35 -167 2 -168 3 -1 260 c0 143 1 263 3 268 2 4 20 7 39
7 l34 0 0 -235z m430 -36 l0 -270 -37 3 -38 3 -3 268 -2 267 40 0 40 0 0 -271z
m330 70 l135 -202 3 202 2 201 35 0 35 0 0 -271 0 -270 -37 3 c-36 3 -40 7
-173 205 l-135 202 -3 -205 -2 -204 -35 0 -35 0 0 270 0 270 38 0 37 0 135
-201z m720 166 l0 -35 -160 0 -161 0 3 -77 3 -78 148 -3 147 -3 0 -29 0 -29
-147 -3 -148 -3 -3 -87 -3 -88 166 0 165 0 0 -35 0 -35 -200 0 -200 0 0 270 0
270 195 0 195 0 0 -35z m-5747 -2200 l-3 -95 55 0 c42 0 55 -3 55 -15 0 -12
-14 -15 -70 -15 l-70 0 0 110 c0 98 2 110 18 110 15 0 17 -10 15 -95z m937 80
c0 -8 -7 -15 -15 -15 -8 0 -15 7 -15 15 0 8 7 15 15 15 8 0 15 -7 15 -15z
m990 -95 l0 -110 -53 0 c-48 0 -54 3 -70 29 -41 70 3 146 73 128 17 -4 20 0
20 29 0 24 5 34 15 34 12 0 15 -19 15 -110z m240 0 c0 -91 -3 -110 -15 -110
-12 0 -15 19 -15 110 0 91 3 110 15 110 12 0 15 -19 15 -110z m570 90 c0 -11
-7 -20 -15 -20 -8 0 -15 9 -15 20 0 11 7 20 15 20 8 0 15 -9 15 -20z m2056
-40 c8 0 14 -4 14 -10 0 -5 -7 -10 -15 -10 -12 0 -15 -13 -15 -55 0 -42 3 -55
15 -55 8 0 15 -7 15 -15 0 -10 -10 -15 -30 -15 l-30 0 0 63 c0 37 -5 69 -12
76 -10 11 -10 14 0 18 6 3 12 12 12 22 0 9 6 23 13 30 10 10 13 6 15 -18 2
-19 9 -31 18 -31z m-1986 25 c0 -16 6 -25 15 -25 8 0 15 -4 15 -9 0 -5 -7 -11
-15 -15 -11 -4 -15 -20 -15 -56 0 -38 4 -50 15 -50 8 0 15 -7 15 -16 0 -11 -8
-14 -27 -12 -27 3 -28 5 -31 68 -2 35 -8 68 -15 73 -9 7 -9 10 1 14 6 2 12 13
12 22 0 10 3 21 7 24 13 14 23 6 23 -18z m760 0 c0 -16 6 -25 15 -25 8 0 15
-7 15 -15 0 -8 -7 -15 -15 -15 -11 0 -15 -12 -15 -50 0 -38 4 -50 15 -50 8 0
15 -7 15 -15 0 -10 -10 -15 -29 -15 -25 0 -29 4 -34 36 -3 20 -3 49 0 65 3 18
1 29 -6 29 -6 0 -11 7 -11 15 0 8 5 15 10 15 6 0 10 11 10 25 0 16 6 25 15 25
9 0 15 -9 15 -25z m-1892 -114 c2 -59 0 -71 -13 -71 -12 0 -15 13 -15 65 0 49
-4 67 -15 71 -29 12 -45 -16 -45 -77 0 -46 -3 -59 -15 -59 -12 0 -15 13 -15
59 0 66 -18 94 -45 71 -10 -8 -15 -31 -15 -71 0 -46 -3 -59 -15 -59 -12 0 -15
15 -15 78 l0 78 49 2 c28 1 52 -2 56 -7 3 -6 17 -4 32 4 23 12 31 12 48 1 16
-11 21 -26 23 -85z m644 72 c23 -21 31 -64 18 -99 -14 -36 -26 -44 -71 -44
-43 0 -65 21 -74 72 -6 33 -4 41 24 69 26 25 37 30 59 24 15 -3 35 -13 44 -22z
m138 1 c0 -8 -10 -14 -24 -14 -19 0 -24 -6 -30 -37 -3 -21 -6 -50 -6 -65 0
-18 -5 -28 -15 -28 -12 0 -15 16 -15 81 0 75 2 81 19 76 10 -2 25 -1 31 3 17
11 40 1 40 -16z m185 16 c8 0 19 -10 26 -21 16 -31 -9 -44 -31 -17 -12 15 -22
19 -39 13 -18 -5 -20 -9 -10 -21 6 -8 17 -14 25 -14 33 0 64 -24 64 -50 0 -37
-17 -50 -65 -50 -42 0 -65 13 -65 37 0 18 20 16 41 -3 11 -10 25 -13 38 -9 35
11 24 30 -24 43 -34 9 -46 18 -51 36 -3 14 -3 30 1 36 10 15 47 30 63 24 8 -2
20 -4 27 -4z m95 -81 c0 -64 -3 -79 -15 -79 -12 0 -15 15 -15 78 0 43 3 82 6
85 17 16 24 -10 24 -84z m328 63 c7 -9 12 -44 12 -80 0 -60 -1 -64 -21 -59
-12 3 -31 1 -43 -4 -28 -13 -72 3 -79 30 -8 31 19 58 63 66 25 4 40 12 40 21
0 24 -27 27 -59 8 -35 -21 -47 -15 -32 14 18 34 93 36 119 4z m190 17 c62 3
72 -9 72 -90 0 -55 -3 -69 -15 -69 -12 0 -15 13 -15 58 0 65 -13 87 -42 71
-14 -8 -18 -22 -18 -69 0 -53 -2 -60 -19 -60 -17 0 -19 7 -18 59 2 68 -9 88
-38 67 -13 -9 -20 -28 -21 -57 -1 -24 -2 -50 -3 -56 -1 -7 -8 -13 -16 -13 -12
0 -15 16 -15 81 0 76 1 81 20 76 11 -3 23 -1 26 5 4 5 17 6 33 2 14 -4 46 -6
69 -5z m224 -18 c10 -9 19 -27 20 -41 3 -24 0 -25 -54 -28 -61 -3 -69 -10 -42
-36 19 -20 24 -20 52 0 12 8 30 14 40 12 15 -3 13 -7 -10 -31 -22 -22 -33 -26
-60 -21 -45 9 -68 33 -70 75 -3 83 69 124 124 70z m416 6 c15 -12 16 -37 0
-37 -6 0 -19 7 -28 15 -34 31 -70 -13 -56 -69 9 -37 66 -46 66 -10 0 8 9 14
20 14 25 0 25 -11 2 -41 -23 -28 -73 -30 -102 -4 -26 24 -28 105 -2 127 29 27
69 29 100 5z m129 13 c17 -6 35 -22 42 -36 33 -74 -18 -143 -92 -123 -16 4
-34 6 -40 5 -7 -1 -9 -1 -6 1 4 2 3 20 -1 39 -13 56 4 98 45 114 11 5 20 9 21
9 1 1 15 -4 31 -9z m201 -18 c6 -9 12 -44 12 -79 0 -56 -2 -63 -20 -63 -18 0
-20 7 -20 58 0 65 -13 87 -42 71 -14 -8 -18 -22 -18 -69 0 -53 -2 -60 -20 -60
-18 0 -20 7 -20 79 l0 80 30 -1 c17 -1 33 2 37 6 10 9 46 -4 61 -22z m149 7
c16 -14 17 -39 1 -39 -6 0 -19 7 -29 16 -18 17 -49 13 -49 -5 0 -6 18 -16 40
-22 48 -15 63 -30 58 -61 -4 -29 -37 -45 -83 -40 -40 5 -68 38 -44 53 9 5 18
3 24 -5 18 -24 65 -25 65 -1 0 8 -14 17 -35 21 -59 11 -77 59 -36 92 17 14 65
9 88 -9z m148 11 c15 0 49 -66 40 -80 -3 -6 -31 -10 -61 -10 -56 0 -65 -8 -38
-34 20 -21 29 -20 51 3 25 27 50 13 34 -18 -7 -11 -17 -21 -24 -22 -7 0 -22
-2 -34 -3 -34 -4 -76 28 -79 61 -8 64 38 122 84 107 8 -2 20 -4 27 -4z m183
-12 c15 -13 16 -38 0 -38 -6 0 -19 6 -27 14 -11 9 -23 11 -38 5 -33 -12 -33
-83 -1 -100 18 -10 24 -8 39 10 22 27 41 27 37 -1 -7 -51 -98 -57 -123 -7 -46
88 38 176 113 117z m222 5 c26 -15 40 -39 40 -70 0 -8 -22 -13 -61 -15 l-61
-3 20 -25 20 -25 30 22 c36 26 59 17 36 -15 -12 -17 -25 -22 -63 -22 -42 0
-49 3 -59 25 -27 58 -6 129 41 138 12 2 24 5 25 6 2 0 17 -7 32 -16z m-4680
-3 c11 -6 22 -26 26 -44 12 -64 -17 -106 -72 -106 -47 0 -74 29 -74 80 0 66
61 102 120 70z m140 -4 c0 -8 -10 -16 -22 -18 -20 -3 -23 -10 -26 -58 -3 -57
-17 -85 -31 -62 -5 8 -7 140 -2 148 1 0 19 1 41 2 29 1 40 -2 40 -12z m133 -4
c9 -10 18 -29 19 -43 3 -23 0 -24 -54 -27 -61 -3 -69 -10 -42 -36 19 -20 38
-20 54 -1 16 19 40 19 40 0 0 -20 -32 -35 -74 -35 -43 0 -66 28 -66 80 0 53
23 80 69 80 24 0 44 -7 54 -18z m163 7 c8 -7 14 -7 19 1 9 14 58 13 73 -2 7
-7 12 -40 12 -80 0 -54 -3 -68 -15 -68 -12 0 -15 14 -15 65 0 49 -4 67 -15 71
-29 12 -45 -16 -45 -77 0 -46 -3 -59 -15 -59 -12 0 -15 13 -15 59 0 40 -5 63
-15 71 -27 23 -45 -5 -45 -71 0 -46 -3 -59 -15 -59 -12 0 -15 14 -16 60 -1 33
-2 66 -3 73 -1 6 -1 14 0 17 5 10 97 10 110 -1z m254 -69 c0 -64 -3 -80 -15
-80 -12 0 -15 16 -15 80 0 64 3 80 15 80 12 0 15 -16 15 -80z m154 64 c24 -23
29 -59 16 -98 -12 -38 -41 -53 -80 -43 -17 4 -20 0 -20 -29 0 -24 -5 -34 -15
-34 -12 0 -15 19 -15 109 l0 108 49 2 c33 0 55 -5 65 -15z m160 -6 c15 -25 -1
-34 -23 -14 -22 20 -56 18 -56 -4 0 -7 16 -18 35 -23 43 -11 60 -24 60 -48 0
-28 -28 -49 -69 -49 -38 0 -61 14 -61 37 0 17 18 16 36 -2 17 -17 33 -19 53
-6 20 13 5 29 -39 41 -44 12 -63 48 -39 76 17 20 88 15 103 -8z m76 -42 c0
-49 4 -65 16 -70 21 -8 20 -8 38 10 11 10 16 34 16 70 0 41 4 54 15 54 12 0
15 -15 15 -78 l0 -79 -52 -1 c-29 0 -58 4 -65 10 -20 16 -18 148 2 148 12 0
15 -14 15 -64z m764 42 c23 -32 20 -94 -4 -118 -29 -29 -94 -27 -114 2 -23 32
-20 94 4 118 29 29 94 27 114 -2z m1562 -113 c9 -23 -5 -65 -22 -65 -11 0 -12
4 -4 19 7 14 7 20 -2 23 -14 5 -3 38 12 38 6 0 13 -7 16 -15z m-2951 -277 l1
-106 -41 -6 c-59 -8 -89 17 -93 79 -4 61 18 88 65 83 30 -4 33 -2 33 22 0 29
8 42 24 37 6 -2 10 -47 11 -109z m65 91 c0 -24 -23 -21 -28 4 -2 10 3 17 12
17 10 0 16 -9 16 -21z m240 1 c0 -11 -7 -20 -15 -20 -8 0 -15 9 -15 20 0 11 7
20 15 20 8 0 15 -9 15 -20z m370 0 c0 -11 -7 -20 -15 -20 -8 0 -15 9 -15 20 0
11 7 20 15 20 8 0 15 -9 15 -20z m650 -90 c0 -91 -3 -110 -15 -110 -12 0 -15
19 -15 110 0 91 3 110 15 110 12 0 15 -19 15 -110z m70 90 c0 -11 -7 -20 -15
-20 -8 0 -15 9 -15 20 0 11 7 20 15 20 8 0 15 -9 15 -20z m740 -90 c0 -87 -3
-110 -14 -110 -7 0 -27 -3 -44 -6 -44 -9 -82 30 -82 84 0 51 29 82 75 82 32 0
35 2 35 30 0 20 5 30 15 30 12 0 15 -19 15 -110z m252 18 c0 -51 1 -101 2
-111 1 -15 -8 -20 -46 -23 -60 -4 -87 16 -95 71 -7 57 26 99 73 93 33 -4 34
-3 34 29 0 23 5 33 15 33 12 0 15 -18 17 -92z m488 72 c0 -11 -7 -20 -15 -20
-8 0 -15 9 -15 20 0 11 7 20 15 20 8 0 15 -9 15 -20z m910 -94 c0 -92 -3 -115
-15 -120 -8 -3 -15 -1 -15 4 0 5 -15 6 -34 3 -47 -7 -76 25 -76 84 0 57 28 87
76 81 20 -2 33 0 33 7 -4 32 3 55 16 55 12 0 15 -19 15 -114z m1180 94 c0 -13
-7 -20 -20 -20 -19 0 -27 20 -13 33 13 14 33 6 33 -13z m390 16 c0 -2 -3 -11
-6 -20 -9 -23 -34 -20 -34 4 0 13 7 20 20 20 11 0 20 -2 20 -4z m158 -107 l-3
-111 -39 -4 c-38 -3 -74 9 -88 30 -4 6 -8 30 -8 54 0 56 28 86 76 80 33 -4 34
-3 34 29 0 23 5 33 15 33 13 0 15 -17 13 -111z m72 91 c0 -11 -7 -20 -15 -20
-8 0 -15 9 -15 20 0 11 7 20 15 20 8 0 15 -9 15 -20z m-6287 -20 c-4 -14 0
-20 11 -20 9 0 16 -7 16 -15 0 -8 -6 -15 -14 -15 -19 0 -15 -98 5 -111 12 -8
12 -10 0 -18 -34 -22 -55 17 -44 82 4 30 2 41 -13 52 -18 13 -18 14 -1 20 9 4
17 15 17 24 0 10 3 21 6 24 12 12 22 -3 17 -23z m2167 5 c0 -16 6 -25 15 -25
8 0 15 -7 15 -15 0 -8 -7 -15 -15 -15 -11 0 -15 -12 -15 -49 0 -34 4 -51 15
-55 19 -7 20 -36 1 -36 -29 0 -46 30 -46 84 0 28 -6 58 -12 65 -10 11 -10 14
0 18 6 3 12 13 12 22 0 10 3 21 7 24 13 14 23 6 23 -18z m2480 0 c0 -14 5 -25
10 -25 6 0 10 -7 10 -15 0 -8 -4 -15 -10 -15 -17 0 -12 -90 6 -107 23 -23 2
-40 -31 -25 -23 10 -25 17 -25 70 0 33 -5 64 -12 71 -10 11 -10 14 0 18 6 3
12 13 12 23 0 17 12 27 33 29 4 1 7 -10 7 -24z m-900 -105 c0 -73 -10 -105
-25 -81 -4 7 -15 6 -30 -1 -33 -15 -75 3 -75 32 0 11 -5 20 -12 20 -9 0 -9 3
0 12 7 7 12 31 12 55 0 31 4 43 15 43 11 0 15 -16 17 -67 3 -70 14 -85 47 -64
18 12 28 111 11 111 -10 0 -10 3 0 14 6 8 18 12 26 9 10 -4 14 -25 14 -83z
m-3670 21 c0 -64 15 -87 49 -76 17 5 21 16 23 67 4 89 25 88 30 -2 3 -80 2
-86 -27 -87 -11 -1 -30 -4 -42 -8 -15 -5 -27 -1 -42 14 -17 17 -21 33 -21 86
0 51 3 65 15 65 12 0 15 -13 15 -59z m230 44 c0 -8 -8 -15 -18 -15 -30 0 -42
-22 -42 -77 0 -40 -4 -53 -15 -53 -12 0 -15 15 -15 79 l0 78 45 1 c33 1 45 -3
45 -13z m214 -1 c11 -11 16 -35 16 -80 0 -56 -2 -65 -17 -63 -10 2 -32 -1 -50
-5 -44 -10 -73 7 -73 44 0 32 22 50 62 50 13 0 30 5 38 10 13 9 13 12 -3 25
-19 13 -46 10 -58 -8 -4 -5 -15 -7 -25 -5 -18 3 -17 5 4 26 26 26 83 30 106 6z
m246 -64 c0 -64 -3 -80 -15 -80 -12 0 -15 15 -15 73 0 41 3 77 7 80 17 18 23
0 23 -73z m158 57 c28 -26 30 -85 3 -118 -13 -17 -28 -23 -55 -22 -33 1 -36
-1 -36 -28 0 -19 -5 -29 -15 -29 -12 0 -15 19 -15 108 l0 109 48 1 c35 0 53
-5 70 -21z m82 -57 c0 -64 -3 -80 -15 -80 -12 0 -15 16 -15 80 0 64 3 80 15
80 12 0 15 -16 15 -80z m131 70 c23 -13 26 -40 4 -40 -8 0 -15 5 -15 10 0 6
-14 10 -31 10 -43 0 -32 -21 20 -38 48 -16 59 -33 43 -67 -14 -31 -65 -42 -97
-21 -27 18 -34 46 -11 46 8 0 17 -7 20 -16 4 -10 15 -14 33 -12 40 4 35 30 -7
43 -50 14 -60 23 -60 50 0 39 56 58 101 35z m170 -11 c17 -17 19 -23 8 -30 -9
-5 -18 -4 -24 4 -30 39 -75 15 -75 -39 0 -52 47 -74 72 -34 15 23 38 27 38 6
0 -19 -48 -56 -72 -56 -34 0 -68 45 -68 90 0 72 72 108 121 59z m69 -59 c0
-64 -3 -80 -15 -80 -12 0 -15 16 -15 80 0 64 3 80 15 80 12 0 15 -16 15 -80z
m150 70 c10 -6 16 -32 18 -79 4 -60 2 -71 -12 -71 -13 0 -16 11 -16 53 0 63
-10 80 -41 75 -22 -3 -24 -8 -27 -65 -2 -47 -7 -63 -17 -63 -8 0 -16 8 -16 18
-4 55 -6 128 -4 132 6 10 100 10 115 0z m186 -75 c1 -44 -2 -90 -7 -102 -18
-48 -95 -55 -123 -11 -15 25 1 34 23 14 25 -23 65 -17 69 10 2 17 -2 20 -30
16 -44 -5 -73 25 -73 78 0 59 26 81 89 77 l51 -3 1 -79z m236 68 c8 -10 18
-30 22 -45 l6 -28 -61 0 c-51 0 -60 -3 -57 -16 7 -37 39 -41 80 -12 9 7 20 9
25 5 13 -13 -13 -41 -46 -51 -26 -7 -37 -5 -59 11 -37 27 -44 101 -13 132 26
26 82 28 103 4z m148 -63 c0 -64 -3 -80 -15 -80 -12 0 -15 16 -15 80 0 64 3
80 15 80 12 0 15 -16 15 -80z m394 64 c9 -8 16 -20 16 -25 0 -12 -27 -12 -35
1 -3 6 -17 10 -31 10 -35 0 -30 -26 8 -34 40 -8 58 -23 58 -50 0 -33 -14 -46
-52 -52 -28 -5 -40 -2 -57 15 -11 11 -21 26 -21 31 0 15 26 12 40 -5 16 -19
55 -16 55 4 0 8 -19 21 -42 28 -48 16 -59 37 -38 69 18 29 75 33 99 8z m166
-6 c11 -12 20 -32 20 -45 0 -21 -4 -23 -55 -23 -38 0 -55 -4 -55 -13 0 -33 55
-51 66 -22 6 15 44 21 44 7 0 -5 -6 -17 -14 -27 -19 -26 -89 -27 -113 -2 -25
25 -24 98 1 126 26 28 79 28 106 -1z m590 0 c31 -33 28 -100 -6 -127 -35 -28
-69 -26 -99 4 -33 32 -34 89 -3 122 28 30 80 31 108 1z m250 2 c22 -22 27 -69
8 -71 -7 0 -32 0 -55 1 -31 1 -43 -2 -43 -12 0 -35 47 -50 70 -23 14 17 40 20
40 5 0 -20 -41 -50 -69 -50 -67 0 -105 87 -61 143 27 34 80 37 110 7z m81 -32
c0 -29 2 -61 4 -72 5 -26 -3 -43 -23 -48 -15 -4 -17 5 -14 84 3 68 7 88 18 88
10 0 14 -14 15 -52z m307 40 c17 -17 15 -38 -3 -38 -8 0 -15 5 -15 11 0 13
-50 8 -51 -6 0 -5 14 -14 33 -20 48 -14 58 -23 58 -50 0 -27 -33 -55 -65 -55
-27 0 -65 27 -65 46 0 8 7 14 15 14 8 0 15 -4 15 -9 0 -16 40 -23 55 -11 20
16 12 26 -26 34 -41 8 -59 23 -59 50 0 32 19 46 60 46 20 0 41 -5 48 -12z
m158 1 c8 -7 14 -7 19 1 8 13 72 13 80 0 4 -6 11 -7 17 -4 7 5 8 2 2 -7 -4 -8
-9 -39 -11 -69 -1 -30 -2 -58 -2 -62 -1 -5 -8 -8 -16 -8 -12 0 -15 14 -15 65
0 62 -1 65 -24 65 -29 0 -36 -16 -36 -81 0 -37 -4 -49 -15 -49 -12 0 -15 13
-15 60 0 45 -4 62 -15 66 -28 11 -45 -16 -45 -72 0 -45 -3 -54 -18 -54 -15 0
-17 10 -16 78 1 42 2 78 3 78 6 7 98 1 107 -7z m264 -11 c29 -32 27 -92 -5
-123 -51 -51 -125 -13 -125 65 0 27 7 47 20 60 27 27 83 27 110 -2z m502 5
c21 -25 29 -61 15 -70 -7 -4 -32 -8 -56 -8 -51 0 -63 -15 -26 -35 21 -11 27
-11 43 3 23 21 42 22 42 3 0 -32 -63 -56 -105 -40 -43 17 -56 112 -19 149 21
21 87 19 106 -2z m270 -64 c-3 -56 -8 -79 -18 -83 -8 -3 -14 -2 -15 2 -1 4 -3
25 -5 47 -6 68 -10 80 -30 80 -16 0 -19 -8 -21 -59 -4 -105 -43 -104 -43 0 0
62 -1 65 -22 62 -25 -3 -35 -31 -37 -95 -1 -32 -4 -41 -15 -37 -11 4 -15 28
-18 84 l-3 79 115 -2 115 -1 -3 -77z m151 63 c28 -31 25 -99 -4 -131 -15 -16
-30 -22 -50 -19 -25 4 -28 1 -31 -26 -2 -20 -9 -31 -18 -31 -12 0 -16 20 -18
111 l-3 112 54 1 c40 0 59 -5 70 -17z m167 -2 c27 -27 28 -110 3 -131 -52 -44
-133 -4 -133 64 0 74 81 116 130 67z m140 0 c-6 -11 -19 -20 -30 -20 -19 0
-25 -18 -32 -93 -2 -15 -7 -29 -13 -30 -6 -1 -11 32 -13 79 l-3 81 51 2 c47 1
50 -1 40 -19z m130 -59 c0 -58 -4 -80 -14 -84 -23 -9 -26 2 -26 85 0 71 2 78
20 78 18 0 20 -7 20 -79z m148 66 c12 -14 19 -153 9 -149 -4 1 -11 2 -17 2 -5
0 -10 28 -12 62 -2 52 -6 63 -22 66 -28 6 -40 -14 -46 -76 -7 -84 -25 -70 -28
24 l-3 80 55 2 c32 1 58 -4 64 -11z m166 -3 c19 -18 20 -30 4 -40 -6 -4 -17 1
-24 10 -7 10 -22 16 -36 14 -20 -3 -23 -9 -23 -47 0 -57 26 -78 55 -43 22 27
40 28 40 3 0 -24 -36 -51 -66 -51 -61 0 -95 90 -54 143 25 31 78 37 104 11z
m66 -70 c0 -64 -3 -85 -12 -82 -9 3 -14 32 -16 86 -2 68 0 82 13 82 12 0 15
-15 15 -86z m238 4 c-2 -66 -6 -83 -18 -83 -12 0 -16 16 -17 70 -3 80 0 95 22
95 13 0 15 -13 13 -82z m112 -3 c0 -11 -12 -15 -45 -15 -33 0 -45 4 -45 15 0
11 12 15 45 15 33 0 45 -4 45 -15z m-4142 -77 c-4 -43 -23 -46 -25 -3 -1 25 3
35 13 35 11 0 14 -9 12 -32z m-2158 -257 l0 -108 -51 1 c-41 1 -55 6 -70 25
-45 55 -2 150 62 137 28 -5 29 -4 29 29 0 26 3 33 15 29 12 -5 15 -27 15 -113z
m910 -2 c0 -90 -3 -109 -15 -109 -12 0 -15 19 -15 108 0 60 3 112 6 115 18 17
24 -14 24 -114z m1360 2 l0 -108 -49 -2 c-43 0 -53 3 -70 26 -27 33 -27 83 1
118 18 23 27 26 55 22 31 -5 33 -4 33 22 0 15 3 31 6 34 18 17 24 -13 24 -112z
m235 3 c0 -90 -3 -109 -15 -109 -12 0 -16 19 -18 99 -3 107 1 130 21 123 8 -2
12 -34 12 -113z m1765 1 c0 -96 -3 -115 -15 -115 -12 0 -15 19 -15 115 0 96 3
115 15 115 12 0 15 -19 15 -115z m70 95 c0 -11 -7 -20 -15 -20 -8 0 -15 9 -15
20 0 11 7 20 15 20 8 0 15 -9 15 -20z m746 -69 c2 -70 5 -87 20 -98 17 -13 60
-10 74 4 3 2 7 44 10 91 4 68 8 87 20 87 12 0 16 -17 18 -86 2 -74 0 -89 -18
-112 -18 -23 -29 -27 -69 -27 -26 0 -55 6 -64 13 -20 14 -33 89 -29 165 3 44
6 53 20 50 14 -3 17 -17 18 -87z m714 69 c0 -11 -7 -20 -15 -20 -8 0 -15 9
-15 20 0 11 7 20 15 20 8 0 15 -9 15 -20z m670 -94 l0 -113 -46 -1 c-36 -1
-51 4 -70 23 -31 31 -32 82 -3 120 18 22 28 26 55 23 31 -4 34 -2 34 22 0 27
7 40 22 40 4 0 8 -51 8 -114z m-6044 51 c19 -11 18 -27 -1 -27 -12 0 -15 -13
-15 -55 0 -42 3 -55 15 -55 8 0 15 -7 15 -15 0 -16 -17 -19 -44 -9 -12 5 -16
21 -16 70 0 36 -4 64 -10 64 -5 0 -10 7 -10 15 0 8 5 15 10 15 6 0 10 9 10 19
0 27 24 33 28 7 2 -12 10 -25 18 -29z m324 22 c0 -10 5 -19 10 -19 6 0 10 -7
10 -15 0 -8 -4 -15 -10 -15 -5 0 -10 -25 -10 -55 0 -30 5 -55 10 -55 6 0 10
-7 10 -15 0 -8 -6 -15 -12 -15 -30 1 -39 18 -40 79 -1 33 -5 61 -10 61 -4 0
-8 7 -8 15 0 8 5 15 10 15 6 0 10 8 10 18 0 10 3 22 6 25 11 10 24 -3 24 -24z
m391 14 c1 -10 1 -23 0 -30 -1 -8 9 -10 33 -6 48 8 76 -22 76 -80 0 -63 -27
-88 -88 -84 l-47 3 -3 107 c-2 91 0 107 13 107 8 0 16 -8 16 -17z m869 -8 c0
-14 5 -25 10 -25 6 0 10 -7 10 -15 0 -8 -4 -15 -10 -15 -17 0 -12 -107 5 -114
26 -9 16 -27 -12 -24 -26 3 -28 6 -31 58 -1 30 -8 66 -15 79 -9 19 -9 25 1 28
6 3 12 13 12 22 0 10 3 21 7 24 13 14 23 6 23 -18z m3306 -25 c8 0 14 -7 14
-15 0 -8 -6 -15 -13 -15 -21 0 -22 -99 -2 -106 27 -11 18 -36 -12 -32 -27 3
-28 5 -31 71 -2 37 -7 67 -12 67 -6 0 -10 7 -10 15 0 8 5 15 10 15 6 0 10 9
10 19 0 28 24 32 28 4 2 -12 10 -23 18 -23z m231 3 c-4 -3 0 -14 8 -23 9 -10
17 -30 18 -46 2 -28 1 -29 -57 -34 -57 -5 -59 -6 -42 -22 21 -22 40 -23 56 -3
15 18 40 20 40 3 0 -24 -34 -48 -67 -48 -23 0 -42 8 -60 26 -21 22 -25 32 -20
66 7 50 24 69 74 78 53 11 57 11 50 3z m-5477 -74 c4 -53 8 -64 24 -67 29 -6
46 25 46 86 0 38 4 52 13 50 7 -3 13 -29 15 -73 3 -77 -3 -104 -20 -87 -8 8
-16 7 -29 -1 -12 -8 -27 -8 -46 -1 -27 9 -28 12 -31 88 -2 60 0 77 10 74 8 -3
15 -29 18 -69z m160 61 c0 -7 6 -7 19 0 58 31 94 -7 89 -96 -4 -80 -28 -87
-28 -7 0 69 -9 86 -41 81 -22 -3 -24 -9 -29 -67 -3 -39 -10 -66 -17 -69 -10
-3 -13 18 -13 82 0 51 4 86 10 86 6 0 10 -5 10 -10z m340 -47 c0 -71 9 -88 43
-79 24 6 26 11 29 68 2 38 8 63 16 66 9 3 12 -17 12 -80 l0 -83 -47 -2 c-68
-2 -83 14 -83 92 0 34 3 65 7 68 16 17 23 3 23 -50z m494 35 c11 -15 16 -45
16 -85 0 -57 -10 -78 -24 -54 -4 5 -18 5 -35 -2 -22 -8 -36 -8 -55 1 -53 24
-19 92 46 92 21 0 28 5 28 20 0 26 -47 28 -66 3 -10 -15 -15 -16 -26 -5 -11
11 -9 17 11 33 32 27 86 25 105 -3z m319 11 c31 -17 37 -28 37 -76 0 -46 -17
-69 -56 -79 -57 -14 -102 38 -89 103 10 53 60 77 108 52z m152 -9 c0 -8 -6
-14 -14 -12 -28 6 -41 -20 -41 -79 0 -46 -3 -59 -15 -59 -12 0 -15 16 -15 83
l0 83 43 0 c30 -1 42 -5 42 -16z m129 -1 c17 -13 26 -30 26 -48 0 -26 -2 -27
-55 -26 -46 0 -55 -2 -55 -17 0 -26 46 -35 71 -12 14 12 23 14 30 7 17 -17
-25 -53 -60 -53 -48 0 -76 31 -76 85 0 37 5 51 24 66 30 25 62 24 95 -2z m256
-1 c12 -14 20 -33 18 -48 -3 -23 -6 -25 -55 -23 -37 1 -53 -2 -53 -10 0 -34
65 -52 76 -22 8 19 34 20 34 1 0 -8 -10 -22 -22 -30 -68 -48 -145 17 -118 98
6 20 19 40 28 46 29 16 70 11 92 -12z m505 -3 c51 -51 18 -145 -51 -145 -49 0
-74 29 -74 85 0 80 72 114 125 60z m225 15 c38 -20 47 -105 14 -141 -22 -25
-75 -25 -105 0 -19 15 -24 29 -24 66 0 37 5 51 24 66 25 21 62 25 91 9z m150
-6 c0 -8 -11 -19 -24 -23 -28 -11 -36 -29 -36 -87 0 -32 -4 -44 -15 -44 -12 0
-15 16 -15 84 l0 83 45 1 c34 1 45 -3 45 -14z m130 -4 c11 -11 20 -33 20 -50
0 -30 -1 -30 -55 -30 -56 0 -65 -6 -43 -28 16 -16 43 -15 58 3 7 8 19 15 26
15 22 0 16 -27 -8 -44 -34 -24 -75 -20 -105 10 -22 22 -25 32 -20 67 10 70 81
103 127 57z m255 10 c6 0 22 2 38 6 45 11 57 -9 57 -92 0 -59 -3 -74 -15 -74
-12 0 -15 14 -15 64 0 50 -4 65 -16 70 -30 11 -44 -13 -44 -75 0 -43 -4 -59
-14 -59 -16 0 -28 49 -20 88 6 37 -10 61 -33 46 -14 -8 -19 -27 -21 -73 -3
-52 -6 -62 -20 -59 -14 3 -18 17 -20 72 -2 38 -1 75 2 81 4 11 36 12 121 5z
m249 -6 c22 -22 23 -154 1 -154 -8 0 -15 5 -15 10 0 7 -6 7 -19 0 -50 -26 -95
-3 -89 47 3 24 9 30 48 39 27 6 45 16 45 25 0 21 -34 23 -56 3 -16 -14 -22
-15 -32 -5 -9 10 -7 16 12 32 28 23 84 25 105 3z m187 -33 c8 -62 -6 -153 -27
-168 -22 -16 -86 -17 -102 -1 -12 12 -17 48 -7 48 3 0 17 -7 30 -16 28 -18 65
-11 65 13 0 13 -3 13 -26 -2 -15 -9 -24 -12 -20 -7 3 6 -3 13 -14 17 -30 9
-53 61 -45 101 8 45 38 65 95 61 45 -3 45 -3 51 -46z m150 28 c27 -27 24 -142
-3 -147 -16 -3 -18 5 -18 55 0 69 -9 88 -38 79 -18 -6 -22 -16 -24 -69 -2 -49
-6 -62 -20 -65 -16 -3 -18 6 -18 81 l0 84 51 1 c38 1 55 -4 70 -19z m167 9 c5
-7 12 -45 14 -83 l5 -71 -62 -2 c-69 -2 -89 10 -83 50 3 23 33 43 80 53 19 4
26 10 22 20 -8 19 -38 19 -58 0 -8 -8 -19 -15 -25 -15 -18 0 -12 38 7 49 24
15 88 13 100 -1z m250 4 c8 -5 15 -38 18 -83 l5 -75 -60 -2 c-64 -2 -91 13
-91 48 0 22 36 50 65 50 29 0 45 13 36 29 -11 17 -61 7 -61 -12 0 -7 -8 -13
-19 -13 -22 0 -17 34 7 54 18 14 80 16 100 4z m152 -77 c0 -69 -3 -85 -15 -85
-12 0 -15 16 -15 85 0 69 3 85 15 85 12 0 15 -16 15 -85z m172 21 c2 -34 2
-85 0 -114 -3 -44 -6 -53 -20 -50 -10 2 -18 14 -20 31 -3 23 -8 27 -36 27 -46
0 -69 29 -69 87 0 61 24 82 93 81 l48 -1 4 -61z m68 -6 c5 -61 6 -65 30 -65
24 0 25 3 28 68 3 59 5 67 23 67 18 0 20 -6 17 -82 l-3 -82 -52 -3 c-67 -4
-83 15 -83 105 0 55 2 63 18 60 13 -2 18 -17 22 -68z m247 58 c6 -7 13 -45 16
-84 l6 -71 -67 1 c-64 1 -67 2 -77 30 -8 24 -6 31 14 47 13 10 33 19 45 19 28
0 50 15 42 29 -10 16 -56 13 -62 -4 -9 -22 -34 -18 -34 5 0 34 95 56 117 28z
m899 -12 c22 -34 16 -139 -8 -144 -16 -3 -18 5 -18 62 0 68 -7 81 -40 71 -16
-5 -20 -17 -22 -68 -2 -49 -6 -62 -20 -65 -16 -3 -18 6 -18 80 l0 84 55 2 c48
1 57 -2 71 -22z m74 -61 c0 -69 -3 -85 -15 -85 -12 0 -15 16 -15 85 0 69 3 85
15 85 12 0 15 -16 15 -85z m145 75 c4 -7 13 -7 25 0 57 31 93 -8 88 -96 -2
-47 -7 -60 -20 -62 -16 -3 -18 5 -18 63 0 50 -4 67 -16 72 -25 9 -37 -13 -42
-77 -3 -42 -8 -60 -18 -60 -11 0 -14 16 -14 65 0 49 -4 67 -15 71 -29 12 -45
-16 -45 -78 0 -50 -3 -59 -17 -56 -13 2 -16 14 -16 63 1 110 -3 102 53 104 27
0 52 -4 55 -9z m349 -12 c10 -14 16 -44 16 -83 l0 -61 -59 -2 c-43 -1 -64 3
-75 14 -33 32 -8 74 50 83 25 4 39 12 39 21 0 21 -46 26 -57 6 -11 -20 -38
-21 -38 -2 0 44 98 62 124 24z m-1374 -112 c0 -2 3 -11 6 -20 4 -12 0 -16 -15
-16 -14 0 -21 6 -21 20 0 11 7 20 15 20 8 0 15 -2 15 -4z m-980 -100 c0 -2 -8
-10 -17 -17 -16 -13 -17 -12 -4 4 13 16 21 21 21 13z m870 -92 c0 -19 -5 -25
-17 -22 -22 4 -30 38 -12 49 19 11 29 2 29 -27z m-4660 1 c0 -8 -7 -15 -15
-15 -8 0 -15 7 -15 15 0 8 7 15 15 15 8 0 15 -7 15 -15z m240 0 c0 -8 -7 -15
-15 -15 -8 0 -15 7 -15 15 0 8 7 15 15 15 8 0 15 -7 15 -15z m890 0 c0 -8 -7
-15 -15 -15 -8 0 -15 7 -15 15 0 8 7 15 15 15 8 0 15 -7 15 -15z m990 0 c0 -8
-7 -15 -15 -15 -8 0 -15 7 -15 15 0 8 7 15 15 15 8 0 15 -7 15 -15z m1244 -47
c-1 -35 -3 -84 -3 -109 l-1 -47 -42 0 c-60 -2 -74 5 -88 38 -27 66 17 140 75
126 23 -6 25 -3 25 24 0 22 5 30 18 30 15 0 18 -8 16 -62z m896 47 c0 -8 -9
-15 -20 -15 -11 0 -20 7 -20 15 0 8 9 15 20 15 11 0 20 -7 20 -15z m88 -52
c16 -11 16 -12 0 -13 -15 0 -18 -9 -17 -55 1 -39 6 -55 15 -55 8 0 14 -7 14
-15 0 -10 -10 -15 -30 -15 -25 0 -30 4 -36 35 -3 19 -4 51 -2 70 3 24 0 35 -9
35 -10 0 -10 6 3 25 9 14 12 25 8 25 -5 0 0 7 11 16 19 14 20 13 23 -12 2 -16
11 -34 20 -41z m240 46 c8 -12 9 -18 3 -14 -6 3 -11 2 -11 -3 0 -6 7 -12 15
-16 8 -3 15 -10 15 -16 0 -5 -7 -10 -15 -10 -12 0 -15 -13 -15 -55 0 -42 3
-55 15 -55 8 0 15 -7 15 -15 0 -18 -45 -21 -56 -3 -4 7 -7 34 -7 61 1 39 -2
47 -16 45 -13 -3 -16 -16 -16 -61 0 -57 -1 -58 -25 -54 -14 2 -36 1 -50 -3
-29 -8 -66 6 -75 28 -14 38 23 72 81 72 27 0 33 24 9 34 -18 6 -45 -2 -45 -15
0 -5 -9 -9 -20 -9 -27 0 -25 25 2 44 34 24 83 20 105 -7 10 -13 24 -22 32 -19
10 3 10 6 1 12 -8 5 -7 11 5 24 9 9 14 16 10 16 -3 0 -1 9 5 20 14 25 22 25
38 -1z m725 -81 c-1 -57 -2 -106 -3 -110 0 -5 -7 -8 -15 -8 -12 0 -15 19 -15
110 0 98 2 110 18 110 15 0 17 -11 15 -102z m67 -8 c0 -91 -3 -110 -15 -110
-12 0 -15 19 -15 110 0 91 3 110 15 110 12 0 15 -19 15 -110z m-2460 80 c0
-11 5 -20 10 -20 6 0 10 -7 10 -15 0 -8 -4 -15 -10 -15 -17 0 -12 -107 5 -114
25 -9 17 -26 -14 -26 -35 0 -41 13 -41 85 0 29 -5 55 -10 57 -15 5 18 68 36
68 8 0 14 -9 14 -20z m1278 -63 c4 -22 -16 -22 -40 0 -30 27 -53 6 -53 -48 0
-37 3 -44 21 -47 12 -2 28 4 37 12 17 17 47 22 47 7 0 -19 -36 -50 -60 -52
-52 -3 -61 1 -76 38 -22 52 -11 99 29 123 30 19 32 19 62 2 16 -10 31 -26 33
-35z m617 23 c8 -6 17 -27 21 -45 12 -65 -17 -105 -76 -105 -59 0 -88 40 -76
106 4 18 16 40 26 47 11 8 17 16 15 19 -12 11 75 -10 90 -22z m-4975 7 c8 1
24 4 35 8 37 11 58 -16 63 -84 3 -38 0 -67 -7 -74 -17 -17 -23 -3 -27 58 -5
78 -16 92 -48 59 -11 -10 -16 -34 -16 -70 0 -41 -4 -54 -15 -54 -12 0 -15 14
-15 65 0 49 -4 67 -15 71 -29 12 -45 -16 -45 -77 0 -46 -3 -59 -15 -59 -12 0
-15 16 -15 81 0 75 2 81 19 76 10 -2 25 -1 32 4 8 5 23 6 34 2 11 -4 27 -6 35
-6z m318 -9 c18 -16 17 -148 -3 -148 -10 0 -15 16 -17 61 -2 45 -8 65 -20 72
-30 19 -48 -8 -48 -74 0 -46 -3 -59 -15 -59 -12 0 -15 16 -15 81 0 75 2 81 19
76 10 -2 25 -1 32 4 15 9 46 3 67 -13z m242 10 c88 6 90 4 90 -90 0 -54 -3
-68 -15 -68 -12 0 -15 14 -15 64 0 50 -4 65 -16 70 -30 11 -44 -13 -44 -75 0
-46 -3 -59 -15 -59 -12 0 -15 13 -15 59 0 62 -14 86 -44 75 -15 -6 -22 -58
-17 -116 2 -12 -5 -18 -18 -18 -19 0 -21 6 -21 79 l0 80 30 -1 c17 -1 33 2 37
6 4 4 14 3 22 0 9 -4 27 -7 41 -6z m483 -20 c9 -11 17 -31 17 -44 0 -22 -4
-24 -55 -24 -42 0 -55 -4 -55 -15 0 -12 28 -35 44 -35 3 0 13 9 23 19 12 13
23 17 32 12 23 -14 -23 -51 -63 -51 -41 0 -62 18 -71 61 -19 85 74 141 128 77z
m155 16 c19 -13 22 -24 22 -85 0 -54 -3 -69 -15 -69 -10 0 -15 16 -17 61 -2
45 -8 65 -20 72 -30 19 -48 -8 -48 -74 0 -46 -3 -59 -15 -59 -12 0 -15 16 -15
81 0 75 2 81 19 76 10 -2 25 -1 32 4 20 12 32 11 57 -7z m250 -11 c6 -9 12
-44 12 -78 l0 -62 -52 -1 c-74 -2 -88 4 -88 37 0 35 17 50 64 58 21 3 36 11
36 20 0 19 -30 28 -49 15 -41 -30 -60 -27 -42 6 18 35 94 37 119 5z m142 17
c13 -7 28 -7 46 0 20 8 32 7 50 -5 21 -14 24 -23 24 -85 0 -56 -3 -70 -15 -70
-12 0 -15 13 -15 59 0 66 -18 94 -45 71 -10 -9 -15 -31 -15 -72 0 -51 -2 -59
-17 -56 -15 3 -18 14 -18 60 0 60 -12 83 -37 73 -19 -8 -28 -36 -28 -92 0 -32
-4 -43 -15 -43 -12 0 -15 16 -15 81 0 75 2 81 19 76 10 -2 25 -1 32 4 18 11
26 11 49 -1z m447 -4 c2 -1 5 -154 4 -188 -2 -42 -31 -37 -31 5 0 32 -2 33
-30 29 -57 -8 -95 58 -69 120 15 36 42 49 89 41 19 -3 36 -6 37 -7z m367 4
c16 -6 26 -17 26 -30 0 -24 -13 -26 -30 -5 -15 18 -51 16 -57 -2 -3 -7 12 -16
35 -23 49 -13 66 -32 58 -65 -10 -40 -97 -49 -120 -13 -18 30 8 44 33 19 18
-18 25 -20 43 -10 21 11 21 12 3 25 -10 8 -25 14 -34 14 -21 0 -51 30 -51 51
0 18 35 49 57 49 6 0 23 -4 37 -10z m260 -3 c13 -10 17 -27 18 -72 0 -83 0
-85 -17 -85 -12 0 -15 14 -15 65 0 36 -2 65 -4 65 -2 0 -11 3 -19 6 -27 10
-47 -24 -47 -82 0 -41 -4 -54 -15 -54 -12 0 -15 16 -15 81 0 75 2 81 19 76 10
-2 25 -1 32 4 20 12 42 11 63 -4z m179 -14 c22 -20 23 -90 1 -121 -12 -17 -25
-22 -59 -22 -34 0 -47 5 -59 22 -18 26 -21 80 -5 109 21 40 83 46 122 12z
m130 18 c13 -5 27 -17 30 -26 9 -22 -23 -33 -35 -12 -10 18 -43 23 -53 8 -7
-12 10 -23 55 -36 28 -8 36 -16 38 -38 5 -40 -14 -57 -62 -57 -45 0 -66 13
-66 42 0 22 26 24 34 3 6 -16 51 -21 60 -6 3 5 -15 20 -42 32 -55 28 -66 58
-30 83 26 18 37 20 71 7z m235 -13 c2 -12 -3 -18 -17 -18 -27 0 -35 -16 -35
-75 -1 -39 -5 -50 -18 -53 -16 -3 -18 6 -18 76 0 43 2 81 4 83 2 2 22 4 43 4
28 0 39 -4 41 -17z m53 -37 c1 -25 0 -54 -1 -64 -1 -15 4 -18 27 -15 27 3 28
5 33 68 4 49 9 65 20 65 12 0 15 -16 15 -80 l0 -79 -54 -3 c-29 -2 -59 1 -65
7 -7 5 -15 8 -17 5 -6 -5 0 124 6 142 2 7 11 10 20 7 10 -4 15 -21 16 -53z
m483 48 c25 -12 51 -63 40 -80 -3 -5 -18 -9 -33 -9 -15 0 -33 -6 -40 -12 -11
-10 -13 -10 -7 0 5 8 0 12 -13 12 -24 0 -27 -10 -9 -28 17 -17 55 -15 66 4 9
16 32 12 32 -6 0 -32 -83 -54 -118 -32 -20 13 -31 68 -21 105 13 49 56 67 103
46z m106 -14 c15 -29 28 -32 36 -10 8 20 41 38 48 27 3 -5 -6 -24 -19 -42
l-25 -33 25 -33 c14 -18 25 -37 25 -43 0 -20 -28 -11 -49 15 l-21 27 -21 -27
c-19 -24 -49 -36 -49 -18 0 4 11 24 25 44 l25 37 -25 29 c-14 17 -25 35 -25
41 0 21 37 11 50 -14z m214 15 c24 -9 49 -63 39 -82 -2 -5 -29 -8 -59 -8 -55
0 -64 -6 -42 -28 17 -17 49 -15 63 5 7 9 17 13 23 9 31 -19 -7 -56 -57 -56
-60 0 -92 51 -71 114 15 47 55 65 104 46z m140 4 c25 -10 19 -34 -9 -34 -25 0
-31 -14 -27 -60 3 -31 -10 -70 -24 -70 -11 0 -14 18 -14 81 0 76 1 81 20 76
11 -3 23 -1 26 4 6 11 8 11 28 3z m616 -79 c0 -69 -3 -85 -15 -85 -17 0 -17 1
-20 90 -2 72 0 80 21 80 11 0 14 -18 14 -85z m226 74 c4 -8 9 -8 17 0 17 17
55 13 76 -8 11 -11 21 -18 23 -16 2 2 2 -28 0 -66 -3 -60 -6 -69 -23 -69 -16
0 -19 8 -20 48 -1 26 -1 52 0 58 1 6 -6 17 -14 24 -27 23 -45 -5 -45 -71 0
-52 -2 -59 -20 -59 -18 0 -20 7 -20 85 0 78 8 102 26 74z m266 -62 c3 -59 4
-62 28 -62 23 0 25 4 30 63 3 34 8 62 13 62 4 0 12 0 17 0 6 0 10 -33 10 -79
l0 -78 -60 -2 c-56 -1 -61 1 -70 25 -11 28 -14 127 -4 137 3 3 12 3 20 0 8 -3
14 -26 16 -66z m375 58 c18 -12 22 -27 25 -84 l3 -68 -60 -1 c-66 -1 -85 9
-85 44 0 27 34 54 71 54 32 0 42 9 28 27 -15 18 -48 17 -55 -2 -6 -15 -44 -22
-44 -7 1 22 42 51 75 52 11 0 30 -7 42 -15z m178 4 c6 0 21 3 35 6 43 11 61
-13 62 -80 0 -83 0 -85 -17 -85 -12 0 -15 14 -15 64 0 70 -8 83 -40 66 -17 -9
-20 -21 -20 -70 0 -47 -3 -60 -15 -60 -12 0 -15 13 -15 59 0 66 -18 94 -45 71
-10 -9 -15 -31 -15 -72 0 -51 -2 -59 -17 -56 -15 3 -19 16 -21 77 -2 41 1 77
7 80 5 4 31 5 58 3 26 -1 53 -3 58 -3z m253 -16 c6 -9 12 -20 12 -25 0 -15
-33 -8 -45 9 -16 21 -42 11 -57 -22 -23 -51 28 -101 62 -60 15 18 40 20 40 3
0 -25 -17 -40 -55 -48 -32 -7 -41 -5 -61 15 -55 56 -12 165 59 151 18 -3 38
-14 45 -23z m146 6 c21 -16 26 -29 26 -63 0 -61 -21 -86 -75 -86 -52 0 -75 24
-75 78 0 79 66 117 124 71z m-6104 -69 c0 -64 -3 -80 -15 -80 -12 0 -15 16
-15 80 0 64 3 80 15 80 12 0 15 -16 15 -80z m240 0 c0 -64 -3 -80 -15 -80 -12
0 -15 16 -15 80 0 64 3 80 15 80 12 0 15 -16 15 -80z m406 25 c10 -30 20 -52
24 -50 4 3 13 25 20 51 12 41 33 65 46 52 9 -10 -52 -153 -67 -156 -12 -2 -24
18 -43 70 -30 85 -31 88 -12 88 9 0 22 -21 32 -55z m484 -25 c0 -64 -3 -80
-15 -80 -12 0 -15 16 -15 80 0 64 3 80 15 80 12 0 15 -16 15 -80z m822 18 c3
-63 3 -63 33 -63 30 0 30 0 33 63 2 46 7 62 17 62 12 0 15 -16 15 -78 l0 -78
-55 -2 c-66 -3 -75 9 -75 97 0 47 3 61 15 61 10 0 15 -16 17 -62z m168 -18 c0
-64 -3 -80 -15 -80 -12 0 -15 16 -15 80 0 64 3 80 15 80 12 0 15 -16 15 -80z
m2140 0 c0 -73 -2 -80 -20 -80 -18 0 -20 7 -20 80 0 73 2 80 20 80 18 0 20 -7
20 -80z m-2633 -56 c6 -17 -12 -64 -25 -64 -4 0 -8 18 -9 40 -2 29 2 40 13 40
8 0 17 -7 21 -16z m-1877 -274 c0 -91 -3 -110 -15 -110 -12 0 -15 19 -15 110
0 91 3 110 15 110 12 0 15 -19 15 -110z m238 74 c3 -28 6 -30 33 -26 45 7 69
-20 69 -79 0 -39 -4 -51 -26 -68 -15 -11 -31 -18 -36 -15 -5 3 -25 6 -44 6
l-35 0 2 102 c1 55 3 105 6 109 10 17 28 -1 31 -29z m432 15 c0 -24 -23 -21
-28 4 -2 10 3 17 12 17 10 0 16 -9 16 -21z m470 0 c0 -24 -23 -21 -28 4 -2 10
3 17 12 17 10 0 16 -9 16 -21z m220 0 c0 -24 -23 -21 -28 4 -2 10 3 17 12 17
10 0 16 -9 16 -21z m658 -91 c-2 -67 -7 -113 -13 -113 -6 0 -11 46 -13 113 -2
96 0 112 13 112 13 0 15 -16 13 -112z m67 92 c0 -22 -29 -18 -33 3 -3 14 1 18
15 15 10 -2 18 -10 18 -18z m405 0 c0 -11 -7 -20 -15 -20 -8 0 -15 9 -15 20 0
11 7 20 15 20 8 0 15 -9 15 -20z m-800 -15 c0 -14 5 -25 10 -25 6 0 10 -7 10
-15 0 -8 -4 -15 -10 -15 -17 0 -12 -90 7 -108 16 -16 15 -17 -11 -20 -15 -2
-31 -1 -34 2 -3 4 -6 33 -6 66 -1 41 -5 61 -15 65 -11 4 -10 9 4 25 10 11 15
20 10 20 -4 0 -2 7 5 15 18 22 30 18 30 -10z m-1530 -44 c5 -11 10 -46 10 -79
l0 -58 -59 -2 c-64 -2 -85 11 -79 49 4 26 19 36 71 44 41 7 47 19 16 35 -16 9
-26 8 -45 -5 -34 -22 -48 -15 -29 13 22 30 99 32 115 3z m332 2 c26 -23 25
-104 -2 -128 -26 -24 -78 -22 -104 4 -27 27 -28 91 -2 120 23 26 82 28 108 4z
m135 4 c-2 -7 -12 -14 -23 -16 -27 -5 -34 -19 -34 -78 0 -40 -4 -53 -15 -53
-12 0 -15 15 -15 79 l0 78 46 1 c31 1 44 -2 41 -11z m45 -54 c4 -78 1 -93 -18
-93 -11 0 -14 18 -14 80 0 62 3 80 14 80 11 0 15 -18 18 -67z m148 48 c14 -28
-4 -35 -35 -15 -24 15 -28 16 -42 2 -14 -14 -11 -17 23 -28 51 -16 64 -28 64
-55 0 -31 -24 -48 -67 -48 -33 0 -63 21 -63 45 0 14 27 9 40 -7 16 -19 55 -16
55 4 0 8 -13 19 -30 24 -36 11 -65 35 -65 53 0 42 99 63 120 25z m240 9 c10
-6 16 -32 18 -80 4 -65 3 -72 -13 -68 -14 2 -19 16 -22 63 -4 62 -16 80 -44
65 -17 -10 -29 -51 -29 -101 0 -19 -5 -29 -15 -29 -12 0 -15 15 -15 78 l0 78
53 2 c28 1 59 -3 67 -8z m82 -52 c6 -74 1 -98 -18 -98 -11 0 -14 19 -14 80 0
61 3 80 14 80 10 0 15 -18 18 -62z m142 46 c9 -8 16 -20 16 -25 0 -12 -27 -12
-35 1 -3 6 -18 10 -31 10 -34 0 -26 -21 12 -33 41 -14 54 -26 54 -52 0 -31
-25 -49 -68 -48 -33 1 -62 22 -62 45 0 14 27 9 40 -7 17 -20 54 -15 58 7 2 12
-6 19 -33 24 -31 5 -65 35 -65 56 0 17 35 38 65 38 18 0 41 -7 49 -16z m76
-64 c0 -64 -3 -80 -15 -80 -12 0 -15 16 -15 80 0 64 3 80 15 80 12 0 15 -16
15 -80z m152 19 c2 -45 8 -65 20 -72 30 -19 48 8 48 74 0 46 3 59 15 59 12 0
15 -16 15 -80 0 -88 8 -80 -74 -81 -42 -1 -56 24 -56 98 0 48 3 63 15 63 10 0
15 -16 17 -61z m426 49 c6 -7 12 -43 14 -80 l3 -66 -42 0 c-23 0 -46 -3 -51
-6 -16 -10 -52 25 -52 49 0 27 18 40 73 50 41 8 47 19 18 35 -21 10 -51 4 -51
-11 0 -5 -7 -9 -15 -9 -18 0 -20 21 -3 38 16 16 93 15 106 0z m150 -71 c3 -72
1 -77 -18 -77 -18 0 -20 6 -20 81 0 71 2 80 18 77 14 -3 17 -16 20 -81z m162
-28 c0 -90 -3 -109 -15 -109 -10 0 -15 10 -15 31 0 27 -3 31 -21 26 -61 -16
-110 64 -78 126 17 32 28 37 82 35 l47 -1 0 -108z m70 53 c0 -74 21 -100 54
-66 11 10 16 34 16 70 0 41 4 54 15 54 12 0 15 -16 15 -81 0 -71 -2 -80 -17
-78 -10 2 -28 -1 -41 -5 -15 -5 -31 -2 -47 8 -23 15 -25 23 -25 86 0 56 3 70
15 70 12 0 15 -13 15 -58z m168 -24 c-2 -54 -7 -83 -15 -86 -10 -3 -13 18 -13
82 0 71 3 86 15 86 13 0 15 -14 13 -82z m167 46 c14 -30 15 -43 6 -74 -12 -40
-50 -65 -82 -55 -16 5 -19 1 -19 -24 0 -24 -4 -31 -20 -31 -19 0 -20 7 -20
109 l0 108 59 2 c58 1 59 1 76 -35z m85 -109 c0 -8 -9 -15 -20 -15 -11 0 -20
7 -20 15 0 8 9 15 20 15 11 0 20 -7 20 -15z m260 -859 c0 -2 -8 -10 -17 -17
-16 -13 -17 -12 -4 4 13 16 21 21 21 13z"/>
<path d="M4564 5074 c-23 -63 -37 -117 -33 -120 14 -8 159 -2 159 7 0 11 -72
213 -79 221 -3 4 -24 -45 -47 -108z"/>
<path d="M4990 4999 l0 -201 99 4 c81 2 105 7 128 24 47 34 68 88 67 179 0 90
-14 126 -64 169 -29 24 -38 26 -131 26 l-99 0 0 -201z"/>
<path d="M3094 3024 c-30 -44 13 -116 50 -85 24 20 21 87 -3 101 -27 14 -28
13 -47 -16z"/>
<path d="M3508 3039 c-26 -15 -25 -85 2 -99 14 -8 26 -8 40 0 28 15 28 85 1
100 -23 12 -22 12 -43 -1z"/>
<path d="M4240 2965 c-10 -12 -10 -19 -2 -27 15 -15 62 5 62 27 0 20 -44 20
-60 0z"/>
<path d="M4668 3039 c-30 -17 -20 -29 22 -29 41 0 49 7 28 28 -14 14 -27 15
-50 1z"/>
<path d="M5236 3034 c-21 -20 -20 -53 3 -83 15 -20 21 -22 39 -12 30 16 31 85
3 101 -25 13 -27 13 -45 -6z m27 -49 c-3 -9 -8 -14 -10 -11 -3 3 -2 9 2 15 9
16 15 13 8 -4z"/>
<path d="M5738 3043 c-9 -2 -19 -11 -22 -19 -4 -11 4 -14 34 -14 30 0 38 3 34
14 -7 17 -23 24 -46 19z"/>
<path d="M6138 3043 c-9 -2 -19 -11 -22 -19 -4 -11 4 -14 34 -14 22 0 40 4 40
10 0 13 -32 27 -52 23z"/>
<path d="M1436 3035 c-33 -33 -9 -111 32 -103 9 2 23 15 32 31 13 24 13 30 0
54 -19 33 -42 40 -64 18z"/>
<path d="M1704 3033 c-17 -17 -16 -18 20 -21 45 -4 54 2 36 23 -16 20 -35 19
-56 -2z"/>
<path d="M2282 3038 c-17 -17 -15 -83 4 -99 37 -31 80 41 50 85 -18 28 -35 33
-54 14z"/>
<path d="M3264 3024 c-20 -29 -11 -70 19 -88 15 -9 22 -7 38 13 24 29 24 63 1
84 -26 23 -39 21 -58 -9z"/>
<path d="M1867 2673 c-13 -12 -7 -81 8 -93 36 -30 79 26 56 76 -10 23 -48 33
-64 17z"/>
<path d="M3999 2653 c-13 -36 -4 -70 22 -78 28 -9 49 12 49 49 0 58 -52 79
-71 29z"/>
<path d="M4251 2658 c-18 -49 21 -106 53 -79 16 14 21 56 10 85 -9 25 -53 20
-63 -6z"/>
<path d="M5652 2668 c-25 -25 -5 -98 28 -98 16 0 40 31 40 51 0 49 -39 76 -68
47z"/>
<path d="M7382 2667 c-23 -27 -2 -96 30 -97 14 0 38 32 38 51 0 49 -42 77 -68
46z"/>
<path d="M1705 2607 c-23 -17 -12 -37 20 -37 21 0 45 24 45 44 0 11 -46 6 -65
-7z"/>
<path d="M2116 2674 c-30 -30 -15 -104 20 -104 41 0 59 74 26 103 -23 21 -27
21 -46 1z"/>
<path d="M2875 2670 c-23 -38 6 -109 39 -97 46 18 39 107 -8 107 -14 0 -28 -5
-31 -10z"/>
<path d="M3136 2671 c-22 -25 -21 -26 24 -26 30 -1 40 3 38 13 -5 25 -44 33
-62 13z"/>
<path d="M3835 2670 c-10 -16 3 -27 27 -25 13 1 29 3 37 4 11 1 11 4 1 16 -14
17 -56 20 -65 5z"/>
<path d="M4420 2661 c-14 -28 -13 -46 8 -71 37 -46 90 9 63 66 -13 30 -56 33
-71 5z"/>
<path d="M4676 2665 c-4 -12 3 -15 36 -15 35 0 39 2 28 15 -7 8 -23 15 -35 15
-13 0 -25 -7 -29 -15z"/>
<path d="M5480 2661 c-15 -30 -12 -56 10 -76 23 -21 46 -14 62 20 8 19 8 31 0
50 -14 31 -56 34 -72 6z"/>
<path d="M5990 2665 c-11 -13 -7 -15 30 -15 37 0 41 2 30 15 -7 8 -20 15 -30
15 -10 0 -23 -7 -30 -15z"/>
<path d="M6409 2653 c-11 -29 3 -72 27 -80 19 -6 44 26 44 56 0 54 -53 71 -71
24z"/>
<path d="M6574 2669 c-11 -18 -7 -69 7 -85 16 -20 46 -17 59 5 14 26 13 64 -2
79 -15 15 -55 16 -64 1z"/>
<path d="M1258 2295 c-23 -51 20 -106 57 -75 18 15 20 71 3 88 -20 20 -48 14
-60 -13z"/>
<path d="M3528 2295 c-14 -31 -1 -78 23 -83 24 -4 49 25 49 57 0 52 -51 71
-72 26z"/>
<path d="M7734 2296 c-3 -13 -4 -37 -2 -52 3 -25 7 -29 33 -29 28 0 30 3 33
38 2 21 -2 45 -9 53 -18 22 -48 17 -55 -10z"/>
<path d="M2508 2295 c-23 -51 20 -106 57 -75 18 15 20 71 3 88 -20 20 -48 14
-60 -13z"/>
<path d="M6829 2303 c-12 -15 -12 -16 3 -10 10 3 20 2 23 -3 9 -15 47 -12 42
3 -2 6 -11 11 -20 11 -9 -1 -14 2 -11 7 10 16 -23 9 -37 -8z"/>
<path d="M2360 2251 c-14 -4 -26 -15 -28 -25 -6 -28 58 -18 69 12 9 24 4 25
-41 13z"/>
<path d="M2669 2293 c-14 -37 6 -83 35 -83 31 0 46 19 46 55 0 37 -16 55 -47
55 -16 0 -27 -8 -34 -27z"/>
<path d="M2947 2313 c-19 -19 -5 -33 33 -33 38 0 40 2 30 20 -10 19 -49 27
-63 13z"/>
<path d="M3202 2308 c-21 -21 -13 -28 28 -28 22 0 40 4 40 8 0 14 -23 32 -40
32 -9 0 -21 -5 -28 -12z"/>
<path d="M3702 2308 c-29 -29 -6 -98 33 -98 29 0 37 11 38 56 1 48 -41 72 -71
42z"/>
<path d="M3941 2306 c-17 -20 -10 -77 12 -90 25 -16 51 4 55 43 4 36 -12 61
-38 61 -10 0 -23 -6 -29 -14z"/>
<path d="M4212 2308 c-21 -21 -13 -28 28 -28 22 0 40 4 40 8 0 14 -23 32 -40
32 -9 0 -21 -5 -28 -12z"/>
<path d="M4730 2251 c-36 -10 -32 -36 5 -36 23 0 31 5 33 23 4 23 1 24 -38 13z"/>
<path d="M4881 2306 c-17 -21 -9 -77 12 -90 26 -16 59 25 50 63 -10 41 -40 54
-62 27z"/>
<path d="M5245 2250 c-38 -7 -48 -40 -12 -40 25 0 52 22 45 37 -1 5 -16 6 -33
3z"/>
<path d="M5495 2250 c-34 -6 -41 -33 -9 -38 21 -3 49 20 42 35 -1 5 -16 6 -33
3z"/>
<path d="M5772 2308 c-7 -7 -12 -23 -12 -36 0 -60 51 -86 71 -35 20 53 -24
106 -59 71z"/>
<path d="M6130 2251 c-34 -9 -40 -41 -8 -41 26 0 48 17 48 37 0 14 -3 14 -40
4z"/>
<path d="M7595 2250 c-43 -7 -47 -40 -5 -40 18 0 33 6 36 15 9 24 1 31 -31 25z"/>
<path d="M4781 1946 c-7 -8 -11 -32 -9 -53 3 -35 5 -38 33 -38 28 0 30 3 33
38 3 39 -10 67 -33 67 -7 0 -18 -6 -24 -14z"/>
<path d="M5920 1875 c-10 -12 -9 -16 5 -21 10 -4 21 -1 26 7 7 12 9 12 9 -1 0
-13 1 -13 10 0 5 8 10 18 10 23 0 13 -47 7 -60 -8z"/>
<path d="M6248 1949 c-18 -10 -24 -52 -12 -83 7 -19 45 -21 62 -4 20 20 15 76
-7 88 -23 12 -22 12 -43 -1z"/>
<path d="M2312 1948 c-21 -21 -13 -28 28 -28 38 0 40 2 30 20 -12 22 -40 26
-58 8z"/>
<path d="M2735 1891 c-31 -6 -46 -35 -23 -43 23 -9 58 10 58 32 0 11 -1 19 -2
19 -2 -1 -16 -4 -33 -8z"/>
<path d="M3301 1946 c-7 -8 -11 -32 -9 -53 3 -35 5 -38 33 -38 28 0 30 3 33
38 3 39 -10 67 -33 67 -7 0 -18 -6 -24 -14z"/>
<path d="M4107 1942 c-21 -23 -22 -56 -1 -76 21 -22 51 -20 64 4 8 15 8 20 -2
20 -9 0 -9 3 0 12 16 16 15 23 -4 42 -20 21 -37 20 -57 -2z"/>
<path d="M5038 1949 c-30 -17 -20 -29 22 -29 41 0 49 7 28 28 -14 14 -27 15
-50 1z"/>
<path d="M5358 1949 c-30 -17 -20 -29 22 -29 43 0 52 13 21 30 -23 12 -22 12
-43 -1z"/>
<path d="M6961 1876 c-10 -12 -9 -17 6 -24 23 -12 40 -6 53 19 9 17 7 19 -18
19 -16 0 -35 -6 -41 -14z"/>
<path d="M7536 1941 c-11 -12 -15 -28 -12 -46 7 -37 18 -47 47 -43 31 4 44 53
23 85 -18 28 -35 29 -58 4z"/>
<path d="M1510 1580 c-25 -25 -25 -51 -1 -81 28 -34 55 -16 59 39 2 33 -1 43
-17 52 -17 8 -24 7 -41 -10z"/>
<path d="M1330 1515 c-26 -31 24 -49 54 -19 9 8 16 20 16 25 0 15 -56 10 -70
-6z"/>
<path d="M1676 1587 c-13 -9 -17 -23 -14 -51 6 -75 70 -75 76 0 3 28 -1 42
-14 51 -10 7 -21 13 -24 13 -3 0 -14 -6 -24 -13z"/>
<path d="M3115 1514 c-13 -14 -14 -19 -3 -25 7 -5 18 -9 25 -9 14 0 43 27 43
41 0 15 -48 10 -65 -7z"/>
<path d="M3420 1584 c-33 -38 0 -122 38 -98 25 16 29 84 6 101 -23 17 -29 16
-44 -3z"/>
<path d="M3836 1587 c-13 -9 -17 -24 -14 -51 6 -76 68 -71 68 5 0 45 -26 67
-54 46z"/>
</g>
</svg>
