<svg width="16" height="16" viewBox="0 0 16 16" fill="none" xmlns="http://www.w3.org/2000/svg">
<g clip-path="url(#clip0_1848_8784)">
<path d="M5.89634 8.43271C5.4506 8.43271 5.02311 8.60978 4.70793 8.92497C4.39274 9.24016 4.21567 9.66764 4.21567 10.1134V14.3174C4.21567 14.7631 4.39274 15.1906 4.70793 15.5058C5.02311 15.821 5.4506 15.998 5.89634 15.998C6.34208 15.998 6.76956 15.821 7.08475 15.5058C7.39994 15.1906 7.57701 14.7631 7.57701 14.3174V10.1134C7.57665 9.66775 7.39947 9.24047 7.08436 8.92536C6.76925 8.61025 6.34197 8.43307 5.89634 8.43271ZM0.0136719 10.1134C0.0260021 10.5513 0.20862 10.9671 0.522711 11.2725C0.836802 11.5778 1.2576 11.7487 1.69567 11.7487C2.13374 11.7487 2.55454 11.5778 2.86863 11.2725C3.18272 10.9671 3.36534 10.5513 3.37767 10.1134V8.43138H1.69567C1.24963 8.43156 0.821911 8.60882 0.506513 8.92422C0.191115 9.23962 0.0138486 9.66734 0.0136719 10.1134ZM5.89834 -0.00195312H5.89634C5.45844 0.0103771 5.04262 0.192995 4.73725 0.507086C4.43188 0.821177 4.26103 1.24198 4.26103 1.68005C4.26103 2.11812 4.43188 2.53892 4.73725 2.85301C5.04262 3.1671 5.45844 3.34972 5.89634 3.36205H7.57701V1.67671C7.57683 1.23156 7.39991 0.804685 7.08514 0.489912C6.77037 0.175139 6.34349 -0.00177644 5.89834 -0.00195312ZM1.68434 7.57871H5.89634C6.33424 7.56638 6.75006 7.38377 7.05543 7.06967C7.3608 6.75558 7.53164 6.33478 7.53164 5.89671C7.53164 5.45864 7.3608 5.03784 7.05543 4.72375C6.75006 4.40966 6.33424 4.22704 5.89634 4.21471H1.68434C1.24644 4.22704 0.830618 4.40966 0.525246 4.72375C0.219875 5.03784 0.0490334 5.45864 0.0490334 5.89671C0.0490334 6.33478 0.219875 6.75558 0.525246 7.06967C0.830618 7.38377 1.24644 7.56638 1.68434 7.57871ZM14.3057 4.21405C13.8605 4.21405 13.4335 4.39091 13.1187 4.70572C12.8039 5.02053 12.627 5.4475 12.627 5.89271V7.57805H14.3077C14.7456 7.56572 15.1614 7.3831 15.4668 7.06901C15.7721 6.75492 15.943 6.33412 15.943 5.89605C15.943 5.45798 15.7721 5.03718 15.4668 4.72309C15.1614 4.409 14.7456 4.22638 14.3077 4.21405H14.3057ZM8.42834 1.68005V5.89671C8.42834 6.34245 8.60541 6.76994 8.9206 7.08512C9.23578 7.40031 9.66326 7.57738 10.109 7.57738C10.5547 7.57738 10.9822 7.40031 11.2974 7.08512C11.6126 6.76994 11.7897 6.34245 11.7897 5.89671V1.68005C11.7897 1.23431 11.6126 0.806822 11.2974 0.491636C10.9822 0.17645 10.5547 -0.000619792 10.109 -0.000619792C9.66326 -0.000619792 9.23578 0.17645 8.9206 0.491636C8.60541 0.806822 8.42834 1.23431 8.42834 1.68005ZM11.789 14.316C11.789 13.8703 11.6119 13.4428 11.2968 13.1276C10.9816 12.8124 10.5541 12.6354 10.1083 12.6354H8.42767V14.3174C8.42785 14.7631 8.60509 15.1905 8.9204 15.5056C9.23571 15.8207 9.66326 15.9976 10.109 15.9974C10.5547 15.9972 10.9822 15.82 11.2972 15.5047C11.6123 15.1893 11.7892 14.7618 11.789 14.316ZM14.3203 8.43138H10.1083C9.67044 8.44371 9.25462 8.62633 8.94925 8.94042C8.64388 9.25451 8.47303 9.67531 8.47303 10.1134C8.47303 10.5514 8.64388 10.9722 8.94925 11.2863C9.25462 11.6004 9.67044 11.783 10.1083 11.7954H14.3203C14.7582 11.783 15.1741 11.6004 15.4794 11.2863C15.7848 10.9722 15.9556 10.5514 15.9556 10.1134C15.9556 9.67531 15.7848 9.25451 15.4794 8.94042C15.1741 8.62633 14.7582 8.44371 14.3203 8.43138Z" fill="#8E97A4"/>
</g>
<defs>
<clipPath id="clip0_1848_8784">
<rect width="16" height="16" fill="white"/>
</clipPath>
</defs>
</svg>
