<svg width="50" height="40" viewBox="0 0 27 26" fill="none" xmlns="http://www.w3.org/2000/svg" cursor="pointer">
<g id="image 1 (traced)">
<g id="Yellow">
<path id="Vector" d="M15.3986 13.5027C14.6775 13.7516 14.2306 14.4473 14.2814 15.2344C14.322 15.8285 14.6369 16.2957 15.1955 16.5902L15.4646 16.7324H18.0544H20.6443L20.8626 16.6156C21.2029 16.4328 21.5177 16.118 21.6701 15.798C21.8529 15.4223 21.863 14.7875 21.6955 14.4066C21.5584 14.102 21.213 13.7566 20.8626 13.5738L20.5935 13.4316L18.1306 13.4215C15.8455 13.4063 15.6474 13.4164 15.3986 13.5027Z" fill="#ECC140"/>
<path id="Vector_2" d="M14.2814 18.6469C14.2966 19.6321 14.3068 19.7488 14.4083 19.9571C14.9466 21.0793 16.3787 21.3078 17.1861 20.409C17.5162 20.0434 17.638 19.6828 17.6126 19.1699C17.5771 18.5149 17.2419 18.0172 16.6326 17.7227C16.3939 17.6059 16.3177 17.5957 15.3224 17.5805L14.2662 17.5602L14.2814 18.6469Z" fill="#ECC140"/>
</g>
<g id="Red">
<path id="Vector_3" d="M7.10601 13.4367C6.14116 13.7312 5.64858 14.8078 6.04468 15.732C6.19702 16.0875 6.65913 16.5141 7.01968 16.6359C7.94898 16.9457 8.94429 16.443 9.21851 15.5187C9.27437 15.3359 9.29468 15.0059 9.29468 14.3101V13.3555L8.31968 13.3605C7.62398 13.3605 7.27358 13.3859 7.10601 13.4367Z" fill="#EC156B"/>
<path id="Vector_4" d="M11.2802 13.4316C10.9501 13.5332 10.5845 13.8074 10.3865 14.0918C10.0615 14.5641 10.0513 14.7012 10.0666 17.3012C10.0818 19.5965 10.0818 19.632 10.1986 19.8758C10.3712 20.2566 10.6251 20.5309 10.9806 20.7238C11.2802 20.8863 11.331 20.8965 11.7576 20.8965C12.1537 20.8965 12.2552 20.8762 12.499 20.7543C12.8341 20.5918 13.1693 20.2516 13.3216 19.9164C13.4334 19.6828 13.4334 19.632 13.4334 17.1387V14.5996L13.3115 14.3711C13.0271 13.8379 12.7021 13.5586 12.2095 13.4316C11.8541 13.3402 11.5798 13.3402 11.2802 13.4316Z" fill="#EC156B"/>
</g>
<g id="Gray">
<path id="Vector_5" d="M15.6068 5.07813C15.0939 5.18477 14.6623 5.54531 14.4185 6.06836L14.2662 6.38828L14.2814 8.8918L14.2966 11.4004L14.4337 11.6645C14.6115 12.0047 14.8654 12.2535 15.2005 12.4262C15.4341 12.5531 15.5205 12.5684 15.947 12.5684C16.3583 12.5684 16.4701 12.548 16.6783 12.4465C16.9982 12.2891 17.2775 12.0098 17.4552 11.6695L17.5974 11.4004V8.81055V6.21563L17.4197 5.92109C17.0287 5.27109 16.3025 4.93086 15.6068 5.07813Z" fill="#40C16B"/>
<path id="Vector_6" d="M19.8521 9.24224C19.3341 9.32856 18.8009 9.74497 18.5724 10.2477C18.4708 10.4661 18.4607 10.5879 18.4455 11.5426L18.4302 12.5989L19.5119 12.5836C20.5123 12.5684 20.6087 12.5583 20.8271 12.4516C21.2029 12.2688 21.4619 12.0098 21.6447 11.6391C21.7919 11.3446 21.8123 11.2532 21.8123 10.8926C21.8123 10.5727 21.7869 10.4356 21.6955 10.2477C21.34 9.53169 20.5986 9.12036 19.8521 9.24224Z" fill="#40C16B"/>
</g>
<g id="Cyan">
<path id="Vector_7" d="M11.2904 5.09836C10.9806 5.19993 10.7521 5.35735 10.4931 5.64172C9.75171 6.46438 10.0412 7.78977 11.0669 8.27219C11.3412 8.39915 11.3869 8.40422 12.4076 8.41946L13.4638 8.43469L13.4486 7.35305C13.4333 6.14446 13.408 6.0429 13.0271 5.59602C12.6462 5.15422 11.8337 4.92063 11.2904 5.09836Z" fill="#40C1EC"/>
<path id="Vector_8" d="M7.16694 9.27264C6.81655 9.36912 6.61851 9.491 6.34937 9.78045C6.02944 10.1258 5.9228 10.4051 5.91772 10.8926C5.91772 11.2531 5.93804 11.3394 6.0853 11.639C6.26812 12.0097 6.52202 12.2637 6.90288 12.4515L7.13647 12.5683H9.65015C12.5142 12.5683 12.4533 12.5785 12.9154 12.1418C13.2759 11.8066 13.4181 11.4918 13.4486 10.9941C13.4638 10.664 13.4486 10.532 13.3623 10.3035C13.2099 9.90232 12.9154 9.58748 12.5041 9.38436L12.1638 9.21678L9.80249 9.20662C7.84741 9.19646 7.39546 9.20662 7.16694 9.27264Z" fill="#40C1EC"/>
</g>
</g>
</svg>
