<svg width="1.4rem" height="1.4rem" viewBox="0 0 16 16" fill="none" xmlns="http://www.w3.org/2000/svg">
<path d="M10.9454 5.30008C12.572 6.92674 12.572 9.56672 10.9454 11.1934C9.31872 12.8201 6.6787 12.8201 5.05203 11.1934C3.42536 9.56672 3.42536 6.92674 5.05203 5.30008C6.6787 3.67341 9.31872 3.67341 10.9454 5.30008Z" stroke="white" stroke-linecap="round" stroke-linejoin="round"/>
<path d="M5.49804 14.4266C4.16471 13.8933 2.99804 12.9266 2.22471 11.5866C1.46471 10.2733 1.21137 8.81326 1.39137 7.41992" stroke="white" stroke-linecap="round" stroke-linejoin="round"/>
<path d="M3.89844 2.98755C5.03177 2.10088 6.45177 1.57422 7.99843 1.57422C9.51177 1.57422 10.9051 2.08754 12.0251 2.94088" stroke="white" stroke-linecap="round" stroke-linejoin="round"/>
<path d="M10.4961 14.4266C11.8294 13.8933 12.9961 12.9266 13.7694 11.5866C14.5294 10.2733 14.7828 8.81326 14.6028 7.41992" stroke="white" stroke-linecap="round" stroke-linejoin="round"/>
</svg>
