<svg width="16" height="17" viewBox="0 0 16 17" fill="none" xmlns="http://www.w3.org/2000/svg">
<path id="2085544 1 (Traced)" fill-rule="evenodd" clip-rule="evenodd" d="M6.02536 0.053395C5.72262 0.120642 5.30038 0.298818 4.99237 0.489343C4.59241 0.73674 4.30505 1.08469 3.65725 2.10595L3.02861 3.09705H2.00777C1.41094 3.09705 0.900869 3.11654 0.779729 3.14397C0.657981 3.17152 0.486104 3.25926 0.362814 3.35688C-0.15973 3.77035 -0.0498017 4.51183 0.57557 4.79199L0.823737 4.90317H8H15.1763L15.4222 4.793C16.0171 4.52645 16.1494 3.87238 15.701 3.41442C15.421 3.12834 15.2537 3.09705 14.0045 3.09705H12.9714L12.3427 2.10536C11.6513 1.01455 11.3885 0.71074 10.878 0.411722C10.7113 0.314023 10.4212 0.183646 10.2335 0.121986L9.89209 0.00983806L8.09344 0.00168949C6.67012 -0.00473695 6.23858 0.00605775 6.02536 0.053395ZM3.00114 7.18351C3.00114 7.87664 3.01917 8.182 3.07061 8.35955C3.19651 8.79419 3.45286 9.0633 3.9355 9.26769C4.17396 9.36862 4.23787 9.37627 4.82315 9.37329C5.56261 9.36959 5.88254 9.30562 6.42199 9.05373C7.19476 8.69292 7.82705 7.91461 7.93782 7.18792C7.97332 6.9551 8.01425 6.99013 8.09035 7.31834C8.25915 8.04663 8.87316 8.73825 9.67135 9.09918C10.1409 9.3115 10.4669 9.37102 11.1768 9.37392C11.7618 9.37631 11.8263 9.36854 12.0666 9.26723C12.4363 9.11131 12.6476 8.92688 12.8227 8.60741L12.9755 8.32851L12.9908 7.28789L13.0061 6.24726H8.0036H3.00114V7.18351ZM2.92032 13.7183C1.51358 14.4443 0.595659 14.9439 0.476994 15.048C0.372485 15.1398 0.230835 15.318 0.162253 15.444C0.0465781 15.6565 0.0362067 15.7211 0.0187808 16.3366L0 17H8H16L15.9812 16.3366C15.9638 15.7209 15.9534 15.6566 15.8377 15.444C15.769 15.318 15.6225 15.1357 15.5121 15.0389C15.3793 14.9225 14.5471 14.4704 13.0502 13.7014L10.789 12.5399L9.39449 13.7931L8 15.0463L6.60985 13.797C5.84526 13.1099 5.20928 12.5494 5.19662 12.5515C5.18391 12.5536 4.15957 13.0787 2.92032 13.7183Z" fill="#3E6BF7"/>
</svg>
