<svg width="70" height="70" viewBox="0 0 70 70" fill="none" xmlns="http://www.w3.org/2000/svg">
<rect width="70" height="70" rx="4" fill="#3E6BF7" fill-opacity="0.05"/>
<g clip-path="url(#clip0_164_18053)">
<path d="M42.9252 30.2032C41.9993 29.2766 40.7145 28.8841 39.0645 29.3263L33.1808 23.4366L33.2586 23.1426C33.5974 21.8711 33.2313 20.5044 32.3033 19.5764C31.3584 18.6308 30.0152 18.2839 28.7448 18.6328C28.5637 18.6826 28.4227 18.8249 28.3747 19.0066C28.3267 19.1882 28.3793 19.3813 28.5121 19.5141L29.9288 20.9308C30.343 21.346 30.3389 22.011 29.9298 22.4212C29.5239 22.8281 28.8417 22.8275 28.4374 22.4222L27.0204 21.0051C26.8876 20.8722 26.694 20.8201 26.5123 20.8683C26.3306 20.9166 26.1888 21.0579 26.1392 21.2393C25.7954 22.4957 26.1336 23.8473 27.083 24.7967C28.0086 25.7228 29.2917 26.1168 30.9427 25.6737L36.8268 31.5633C36.3877 33.2128 36.7665 34.4852 37.7049 35.4235C38.6509 36.3703 39.9948 36.7147 41.2624 36.3669C41.4436 36.3171 41.5846 36.1748 41.6327 35.9931C41.6807 35.8115 41.6281 35.6183 41.4952 35.4855L40.0789 34.0691C39.6647 33.6539 39.6687 32.9889 40.0778 32.5787C40.4888 32.1699 41.1695 32.1764 41.5702 32.5782L42.9873 33.9949C43.1201 34.1278 43.3138 34.1799 43.4954 34.1316C43.6771 34.0834 43.8189 33.9421 43.8684 33.7608C44.2123 32.5046 43.8741 31.1526 42.9252 30.2032Z" fill="#3E6BF7"/>
<path d="M31.6443 27.8721L26.6173 32.8998C25.7946 33.7225 25.7946 35.0603 26.6173 35.8829C27.44 36.7056 28.7778 36.7056 29.6004 35.8829L34.6274 30.8554L31.6443 27.8721ZM29.105 34.2464C28.899 34.4524 28.5654 34.4524 28.3594 34.2464C28.1534 34.0404 28.1534 33.7067 28.3594 33.5007L31.5579 30.3016C31.7639 30.0956 32.0976 30.0956 32.3035 30.3016C32.5095 30.5076 32.5095 30.8413 32.3035 31.0473L29.105 34.2464Z" fill="#3E6BF7"/>
<path d="M43.8451 19.5636L42.936 18.6545C42.7649 18.4834 42.4993 18.4507 42.2918 18.5751L39.4953 20.2529C39.201 20.4294 39.1511 20.8353 39.3936 21.0779L39.6162 21.3005L36.0662 24.836L37.558 26.3279L41.1081 22.7923L41.4217 23.106C41.6643 23.3485 42.0703 23.2986 42.2467 23.0043L43.9245 20.2078C44.0489 20.0002 44.0162 19.7347 43.8451 19.5636Z" fill="#3E6BF7"/>
</g>
<path class="svg-name-path" d="M29.7617 43.8125V49.5H29.0195V43.8125H29.7617ZM31.5898 43.8125V44.4297H27.1953V43.8125H31.5898ZM31.9122 47.4336V47.3438C31.9122 47.0391 31.9565 46.7565 32.045 46.4961C32.1335 46.2331 32.2611 46.0052 32.4278 45.8125C32.5945 45.6172 32.7963 45.4661 33.0333 45.3594C33.2703 45.25 33.5359 45.1953 33.8302 45.1953C34.127 45.1953 34.394 45.25 34.6309 45.3594C34.8705 45.4661 35.0736 45.6172 35.2403 45.8125C35.4096 46.0052 35.5385 46.2331 35.627 46.4961C35.7156 46.7565 35.7598 47.0391 35.7598 47.3438V47.4336C35.7598 47.7383 35.7156 48.0208 35.627 48.2812C35.5385 48.5417 35.4096 48.7695 35.2403 48.9648C35.0736 49.1576 34.8718 49.3086 34.6348 49.418C34.4005 49.5247 34.1348 49.5781 33.838 49.5781C33.5411 49.5781 33.2742 49.5247 33.0372 49.418C32.8002 49.3086 32.5971 49.1576 32.4278 48.9648C32.2611 48.7695 32.1335 48.5417 32.045 48.2812C31.9565 48.0208 31.9122 47.7383 31.9122 47.4336ZM32.6348 47.3438V47.4336C32.6348 47.6445 32.6596 47.8438 32.7091 48.0312C32.7585 48.2161 32.8328 48.3802 32.9317 48.5234C33.0333 48.6667 33.1596 48.7799 33.3106 48.8633C33.4617 48.944 33.6374 48.9844 33.838 48.9844C34.0359 48.9844 34.2091 48.944 34.3575 48.8633C34.5085 48.7799 34.6335 48.6667 34.7325 48.5234C34.8315 48.3802 34.9057 48.2161 34.9552 48.0312C35.0072 47.8438 35.0333 47.6445 35.0333 47.4336V47.3438C35.0333 47.1354 35.0072 46.9388 34.9552 46.7539C34.9057 46.5664 34.8302 46.401 34.7286 46.2578C34.6296 46.112 34.5046 45.9974 34.3536 45.9141C34.2052 45.8307 34.0307 45.7891 33.8302 45.7891C33.6322 45.7891 33.4578 45.8307 33.3067 45.9141C33.1583 45.9974 33.0333 46.112 32.9317 46.2578C32.8328 46.401 32.7585 46.5664 32.7091 46.7539C32.6596 46.9388 32.6348 47.1354 32.6348 47.3438ZM36.6447 47.4336V47.3438C36.6447 47.0391 36.689 46.7565 36.7775 46.4961C36.866 46.2331 36.9936 46.0052 37.1603 45.8125C37.327 45.6172 37.5288 45.4661 37.7658 45.3594C38.0028 45.25 38.2684 45.1953 38.5627 45.1953C38.8595 45.1953 39.1265 45.25 39.3634 45.3594C39.603 45.4661 39.8061 45.6172 39.9728 45.8125C40.1421 46.0052 40.271 46.2331 40.3595 46.4961C40.4481 46.7565 40.4923 47.0391 40.4923 47.3438V47.4336C40.4923 47.7383 40.4481 48.0208 40.3595 48.2812C40.271 48.5417 40.1421 48.7695 39.9728 48.9648C39.8061 49.1576 39.6043 49.3086 39.3673 49.418C39.133 49.5247 38.8673 49.5781 38.5705 49.5781C38.2736 49.5781 38.0067 49.5247 37.7697 49.418C37.5327 49.3086 37.3296 49.1576 37.1603 48.9648C36.9936 48.7695 36.866 48.5417 36.7775 48.2812C36.689 48.0208 36.6447 47.7383 36.6447 47.4336ZM37.3673 47.3438V47.4336C37.3673 47.6445 37.3921 47.8438 37.4416 48.0312C37.491 48.2161 37.5653 48.3802 37.6642 48.5234C37.7658 48.6667 37.8921 48.7799 38.0431 48.8633C38.1942 48.944 38.3699 48.9844 38.5705 48.9844C38.7684 48.9844 38.9416 48.944 39.09 48.8633C39.241 48.7799 39.366 48.6667 39.465 48.5234C39.564 48.3802 39.6382 48.2161 39.6877 48.0312C39.7397 47.8438 39.7658 47.6445 39.7658 47.4336V47.3438C39.7658 47.1354 39.7397 46.9388 39.6877 46.7539C39.6382 46.5664 39.5627 46.401 39.4611 46.2578C39.3621 46.112 39.2371 45.9974 39.0861 45.9141C38.9377 45.8307 38.7632 45.7891 38.5627 45.7891C38.3647 45.7891 38.1903 45.8307 38.0392 45.9141C37.8908 45.9974 37.7658 46.112 37.6642 46.2578C37.5653 46.401 37.491 46.5664 37.4416 46.7539C37.3921 46.9388 37.3673 47.1354 37.3673 47.3438ZM42.3538 43.5V49.5H41.6272V43.5H42.3538Z" fill="#1C1C1C" fill-opacity="0.6"/>
<defs>
<clipPath id="clip0_164_18053">
<rect width="18" height="18" fill="white" transform="translate(26 18.5)"/>
</clipPath>
</defs>
</svg>
