<svg width="35" height="35" viewBox="0 0 35 35" fill="none" xmlns="http://www.w3.org/2000/svg">
<g clip-path="url(#clip0_630_8224)">
<g clip-path="url(#clip1_630_8224)">
<path d="M5.10608 6.48839H6.15907V14.0971H5.10608V6.48839ZM5.10608 17.358H6.15907V24.9666H5.10608V17.358ZM27.2189 6.48839H28.2718V14.0971H27.2189V6.48839ZM7.21206 4.31447H15.1095V5.40143H7.21206V4.31447ZM18.2684 4.31447H26.1659V5.40143H18.2684V4.31447ZM7.21206 26.0536H15.1095V27.1406H7.21206V26.0536ZM4.57959 3.771H6.68557V5.94491H4.57959V3.771ZM15.636 3.771H17.742V5.94491H15.636V3.771ZM26.6924 3.771H28.7983V5.94491H26.6924V3.771ZM4.57959 25.5101H6.68557V27.684H4.57959V25.5101ZM4.57959 14.6406H6.68557V16.8145H4.57959V14.6406ZM26.6924 14.6406H28.7983V16.8145H26.6924V14.6406ZM15.636 25.5101H17.742V27.684H15.636V25.5101ZM27.3426 34.2406L29.2211 29.9759L25.0892 25.7107L27.3426 34.2406ZM25.8342 24.9427L29.9656 29.2074L34.097 27.2683L25.8342 24.9427ZM11.9505 18.6205L16.1625 20.3596V15.0085L11.9505 13.2694V18.6205ZM21.4274 13.2694L17.2155 15.0085V20.3596L21.4274 18.6205V13.2694ZM20.5361 12.4666L16.689 10.8781L12.8419 12.4666L16.689 14.0552L20.5361 12.4666ZM28.2718 24.502V17.358H27.2189V24.2058L28.2718 24.502ZM18.2684 26.0536V27.1406H24.3753L24.0883 26.0536H18.2684Z" fill="#3E6BF7"/>
</g>
</g>
<defs>
<clipPath id="clip0_630_8224">
<rect width="34" height="34" fill="white" transform="translate(0.5 0.241699)"/>
</clipPath>
<clipPath id="clip1_630_8224">
<rect width="31" height="32" fill="white" transform="translate(3 2.5)"/>
</clipPath>
</defs>
</svg>
