<svg width="25" height="26" viewBox="0 0 25 26" fill="none" xmlns="http://www.w3.org/2000/svg">
<g clip-path="url(#clip0_630_7261)">
<path d="M23.4613 12.5093C23.0991 7.03384 18.7079 2.64258 13.2324 2.28037V0.741699H11.7676V2.28037C6.29214 2.64258 1.90088 7.03384 1.53867 12.5093H0V13.9741H1.53867C1.90088 19.4496 6.29214 23.8408 11.7676 24.203V25.7417H13.2324V24.203C18.7079 23.8408 23.0991 19.4496 23.4613 13.9741H25V12.5093H23.4613ZM11.7676 3.7481V6.69082C8.71685 7.02964 6.28794 9.45854 5.94912 12.5093H3.0064C3.36313 7.84175 7.10005 4.10483 11.7676 3.7481ZM11.7676 22.7353C7.10005 22.3786 3.36313 18.6417 3.0064 13.9741H5.94912C6.28794 17.0249 8.71685 19.4538 11.7676 19.7926V22.7353ZM11.7676 16.9038V18.3161C9.52559 17.994 7.74771 16.2161 7.42559 13.9741H8.83789V12.5093H7.42559C7.74771 10.2673 9.52559 8.4894 11.7676 8.16729V9.57959H13.2324V8.16729C15.4744 8.4894 17.2523 10.2673 17.5744 12.5093H16.1621V13.9741H17.5744C17.2523 16.2161 15.4744 17.994 13.2324 18.3161V16.9038H11.7676ZM13.2324 22.7353V19.7926C16.2832 19.4538 18.7121 17.0248 19.0509 13.9741H21.9936C21.6369 18.6417 17.9 22.3786 13.2324 22.7353ZM19.0509 12.5093C18.7121 9.45854 16.2832 7.02964 13.2324 6.69082V3.7481C17.9 4.10483 21.6369 7.84175 21.9936 12.5093H19.0509Z" fill="#3E6BF7"/>
<path d="M12.5 11.0444C11.2884 11.0444 10.3027 12.0301 10.3027 13.2417C10.3027 14.4533 11.2884 15.439 12.5 15.439C13.7116 15.439 14.6973 14.4533 14.6973 13.2417C14.6973 12.0301 13.7116 11.0444 12.5 11.0444Z" fill="#3E6BF7"/>
</g>
<defs>
<clipPath id="clip0_630_7261">
<rect width="25" height="25" fill="white" transform="translate(0 0.741699)"/>
</clipPath>
</defs>
</svg>
