<svg width="16" height="16" viewBox="0 0 16 16" fill="none" xmlns="http://www.w3.org/2000/svg">
<g id="216390_rss_icon 1">
<path id="Vector" d="M4.00068 10.666C3.26268 10.666 2.66468 11.264 2.66602 12C2.66602 12.736 3.26335 13.334 4.00068 13.3327C4.73602 13.334 5.33402 12.7367 5.33268 12C5.33402 11.262 4.73602 10.6647 4.00068 10.666Z" fill="#3E6BF7"/>
<path id="Vector_2" d="M3.99935 2.66669C3.26335 2.66669 2.66602 3.26402 2.66602 4.00002C2.66602 4.73602 3.26335 5.33335 3.99935 5.33335C7.67535 5.33335 10.666 8.32402 10.666 12C10.666 12.736 11.2633 13.3334 11.9993 13.3334C12.7353 13.3334 13.3327 12.736 13.3327 12C13.3327 6.85335 9.14602 2.66669 3.99935 2.66669Z" fill="#3E6BF7"/>
<path id="Vector_3" d="M3.99935 6.66669C3.26335 6.66669 2.66602 7.26402 2.66602 8.00002C2.66602 8.73602 3.26335 9.33335 3.99935 9.33335C5.46935 9.33335 6.66602 10.5294 6.66602 12C6.66602 12.736 7.26335 13.3334 7.99935 13.3334C8.73535 13.3334 9.33268 12.736 9.33268 12C9.33268 9.05935 6.94002 6.66669 3.99935 6.66669Z" fill="#3E6BF7"/>
</g>
</svg>
