<svg width="32" height="32" viewBox="0 0 32 32" fill="none" xmlns="http://www.w3.org/2000/svg">
<mask id="mask0_3518_12286" style="mask-type:luminance" maskUnits="userSpaceOnUse" x="0" y="0" width="32" height="32">
<path d="M32 0H0V32H32V0Z" fill="white"/>
</mask>
<g mask="url(#mask0_3518_12286)">
<path d="M28.1167 0.985232C25.9733 0.989041 24.2366 2.72542 24.2328 4.86897C24.2303 5.70432 24.5007 6.51742 25.0025 7.18531L19.5722 12.6154C18.7472 11.9653 17.7273 11.612 16.677 11.6127C16.301 11.6141 15.9266 11.6594 15.5612 11.7468L14.396 7.96199C16.2878 7.27491 17.3401 5.25571 16.8199 3.31194C16.2994 1.36771 14.3792 0.144394 12.3974 0.494108C10.4156 0.84367 9.03004 2.65076 9.20665 4.65518C9.3831 6.66005 11.0631 8.19697 13.0756 8.19483C13.1462 8.19483 13.2169 8.19483 13.2874 8.18798L14.5092 12.1493C13.1492 12.8623 12.2218 14.193 12.0236 15.7153L7.62417 16.0684C7.05366 14.1121 5.06981 12.9276 3.07697 13.3535C1.08398 13.7797 -0.242345 15.6717 0.0371218 17.6903C0.316589 19.7089 2.10646 21.1698 4.14029 21.0387C6.17411 20.9078 7.76147 19.229 7.77945 17.1914L12.0092 16.8524C12.1833 18.3916 13.1052 19.7456 14.4735 20.4714C15.8418 21.1973 17.4802 21.2013 18.8519 20.4819L21.8319 25.0931C20.4364 26.5228 20.3798 28.7865 21.7017 30.2847C23.0235 31.7825 25.2769 32.0079 26.869 30.8013C28.4612 29.5946 28.8537 27.3644 27.7691 25.6866C26.6844 24.0091 24.4895 23.4515 22.7358 24.4082L19.784 19.8323C21.6501 18.1893 21.9074 15.3744 20.3702 13.4203L25.8003 7.99018C27.1559 8.9959 29.0054 9.01129 30.3777 8.02874C31.7497 7.04588 32.3303 5.28969 31.8145 3.68268C31.2987 2.07582 29.8043 0.985689 28.1167 0.985232Z" fill="white"/>
</g>
</svg>
