<svg width="1.4rem" height="1.4rem" viewBox="0 0 16 16" fill="none" xmlns="http://www.w3.org/2000/svg">
<rect width="16" height="16" rx="6" fill="#54C7EC"/>
<g clip-path="url(#clip0_1601_12501)">
<path fill-rule="evenodd" clip-rule="evenodd" d="M6.9901 3.68093C6.8353 3.71531 6.61941 3.80642 6.4619 3.90384C6.25741 4.03034 6.11045 4.20825 5.77922 4.73045L5.45778 5.23723H4.93581C4.63063 5.23723 4.36982 5.24719 4.30788 5.26122C4.24562 5.27531 4.15774 5.32017 4.0947 5.37008C3.82751 5.58151 3.88371 5.96063 4.20348 6.10389L4.33038 6.16074H7.99979H11.6692L11.7949 6.1044C12.0991 5.9681 12.1668 5.63367 11.9375 5.39951C11.7943 5.25323 11.7088 5.23723 11.07 5.23723H10.5418L10.2203 4.73015C9.86676 4.17239 9.73243 4.01705 9.47139 3.86415C9.38614 3.81419 9.23782 3.74753 9.1418 3.716L8.96725 3.65866L8.04757 3.65449C7.3198 3.6512 7.09912 3.65672 6.9901 3.68093ZM5.44374 7.32675C5.44374 7.68116 5.45296 7.83728 5.47926 7.92807C5.54365 8.15031 5.67472 8.28794 5.9215 8.39244C6.04345 8.44406 6.0761 8.44796 6.37538 8.44644C6.75347 8.44454 6.91707 8.41182 7.19293 8.28302C7.58806 8.09855 7.91134 7.70057 7.96798 7.32899C7.98614 7.20993 8.00708 7.22785 8.04598 7.39569C8.13229 7.76808 8.44627 8.12173 8.8544 8.30626C9.09449 8.41484 9.26117 8.44528 9.62419 8.44674C9.9233 8.44796 9.95629 8.44399 10.0792 8.3922C10.2682 8.31248 10.3762 8.21816 10.4658 8.0548L10.5439 7.91222L10.5517 7.38011L10.5595 6.84803H8.00162H5.44374V7.32675ZM5.40241 10.6681C4.68311 11.0394 4.21376 11.2948 4.15308 11.3481C4.09964 11.395 4.02721 11.4861 3.99215 11.5506C3.933 11.6592 3.92769 11.6923 3.91878 12.0069L3.90918 12.3462H7.99979H12.0904L12.0808 12.0069C12.0719 11.6922 12.0666 11.6592 12.0074 11.5506C11.9723 11.4861 11.8974 11.3929 11.8409 11.3434C11.773 11.2839 11.3475 11.0527 10.5821 10.6595L9.42588 10.0656L8.71283 10.7064L7.99979 11.3472L7.28898 10.7084C6.89802 10.3571 6.57281 10.0705 6.56636 10.0716C6.55985 10.0726 6.03608 10.3411 5.40241 10.6681Z" fill="white"/>
</g>
<defs>
<clipPath id="clip0_1601_12501">
<rect width="10" height="10" fill="white" transform="translate(3 3)"/>
</clipPath>
</defs>
</svg>
