<svg width="1.4rem" height="1.4rem" viewBox="0 0 16 16" fill="none" xmlns="http://www.w3.org/2000/svg">
<rect width="16" height="16" rx="6" fill="#B254D3"/>
<mask id="mask0_1601_12630" style="mask-type:luminance" maskUnits="userSpaceOnUse" x="3" y="3" width="10" height="10">
<path d="M13 3H3V13H13V3Z" fill="white"/>
</mask>
<g mask="url(#mask0_1601_12630)">
<path d="M11.4285 3.75091C10.8221 3.75199 10.3306 4.24331 10.3296 4.84985C10.3289 5.08622 10.4054 5.3163 10.5474 5.50528L9.01081 7.04178C8.77737 6.85784 8.48878 6.75785 8.19157 6.75807C8.0852 6.75846 7.97926 6.77126 7.87586 6.79601L7.54614 5.72505C8.08145 5.53064 8.37922 4.95928 8.23202 4.40927C8.08473 3.85913 7.5414 3.51298 6.98061 3.61194C6.41987 3.71085 6.0278 4.22218 6.07777 4.78936C6.1277 5.35666 6.60307 5.79154 7.17253 5.79094C7.19249 5.79094 7.2125 5.79094 7.23246 5.789L7.57818 6.90988C7.19335 7.11163 6.93094 7.48818 6.87484 7.91893L5.62999 8.01883C5.46856 7.46528 4.90721 7.13013 4.34332 7.25064C3.77938 7.37124 3.40408 7.90659 3.48316 8.47777C3.56224 9.04895 4.0687 9.46232 4.64419 9.42524C5.21968 9.38821 5.66884 8.91318 5.67393 8.33661L6.87079 8.24067C6.92003 8.6762 7.18089 9.05935 7.56809 9.26472C7.95525 9.47013 8.41885 9.47125 8.80699 9.26769L9.6502 10.5725C9.25533 10.977 9.23933 11.6176 9.61338 12.0415C9.98738 12.4653 10.625 12.5291 11.0755 12.1877C11.526 11.8462 11.6371 11.2151 11.3302 10.7404C11.0233 10.2657 10.4022 10.108 9.90598 10.3787L9.07074 9.08388C9.59876 8.61898 9.67159 7.82247 9.23662 7.26953L10.7731 5.73303C11.1567 6.01761 11.68 6.02196 12.0683 5.74394C12.4566 5.46583 12.6208 4.9689 12.4749 4.51418C12.3289 4.0595 11.9061 3.75104 11.4285 3.75091Z" fill="white"/>
</g>
</svg>


