<svg width="1.4rem" height="1.4rem" viewBox="0 0 16 16" fill="none" xmlns="http://www.w3.org/2000/svg">
<rect width="16" height="16" rx="6" fill="#0082F9"/>
<path d="M3.99834 8.01812C4.03733 8.01812 4.07826 8.01422 4.11725 8.00644C4.22836 7.98303 4.32193 7.93041 4.39796 7.85828C4.53246 8.03762 4.7157 8.17603 4.93208 8.254L4.4194 10.1566L3.53634 10.5113C3.43692 10.5503 3.38819 10.6653 3.42718 10.7648C3.45837 10.8408 3.53049 10.8876 3.60847 10.8876C3.63186 10.8876 3.6572 10.8817 3.68059 10.8739L4.65527 10.4841C4.7118 10.4607 4.75469 10.4119 4.77223 10.3535L5.35899 8.16628C5.36289 8.15262 5.36094 8.13703 5.36094 8.12341C5.76446 7.11753 6.74887 6.40406 7.89706 6.40406C8.58712 6.40406 9.21481 6.66331 9.69631 7.08634L12.6301 6.22278C12.7276 6.19353 12.788 6.09411 12.7666 5.9947L12.6067 5.23055C12.5852 5.13113 12.4917 5.06485 12.3903 5.0785L5.09388 6.01029C4.64552 6.10581 4.30244 6.45669 4.19912 6.88556C4.09776 6.8485 3.98664 6.83878 3.87943 6.86216C3.72543 6.89334 3.59482 6.98303 3.50905 7.11362C3.42328 7.24425 3.39404 7.40019 3.42523 7.55419C3.48371 7.82903 3.72738 8.01812 3.99834 8.01812Z" fill="white"/>
<path d="M9.55184 7.47816C9.5499 7.47623 9.546 7.47429 9.54209 7.47232C9.11909 7.05323 8.53818 6.79395 7.89684 6.79395C7.2555 6.79395 6.67459 7.05323 6.25159 7.47232C6.24965 7.47429 6.24575 7.47623 6.24184 7.47816C6.2399 7.48013 6.23793 7.48401 6.236 7.48791C5.81688 7.90898 5.55762 8.48988 5.55762 9.13123C5.55762 9.77257 5.81688 10.3535 6.236 10.7765C6.23793 10.7784 6.2399 10.7823 6.24184 10.7843C6.24378 10.7862 6.24768 10.7882 6.24965 10.7901C6.67265 11.2093 7.25356 11.4685 7.8949 11.4685C8.53625 11.4685 9.11715 11.2093 9.54015 10.7901C9.54209 10.7882 9.546 10.7862 9.54796 10.7843C9.5499 10.7823 9.55184 10.7784 9.55381 10.7765C9.97681 10.3554 10.2361 9.77257 10.2361 9.13123C10.2361 8.48988 9.97681 7.90898 9.55771 7.48598C9.55381 7.48401 9.55381 7.48013 9.55184 7.47816ZM6.38806 7.89923L7.22628 8.73941C7.18925 8.80179 7.16193 8.86807 7.1444 8.93826H5.95724C5.99622 8.54448 6.15218 8.18773 6.38806 7.89923ZM5.95724 9.32616H7.1444C7.16193 9.39635 7.19118 9.46263 7.22628 9.52501L6.38806 10.3632C6.15218 10.0767 5.99622 9.71798 5.95724 9.32616ZM7.7019 11.0709C7.31009 11.0319 6.95337 10.8759 6.66484 10.64L7.50309 9.80182C7.56546 9.83885 7.63175 9.86613 7.7019 9.88563V11.0709ZM7.7019 8.38073C7.63175 8.39826 7.56546 8.42751 7.50309 8.4626L6.6629 7.62241C6.9514 7.38654 7.31009 7.2306 7.69996 7.19163V8.38073H7.7019ZM8.09178 7.19163C8.48359 7.2306 8.84034 7.38654 9.12884 7.62241L8.28868 8.4626C8.22628 8.42557 8.16 8.39826 8.08984 8.38073V7.19163H8.09178ZM8.09178 11.0709V9.8837C8.16196 9.86613 8.23018 9.83688 8.29062 9.79985L9.12884 10.6381C8.84034 10.8759 8.48359 11.0319 8.09178 11.0709ZM9.40565 10.3652L8.56743 9.52695C8.60446 9.46457 8.63175 9.39829 8.64931 9.3281H9.83646C9.79746 9.71798 9.64153 10.0767 9.40565 10.3652ZM8.64931 8.93629C8.63175 8.8661 8.60253 8.79985 8.56743 8.73745L9.40565 7.89729C9.64153 8.18579 9.79746 8.54448 9.83646 8.93435H8.64931V8.93629Z" fill="white"/>
</svg>
