<svg width="1.4rem" height="1.4rem" viewBox="0 0 16 16" fill="none" xmlns="http://www.w3.org/2000/svg">
<rect width="16" height="16" rx="6" fill="#D35472"/>
<g clip-path="url(#clip0_1601_12437)">
<path d="M11.7951 7.39273C11.6608 7.39315 11.5305 7.43807 11.4245 7.52047C11.3185 7.60287 11.2428 7.71807 11.2092 7.84807H10.1254V7.6963H9.79453C9.75105 7.42621 9.64731 7.16941 9.49096 6.94495L9.72473 6.71118L9.61848 6.60495L10.2727 5.94924C10.4295 6.05304 10.6194 6.09493 10.8054 6.0667C10.9913 6.0385 11.1602 5.94221 11.2792 5.79653C11.3982 5.65085 11.4589 5.46616 11.4495 5.27829C11.4401 5.09041 11.3612 4.91273 11.2282 4.77971C11.0952 4.6467 10.9175 4.56782 10.7296 4.55838C10.5417 4.54895 10.357 4.60962 10.2114 4.72864C10.0657 4.84766 9.96939 5.01654 9.94119 5.20252C9.91296 5.38851 9.95482 5.57835 10.0586 5.73521L9.40293 6.38941L9.29668 6.28315L9.06293 6.5169C8.83691 6.35684 8.57736 6.25041 8.30402 6.20575V5.87486H8.15222V4.79111C8.29531 4.75416 8.41999 4.66631 8.50293 4.544C8.58588 4.42169 8.62136 4.27334 8.60273 4.12674C8.58413 3.98015 8.51268 3.84537 8.40179 3.74768C8.29091 3.65 8.14822 3.5961 8.00045 3.5961C7.85268 3.5961 7.70996 3.65 7.59908 3.74768C7.48819 3.84537 7.41676 3.98015 7.39813 4.12674C7.37951 4.27334 7.41499 4.42169 7.49793 4.544C7.58088 4.66631 7.70556 4.75416 7.84865 4.79111V5.87486H7.69688V6.20575C7.42616 6.25153 7.16933 6.3579 6.94553 6.5169L6.71176 6.28315L6.60553 6.38941L5.94982 5.73521C6.05362 5.57835 6.09551 5.38851 6.06728 5.20252C6.03908 5.01654 5.94279 4.84766 5.79711 4.72864C5.65143 4.60962 5.46674 4.54895 5.27887 4.55838C5.09099 4.56782 4.91331 4.6467 4.78029 4.77971C4.64728 4.91273 4.5684 5.09041 4.55897 5.27829C4.54953 5.46616 4.6102 5.65085 4.72922 5.79653C4.84824 5.94221 5.01712 6.0385 5.2031 6.0667C5.38909 6.09493 5.57893 6.05304 5.73579 5.94924L6.38999 6.60495L6.28373 6.71118L6.51748 6.94495C6.35848 7.16875 6.25211 7.42558 6.20633 7.6963H5.87545V7.84807H4.79169C4.75474 7.70498 4.66689 7.5803 4.54458 7.49735C4.42227 7.41441 4.27392 7.37893 4.12732 7.39755C3.98073 7.41618 3.84595 7.48761 3.74826 7.5985C3.65058 7.70938 3.59668 7.85207 3.59668 7.99987C3.59668 8.14764 3.65058 8.29033 3.74826 8.40121C3.84595 8.5121 3.98073 8.58355 4.12732 8.60215C4.27392 8.62078 4.42227 8.5853 4.54458 8.50235C4.66689 8.41941 4.75474 8.29473 4.79169 8.15164H5.87545V8.30344H6.20633C6.25099 8.57678 6.35742 8.83633 6.51748 9.06235L6.28373 9.2961L6.38999 9.40235L5.73579 10.0581C5.57893 9.95424 5.38909 9.91238 5.2031 9.94061C5.01712 9.96881 4.84824 10.0651 4.72922 10.2108C4.6102 10.3565 4.54953 10.5412 4.55897 10.729C4.5684 10.9169 4.64728 11.0946 4.78029 11.2276C4.91331 11.3606 5.09099 11.4395 5.27887 11.4489C5.46674 11.4584 5.65143 11.3977 5.79711 11.2787C5.94279 11.1596 6.03908 10.9908 6.06728 10.8048C6.09551 10.6188 6.05362 10.429 5.94982 10.2721L6.60553 9.6179L6.71176 9.72415L6.94553 9.49038C7.16999 9.64673 7.42679 9.75047 7.69688 9.79395V10.1249H7.84865V11.2086C7.70556 11.2456 7.58088 11.3334 7.49793 11.4557C7.41499 11.578 7.37951 11.7264 7.39813 11.873C7.41676 12.0196 7.48819 12.1544 7.59908 12.252C7.70996 12.3497 7.85268 12.4036 8.00045 12.4036C8.14822 12.4036 8.29091 12.3497 8.40179 12.252C8.51268 12.1544 8.58413 12.0196 8.60273 11.873C8.62136 11.7264 8.58588 11.578 8.50293 11.4557C8.41999 11.3334 8.29531 11.2456 8.15222 11.2086V10.1249H8.30402V9.79395C8.57671 9.75158 8.83622 9.64778 9.06293 9.49038L9.29668 9.72415L9.40293 9.6179L10.0586 10.2721C9.95482 10.429 9.91296 10.6188 9.94119 10.8048C9.96939 10.9908 10.0657 11.1596 10.2114 11.2787C10.357 11.3977 10.5417 11.4584 10.7296 11.4489C10.9175 11.4395 11.0952 11.3606 11.2282 11.2276C11.3612 11.0946 11.4401 10.9169 11.4495 10.729C11.4589 10.5412 11.3982 10.3565 11.2792 10.2108C11.1602 10.0651 10.9913 9.96881 10.8054 9.94061C10.6194 9.91238 10.4295 9.95424 10.2727 10.0581L9.61848 9.40235L9.72473 9.2961L9.48339 9.06235C9.64076 8.83564 9.74456 8.57613 9.78696 8.30344H10.1254V8.15164H11.2092C11.2376 8.26167 11.2963 8.36153 11.3787 8.43984C11.461 8.51815 11.5637 8.57175 11.675 8.59461C11.7863 8.61744 11.9018 8.60858 12.0084 8.56904C12.1149 8.52947 12.2082 8.46081 12.2776 8.37087C12.3471 8.28093 12.3899 8.17327 12.4012 8.06021C12.4125 7.94713 12.3918 7.83315 12.3415 7.73124C12.2912 7.62933 12.2134 7.54355 12.1168 7.48373C12.0202 7.42387 11.9087 7.39235 11.7951 7.39273ZM10.3622 4.9945C10.4039 4.94976 10.4542 4.91388 10.51 4.88899C10.5659 4.8641 10.6262 4.85072 10.6873 4.84964C10.7485 4.84856 10.8092 4.85981 10.8659 4.88271C10.9226 4.90561 10.9741 4.9397 11.0174 4.98294C11.0606 5.02618 11.0947 5.07769 11.1176 5.13439C11.1405 5.19109 11.1517 5.25182 11.1506 5.31296C11.1496 5.3741 11.1362 5.4344 11.1113 5.49025C11.0864 5.54611 11.0505 5.59638 11.0058 5.63807C10.9193 5.72119 10.804 5.7676 10.684 5.7676C10.564 5.7676 10.4487 5.72119 10.3622 5.63807C10.277 5.55269 10.229 5.43696 10.229 5.31629C10.229 5.19562 10.277 5.07988 10.3622 4.9945ZM5.63865 5.63807C5.55214 5.72119 5.43683 5.7676 5.31687 5.7676C5.1969 5.7676 5.08159 5.72119 4.99508 5.63807C4.93134 5.57441 4.88792 5.49327 4.8703 5.40493C4.85268 5.31658 4.86167 5.225 4.89612 5.14176C4.93057 5.05852 4.98893 4.98737 5.06383 4.93731C5.13872 4.88725 5.22678 4.86053 5.31687 4.86053C5.40695 4.86053 5.49501 4.88725 5.56991 4.93731C5.6448 4.98737 5.70317 5.05852 5.73761 5.14176C5.77206 5.225 5.78105 5.31658 5.76343 5.40493C5.74582 5.49327 5.70239 5.57441 5.63865 5.63807ZM5.63865 11.0052C5.55179 11.0876 5.43661 11.1336 5.31687 11.1336C5.19712 11.1336 5.08194 11.0876 4.99508 11.0052C4.93134 10.9416 4.88792 10.8604 4.8703 10.7721C4.85268 10.6837 4.86167 10.5921 4.89612 10.5089C4.93057 10.4257 4.98893 10.3545 5.06383 10.3044C5.13872 10.2544 5.22678 10.2277 5.31687 10.2277C5.40695 10.2277 5.49501 10.2544 5.56991 10.3044C5.6448 10.3545 5.70317 10.4257 5.73761 10.5089C5.77206 10.5921 5.78105 10.6837 5.76343 10.7721C5.74582 10.8604 5.70239 10.9416 5.63865 11.0052ZM8.00045 9.21415C7.76028 9.21415 7.52551 9.14293 7.32582 9.0095C7.12613 8.87607 6.97048 8.68641 6.87859 8.46455C6.78668 8.24267 6.76262 7.9985 6.80948 7.76295C6.85633 7.52741 6.97199 7.31104 7.14182 7.14124C7.31162 6.97141 7.52799 6.85575 7.76353 6.8089C7.99908 6.76204 8.24325 6.7861 8.46513 6.87801C8.68699 6.9699 8.87665 7.12555 9.01008 7.32524C9.14351 7.52493 9.21473 7.7597 9.21473 7.99987C9.21473 8.3219 9.08679 8.63075 8.85908 8.8585C8.63133 9.08621 8.32248 9.21415 8.00045 9.21415ZM10.3622 10.3616C10.4039 10.3169 10.4542 10.281 10.51 10.2561C10.5659 10.2312 10.6262 10.2179 10.6873 10.2168C10.7485 10.2157 10.8092 10.227 10.8659 10.2499C10.9226 10.2728 10.9741 10.3068 11.0174 10.3501C11.0606 10.3933 11.0947 10.4448 11.1176 10.5015C11.1405 10.5582 11.1517 10.619 11.1506 10.6801C11.1496 10.7412 11.1362 10.8016 11.1113 10.8574C11.0864 10.9133 11.0505 10.9635 11.0058 11.0052C10.9189 11.0876 10.8038 11.1336 10.684 11.1336C10.5643 11.1336 10.4491 11.0876 10.3622 11.0052C10.277 10.9198 10.229 10.8041 10.229 10.6834C10.229 10.5628 10.277 10.447 10.3622 10.3616Z" fill="white"/>
</g>
<defs>
<clipPath id="clip0_1601_12437">
<rect width="10" height="10" fill="white" transform="translate(3 3)"/>
</clipPath>
</defs>
</svg>