<svg width="1.4rem" height="1.4rem" viewBox="0 0 16 16" fill="none" xmlns="http://www.w3.org/2000/svg">
<rect width="16" height="16" rx="6" fill="#D35472"/>
<path d="M6.14934 8.62668H4.56319C4.41719 8.62668 4.29883 8.749 4.29883 8.89984V11.6316C4.29883 11.7824 4.41719 11.9047 4.56319 11.9047H6.14934C6.29534 11.9047 6.41368 11.7824 6.41368 11.6316V8.89984C6.41368 8.749 6.29534 8.62668 6.14934 8.62668Z" fill="white"/>
<path d="M11.4364 6.44125H9.85028C9.70428 6.44125 9.58594 6.56358 9.58594 6.71441V11.6315C9.58594 11.7824 9.70428 11.9047 9.85028 11.9047H11.4364C11.5824 11.9047 11.7008 11.7824 11.7008 11.6315V6.71441C11.7008 6.56358 11.5824 6.44125 11.4364 6.44125Z" fill="white"/>
<path d="M8.79288 4.25583H7.20673C7.06072 4.25583 6.94238 4.37813 6.94238 4.529V11.6314C6.94238 11.7823 7.06072 11.9046 7.20673 11.9046H8.79288C8.93888 11.9046 9.05726 11.7823 9.05726 11.6314V4.529C9.05726 4.37813 8.93888 4.25583 8.79288 4.25583Z" fill="white"/>
</svg>
