<svg width="1.4rem" height="1.4rem" viewBox="0 0 16 16" fill="none" xmlns="http://www.w3.org/2000/svg">
<rect width="16" height="16" rx="6" fill="#5C54D3"/>
<mask id="mask0_1601_12600" style="mask-type:luminance" maskUnits="userSpaceOnUse" x="3" y="3" width="10" height="10">
<path d="M12.8578 3.06808H3.14355V12.7824H12.8578V3.06808Z" fill="white"/>
</mask>
<g mask="url(#mask0_1601_12600)">
<mask id="mask1_1601_12600" style="mask-type:luminance" maskUnits="userSpaceOnUse" x="3" y="3" width="10" height="10">
<path d="M12.7136 3.71513H3.85645V12.858H12.7136V3.71513Z" fill="white"/>
</mask>
<g mask="url(#mask1_1601_12600)">
<path d="M4.45902 4.85481H4.75987V7.02873H4.45902V4.85481ZM4.45902 7.96041H4.75987V10.1343H4.45902V7.96041ZM10.777 4.85481H11.0778V7.02873H10.777V4.85481ZM5.06073 4.23369H7.31714V4.54425H5.06073V4.23369ZM8.21968 4.23369H10.4761V4.54425H8.21968V4.23369ZM5.06073 10.4449H7.31714V10.7554H5.06073V10.4449ZM4.30859 4.07841H4.9103V4.69953H4.30859V4.07841ZM7.46757 4.07841H8.06928V4.69953H7.46757V4.07841ZM10.6265 4.07841H11.2282V4.69953H10.6265V4.07841ZM4.30859 10.2896H4.9103V10.9107H4.30859V10.2896ZM4.30859 7.18401H4.9103V7.80513H4.30859V7.18401ZM10.6265 7.18401H11.2282V7.80513H10.6265V7.18401ZM7.46757 10.2896H8.06928V10.9107H7.46757V10.2896ZM10.8123 12.784L11.349 11.5655L10.1685 10.3469L10.8123 12.784ZM10.3813 10.1275L11.5617 11.346L12.7421 10.7919L10.3813 10.1275ZM6.41457 8.32113L7.618 8.81801V7.28913L6.41457 6.79224V8.32113ZM9.12225 6.79224L7.91885 7.28913V8.81801L9.12225 8.32113V6.79224ZM8.8676 6.56287L7.76843 6.10901L6.66925 6.56287L7.76843 7.01676L8.8676 6.56287ZM11.0778 10.0016V7.96041H10.777V9.91693L11.0778 10.0016ZM8.21968 10.4449V10.7554H9.96451L9.88251 10.4449H8.21968Z" fill="white"/>
</g>
</g>
</svg>
