<svg width="1.4rem" height="1.4rem" viewBox="0 0 16 16" fill="none" xmlns="http://www.w3.org/2000/svg">
<rect width="16" height="16" rx="6" fill="#B254D3"/>
<g clip-path="url(#clip0_1601_12636)">
<mask id="mask0_1601_12636" style="mask-type:luminance" maskUnits="userSpaceOnUse" x="3" y="3" width="10" height="10">
<path d="M12.4922 3.50781H3.50781V12.4922H12.4922V3.50781Z" fill="white"/>
</mask>
<g mask="url(#mask0_1601_12636)">
<path d="M11.9392 7.73679C11.8091 5.76905 10.231 4.19094 8.26321 4.06077V3.50781H7.73679V4.06077C5.76905 4.19094 4.19094 5.76905 4.06077 7.73679H3.50781V8.26321H4.06077C4.19094 10.231 5.76905 11.8091 7.73679 11.9392V12.4922H8.26321V11.9392C10.231 11.8091 11.8091 10.231 11.9392 8.26321H12.4922V7.73679H11.9392ZM7.73679 4.58824V5.64578C6.64043 5.76754 5.76754 6.64043 5.64578 7.73679H4.58824C4.71644 6.05939 6.05939 4.71644 7.73679 4.58824ZM7.73679 11.4118C6.05939 11.2836 4.71644 9.94063 4.58824 8.26321H5.64578C5.76754 9.35959 6.64043 10.2325 7.73679 10.3542V11.4118ZM7.73679 9.31607V9.82361C6.93107 9.70786 6.29215 9.06893 6.17638 8.26321H6.68393V7.73679H6.17638C6.29215 6.93108 6.93107 6.29214 7.73679 6.17638V6.68393H8.26321V6.17638C9.06892 6.29214 9.70786 6.93108 9.82361 7.73679H9.31607V8.26321H9.82361C9.70786 9.06893 9.06892 9.70786 8.26321 9.82361V9.31607H7.73679ZM8.26321 11.4118V10.3542C9.35959 10.2325 10.2325 9.35955 10.3542 8.26321H11.4118C11.2836 9.94063 9.94063 11.2836 8.26321 11.4118ZM10.3542 7.73679C10.2325 6.64043 9.35959 5.76754 8.26321 5.64578V4.58824C9.94063 4.71644 11.2836 6.05939 11.4118 7.73679H10.3542Z" fill="white"/>
<path d="M7.99962 7.2101C7.5642 7.2101 7.20996 7.56433 7.20996 7.99975C7.20996 8.43517 7.5642 8.78941 7.99962 8.78941C8.43503 8.78941 8.78927 8.43517 8.78927 7.99975C8.78927 7.56433 8.43503 7.2101 7.99962 7.2101Z" fill="white"/>
</g>
</g>
<defs>
<clipPath id="clip0_1601_12636">
<rect width="10" height="10" fill="white" transform="translate(3 3)"/>
</clipPath>
</defs>
</svg>
