<svg width="1.4rem" height="1.4rem" viewBox="0 0 16 16" fill="none" xmlns="http://www.w3.org/2000/svg">
<rect width="16" height="16" rx="6" fill="#5C54D3"/>
<mask id="mask0_1601_12588" style="mask-type:luminance" maskUnits="userSpaceOnUse" x="3" y="3" width="10" height="10">
<path d="M13 3H3V13H13V3Z" fill="white"/>
</mask>
<g mask="url(#mask0_1601_12588)">
<mask id="mask1_1601_12588" style="mask-type:luminance" maskUnits="userSpaceOnUse" x="3" y="3" width="10" height="10">
<path d="M12.6469 3.58208H3.34668V12.4173H12.6469V3.58208Z" fill="white"/>
</mask>
<g mask="url(#mask1_1601_12588)">
<path d="M7.62047 3.60259C7.48967 3.62477 7.19178 3.72461 7.09008 3.77636C6.78671 3.9353 6.65413 4.02956 6.47064 4.2144C6.34169 4.34567 6.15095 4.59887 6.10919 4.69313C6.09831 4.71717 6.06738 4.78185 6.03651 4.83733C5.97657 4.95005 5.86762 5.3068 5.83855 5.48793C5.8113 5.65798 5.81312 5.96665 5.84581 6.14782C5.87668 6.3308 5.9675 6.62841 6.02744 6.74299C6.05288 6.78921 6.08375 6.85389 6.10012 6.889C6.1782 7.05352 6.38708 7.31597 6.57239 7.47677C6.63958 7.53592 6.65595 7.55997 6.64139 7.57843C6.63051 7.5914 6.59782 7.64869 6.56694 7.70412C6.51607 7.8021 6.47976 7.86496 6.34532 8.09231C6.31263 8.14774 6.26176 8.24018 6.23088 8.29561C6.20001 8.35109 6.16187 8.41763 6.14188 8.44162C6.1237 8.46566 6.10919 8.49524 6.10919 8.50817C6.10919 8.52109 6.09463 8.55067 6.0765 8.57471C6.0565 8.59875 6.01837 8.66529 5.9875 8.72072C5.95662 8.7762 5.90756 8.86306 5.8785 8.91482C5.84762 8.96471 5.79312 9.06083 5.75499 9.12737L5.68412 9.24939H5.52974C5.31542 9.24753 5.09742 9.31775 4.95936 9.42865C4.81953 9.53956 4.80135 9.55807 4.80135 9.58206C4.80135 9.59685 4.79409 9.60796 4.78498 9.60796C4.75229 9.60796 4.66329 9.78541 4.62153 9.92956C4.58516 10.0534 4.57972 10.1033 4.58884 10.253C4.60335 10.534 4.68147 10.7114 4.87217 10.9018C5.03567 11.0645 5.21367 11.1403 5.46436 11.1551C5.59693 11.1624 5.65869 11.1569 5.78043 11.1255C5.93662 11.0829 5.9675 11.0682 6.12188 10.9517C6.22907 10.8704 6.37438 10.6652 6.40345 10.558C6.46883 10.3011 6.47427 10.2456 6.45613 10.1015C6.44521 10.022 6.42888 9.94249 6.418 9.92217C6.40889 9.90371 6.39982 9.87227 6.39982 9.85377C6.39982 9.83531 6.36713 9.76876 6.32533 9.70594C6.24906 9.58578 6.24906 9.5636 6.31807 9.47855C6.33081 9.46376 6.37076 9.39355 6.40889 9.32147C6.44521 9.25121 6.49245 9.17174 6.51063 9.1477C6.53058 9.1237 6.54514 9.09594 6.54514 9.08855C6.54514 9.07934 6.5742 9.02758 6.6087 8.97025C6.64502 8.91482 6.67957 8.85381 6.68501 8.83535C6.69227 8.8187 6.71952 8.77067 6.74495 8.72998C6.7722 8.68933 6.82121 8.60614 6.85209 8.54514C6.88301 8.48413 6.95021 8.36769 6.99927 8.28636C7.04828 8.20503 7.10096 8.11077 7.11733 8.07752C7.13184 8.04609 7.17178 7.97401 7.20452 7.92039C7.2354 7.86678 7.27715 7.79842 7.29352 7.76885C7.42066 7.53964 7.46428 7.46385 7.50422 7.4047C7.55509 7.32523 7.54779 7.28454 7.47697 7.26794C7.44972 7.26055 7.40247 7.23836 7.3716 7.218C7.34254 7.19582 7.29534 7.16443 7.26809 7.14592C7.24084 7.12746 7.21178 7.11267 7.20271 7.11267C7.19359 7.11267 7.12459 7.06278 7.05009 7.00363C6.66502 6.69491 6.45432 6.23469 6.47613 5.74856C6.50882 5.0351 6.95927 4.46393 7.62591 4.2902C8.31255 4.11089 9.02638 4.43993 9.36426 5.09053C9.46233 5.28095 9.52776 5.57112 9.52776 5.81325C9.52776 5.91862 9.52957 6.00362 9.53501 6.00362C9.53864 6.00362 9.6767 6.02399 9.84196 6.04984C10.0091 6.07575 10.1508 6.09235 10.1617 6.08681C10.1889 6.06835 10.1817 5.53047 10.1508 5.38441C10.1017 5.14414 10.0182 4.9168 9.90009 4.70052C9.83652 4.58223 9.67851 4.35307 9.63127 4.31052C9.60765 4.28834 9.57496 4.25509 9.55682 4.23658C9.36063 4.00743 8.99551 3.78562 8.61587 3.66546C8.39062 3.59338 8.387 3.59338 8.05279 3.58966C7.86749 3.58599 7.67316 3.59338 7.62047 3.60259ZM5.71319 9.99057C5.86032 10.1477 5.8585 10.266 5.70775 10.4157C5.6333 10.4915 5.62418 10.4952 5.52249 10.4952C5.41711 10.4952 5.41167 10.4933 5.3263 10.4046C5.23911 10.3177 5.23729 10.3122 5.23729 10.2031C5.23729 10.0959 5.24092 10.0886 5.31904 10.0072C5.39893 9.92217 5.40079 9.92217 5.5243 9.92217C5.64418 9.92217 5.64962 9.92403 5.71319 9.99057Z" fill="white"/>
<path d="M7.73187 4.87672C7.35954 4.97098 7.09248 5.31476 7.05979 5.7362C7.05072 5.85822 7.05798 5.90072 7.12517 6.16503C7.16335 6.30919 7.40311 6.57536 7.57023 6.65855C7.68467 6.71398 7.84812 6.75095 7.99707 6.75281L8.14968 6.75653L8.21506 6.86004C8.27319 6.95244 8.31676 7.02451 8.41306 7.19643C8.42939 7.226 8.47119 7.29622 8.50388 7.35169C8.53838 7.40712 8.57289 7.46813 8.582 7.49031C8.59107 7.5125 8.62376 7.56611 8.65282 7.61229C8.68189 7.65851 8.72183 7.72877 8.74364 7.76941C8.76364 7.81006 8.82176 7.90989 8.87082 7.99122C8.92165 8.07255 8.97615 8.16867 8.99433 8.20378C9.01246 8.23889 9.05427 8.31468 9.08877 8.37011C9.12328 8.42559 9.16508 8.49399 9.17959 8.52171C9.35397 8.83963 9.43027 8.96161 9.46296 8.97453C9.47566 8.97825 9.51746 8.96161 9.55922 8.93575C9.59921 8.90985 9.64097 8.88767 9.64822 8.88767C9.65734 8.88767 9.72272 8.85624 9.79354 8.81559C9.86259 8.77677 9.9443 8.7398 9.97336 8.73426C10.0006 8.72873 10.0896 8.70655 10.1695 8.68618C10.3512 8.63814 10.5365 8.63814 10.7508 8.68251C10.9815 8.7324 11.0324 8.74719 11.1141 8.79155C11.1541 8.81373 11.2158 8.84517 11.2503 8.86363C11.3539 8.91724 11.5682 9.10581 11.6645 9.22778C11.7844 9.37933 11.9115 9.6381 11.9624 9.83034C12.0169 10.0318 12.0187 10.3719 11.9696 10.5419C11.9515 10.603 11.9333 10.6769 11.9279 10.7083C11.9225 10.7379 11.9115 10.7711 11.9043 10.7823C11.897 10.7915 11.857 10.8673 11.8153 10.9505C11.7444 11.0928 11.5537 11.3201 11.3866 11.4588C11.2176 11.5974 10.8434 11.7379 10.5656 11.7638C10.3549 11.7841 9.97155 11.6972 9.79173 11.5918C9.6864 11.5272 9.68092 11.5272 9.65553 11.5604C9.64097 11.5789 9.61916 11.6214 9.60647 11.651C9.59373 11.6824 9.55378 11.7508 9.51746 11.8025C9.48115 11.8562 9.45208 11.9061 9.45208 11.9134C9.45208 11.9227 9.42665 11.9652 9.39758 12.0096C9.36671 12.0539 9.34308 12.0964 9.34308 12.102C9.34308 12.1094 9.37034 12.1279 9.40303 12.1426C9.4339 12.1574 9.50291 12.1907 9.55197 12.2184C9.65552 12.272 9.87892 12.3497 10.0515 12.3903C10.2114 12.4273 10.6909 12.4273 10.8816 12.3903C11.3303 12.3035 11.7099 12.0964 12.0332 11.7656C12.3184 11.4735 12.5073 11.1186 12.6127 10.6714C12.6581 10.4828 12.6635 9.98375 12.6218 9.78412C12.4837 9.11134 12.0968 8.57714 11.5137 8.25C11.3666 8.16681 11.214 8.10766 10.9888 8.04484C10.8453 8.00415 10.7926 8.00048 10.4802 8.00048C10.1278 8.00048 10.0134 8.01708 9.78991 8.09841L9.71728 8.12431L9.65734 8.03187C9.6246 7.98197 9.5974 7.93393 9.5974 7.92654C9.5974 7.91729 9.56466 7.86 9.52472 7.79899C9.48477 7.73798 9.45208 7.68255 9.45208 7.67516C9.45208 7.66776 9.42116 7.61047 9.38303 7.54946C9.30858 7.4293 9.21772 7.2759 9.18503 7.21489C9.17233 7.19457 9.13239 7.12435 9.09421 7.05781C9.05608 6.99127 9.01246 6.91547 8.99795 6.88775C8.87808 6.66962 8.82176 6.57536 8.77452 6.50514C8.7382 6.45153 8.7255 6.41642 8.73639 6.40163C8.88714 6.19647 8.93257 6.05599 8.93257 5.79168C8.93257 5.48668 8.86171 5.30923 8.66371 5.10779C8.5402 4.98391 8.42394 4.91737 8.25501 4.87486C8.08426 4.83236 7.90262 4.83236 7.73187 4.87672ZM8.20051 5.59572C8.28407 5.67891 8.28956 5.68998 8.28956 5.78242C8.28956 5.89333 8.25138 5.97094 8.16419 6.03748C8.12062 6.06892 8.08426 6.07817 7.99344 6.07817C7.88267 6.07817 7.87719 6.07631 7.80093 5.99684C7.73369 5.92658 7.71918 5.90072 7.71192 5.82125C7.70281 5.71774 7.74098 5.63455 7.83724 5.55136C7.88267 5.51258 7.91174 5.50518 8.00255 5.50518C8.10969 5.50518 8.11518 5.507 8.20051 5.59572Z" fill="white"/>
<path d="M4.36391 8.29504C4.16596 8.42259 3.8989 8.67398 3.79358 8.83106C3.76996 8.86621 3.72634 8.9309 3.69546 8.97526C3.6664 9.01776 3.64096 9.06212 3.64096 9.07319C3.64096 9.0843 3.62645 9.11574 3.60646 9.14159C3.55926 9.21 3.52108 9.30611 3.45026 9.53713C3.35763 9.83106 3.34489 9.94011 3.35582 10.2802C3.36489 10.5759 3.38307 10.672 3.47751 10.9567C3.51927 11.0787 3.66821 11.3726 3.74815 11.489C3.85171 11.6424 4.10965 11.9068 4.25859 12.0121C4.50742 12.1914 4.8671 12.3467 5.15773 12.4003C5.22311 12.4132 5.39205 12.4169 5.58457 12.4114C5.89519 12.404 5.90789 12.4021 6.13133 12.3282C6.51277 12.2043 6.79978 12.0306 7.04865 11.7792C7.19578 11.6295 7.41917 11.3319 7.41917 11.2876C7.41917 11.2709 7.4301 11.2487 7.44279 11.2376C7.49185 11.1951 7.6408 10.7959 7.6826 10.5907L7.6953 10.5316H8.64712C9.43183 10.5316 9.59891 10.5353 9.59891 10.5556C9.59891 10.5907 9.73515 10.8051 9.80421 10.8791C9.96222 11.0473 10.2292 11.1582 10.4763 11.16C10.6779 11.16 10.9286 11.0805 11.0594 10.9733C11.0702 10.9641 11.1066 10.9363 11.1374 10.9086C11.1702 10.8828 11.1974 10.855 11.1974 10.8458C11.1974 10.8384 11.221 10.8051 11.2501 10.7737C11.3082 10.7109 11.3845 10.5242 11.4172 10.3652C11.4553 10.1822 11.4117 9.91607 11.3118 9.72755C11.1338 9.39298 10.6815 9.17856 10.3255 9.26175C10.113 9.31165 10.0821 9.32276 9.9804 9.3893C9.8369 9.48356 9.64615 9.70718 9.60983 9.82181C9.59891 9.85878 9.5844 9.86059 9.03945 9.8717C8.7325 9.8791 8.16575 9.88463 7.77886 9.88463H7.07409V10.0196C7.07409 10.1933 7.04502 10.4207 7.00141 10.5944C6.96327 10.7515 6.84158 11.0047 6.75802 11.1083C6.63633 11.258 6.34932 11.5297 6.31115 11.5297C6.30389 11.5297 6.24576 11.5593 6.18401 11.5944C6.00419 11.6979 5.61 11.7811 5.40656 11.7589C4.59823 11.6702 4.00428 11.0195 4.00065 10.2173C3.99702 9.68319 4.28403 9.13234 4.69998 8.87361C4.81804 8.80148 4.81804 8.80706 4.72179 8.65547C4.68724 8.59818 4.65817 8.54643 4.65817 8.53717C4.65817 8.52792 4.62548 8.4651 4.58554 8.39855C4.54559 8.33201 4.51286 8.26919 4.51286 8.25807C4.51286 8.22482 4.4511 8.23961 4.36391 8.29504ZM10.687 10.0048C10.7578 10.0843 10.7614 10.0917 10.7614 10.2081C10.7614 10.3264 10.7596 10.3301 10.6797 10.4114C10.6016 10.4909 10.5944 10.4946 10.4926 10.4946C10.409 10.4946 10.3727 10.4854 10.3328 10.4521C10.242 10.38 10.2002 10.3209 10.1893 10.2451C10.1747 10.1508 10.1965 10.0917 10.2855 9.9974C10.3545 9.92346 10.3582 9.9216 10.4835 9.9216H10.6107L10.687 10.0048Z" fill="white"/>
</g>
</g>
</svg>
